G04*
G04 #@! TF.GenerationSoftware,Altium Limited,Altium Designer,24.2.2 (26)*
G04*
G04 Layer_Color=32768*
%FSLAX44Y44*%
%MOMM*%
G71*
G04*
G04 #@! TF.SameCoordinates,D122A20A-D054-46DF-A371-D1266C08E9A0*
G04*
G04*
G04 #@! TF.FilePolarity,Positive*
G04*
G01*
G75*
%ADD53C,0.0508*%
%ADD54C,0.0500*%
D53*
X81170Y854270D02*
Y891730D01*
X100830Y854270D02*
Y891730D01*
X81170Y854270D02*
X100830D01*
X81170Y891730D02*
X100830D01*
Y816270D02*
Y853730D01*
X81170Y816270D02*
Y853730D01*
X100830D01*
X81170Y816270D02*
X100830D01*
X395830Y957270D02*
Y994730D01*
X376170Y957270D02*
Y994730D01*
X395830D01*
X376170Y957270D02*
X395830D01*
X446830D02*
Y994730D01*
X427170Y957270D02*
Y994730D01*
X446830D01*
X427170Y957270D02*
X446830D01*
X216270Y816831D02*
X253730D01*
X216270Y797170D02*
X253730D01*
X216270D02*
Y816831D01*
X253730Y797170D02*
Y816831D01*
D54*
X-8171Y904700D02*
X70829D01*
X-8171Y803300D02*
Y904700D01*
Y803300D02*
X70829D01*
Y904700D01*
X364100Y712550D02*
X419900D01*
X364100Y626250D02*
Y712550D01*
Y626250D02*
X419900D01*
Y712550D01*
X353100Y458182D02*
X408900D01*
Y544482D01*
X353100D02*
X408900D01*
X353100Y458182D02*
Y544482D01*
X229500Y926000D02*
Y1014399D01*
X217100Y926000D02*
X229500D01*
X217100Y882999D02*
Y926000D01*
Y882999D02*
X229500D01*
Y863999D02*
Y882999D01*
Y863999D02*
X322500D01*
X229500Y1014399D02*
X322500D01*
Y863999D02*
Y1014399D01*
X432100Y712550D02*
X487900D01*
X432100Y626250D02*
Y712550D01*
Y626250D02*
X487900D01*
Y712550D01*
X296100D02*
X351900D01*
X296100Y626250D02*
Y712550D01*
Y626250D02*
X351900D01*
Y712550D01*
X353100Y65662D02*
X408900D01*
Y151962D01*
X353100D02*
X408900D01*
X353100Y65662D02*
Y151962D01*
Y196502D02*
X408900D01*
Y282802D01*
X353100D02*
X408900D01*
X353100Y196502D02*
Y282802D01*
Y327342D02*
X408900D01*
Y413642D01*
X353100D02*
X408900D01*
X353100Y327342D02*
Y413642D01*
X356400Y902520D02*
X466800D01*
X356400D02*
Y954520D01*
X466800D01*
Y902520D02*
Y954520D01*
M02*
