G04*
G04 #@! TF.GenerationSoftware,Altium Limited,Altium Designer,24.2.2 (26)*
G04*
G04 Layer_Color=16711935*
%FSLAX44Y44*%
%MOMM*%
G71*
G04*
G04 #@! TF.SameCoordinates,D122A20A-D054-46DF-A371-D1266C08E9A0*
G04*
G04*
G04 #@! TF.FilePolarity,Negative*
G04*
G01*
G75*
%ADD26O,2.2032X1.2032*%
%ADD27O,3.2032X2.2032*%
%ADD28O,5.2032X2.7032*%
%ADD29O,2.7032X5.2032*%
%ADD30O,2.2032X2.7032*%
%ADD31C,2.2032*%
%ADD32R,2.2032X2.2032*%
%ADD33O,2.7032X2.2032*%
%ADD34R,2.0632X2.0632*%
%ADD35C,2.0632*%
%ADD36C,1.4732*%
%ADD37C,3.2032*%
D26*
X58329Y897200D02*
D03*
Y810800D02*
D03*
X20329Y897200D02*
D03*
Y810800D02*
D03*
D27*
X392000Y694800D02*
D03*
Y669400D02*
D03*
Y644000D02*
D03*
X381000Y475932D02*
D03*
Y501332D02*
D03*
Y526732D02*
D03*
X460000Y694800D02*
D03*
Y669400D02*
D03*
Y644000D02*
D03*
X324000Y694800D02*
D03*
Y669400D02*
D03*
Y644000D02*
D03*
X381000Y83412D02*
D03*
Y108812D02*
D03*
Y134212D02*
D03*
Y214252D02*
D03*
Y239652D02*
D03*
Y265052D02*
D03*
Y345092D02*
D03*
Y370492D02*
D03*
Y395892D02*
D03*
D28*
X276000Y877449D02*
D03*
Y937000D02*
D03*
D29*
X229100Y907039D02*
D03*
D30*
X160600Y968000D02*
D03*
X186000D02*
D03*
X109444Y35000D02*
D03*
X84044D02*
D03*
X186000D02*
D03*
X160600D02*
D03*
X84044Y968000D02*
D03*
X109444D02*
D03*
D31*
X27000Y93642D02*
D03*
Y228641D02*
D03*
X212000D02*
D03*
Y93642D02*
D03*
Y273428D02*
D03*
Y408428D02*
D03*
X27000D02*
D03*
Y273428D02*
D03*
X212000Y453214D02*
D03*
Y588214D02*
D03*
X27000D02*
D03*
Y453214D02*
D03*
X274000Y807000D02*
D03*
X212000Y632999D02*
D03*
Y768000D02*
D03*
X27000D02*
D03*
Y632999D02*
D03*
D32*
X304000Y807000D02*
D03*
D33*
X461500Y252920D02*
D03*
Y227520D02*
D03*
Y383760D02*
D03*
Y358360D02*
D03*
Y489200D02*
D03*
Y514600D02*
D03*
Y96680D02*
D03*
Y122080D02*
D03*
D34*
X437000Y934000D02*
D03*
D35*
X411600D02*
D03*
X386200D02*
D03*
D36*
X172314Y552314D02*
D03*
X246000Y536000D02*
D03*
X264483Y674678D02*
D03*
X250000Y749000D02*
D03*
X458272Y748350D02*
D03*
X389000Y767152D02*
D03*
X94000Y794000D02*
D03*
D37*
X25000Y25000D02*
D03*
X475000Y975000D02*
D03*
X25000D02*
D03*
X475000Y25000D02*
D03*
M02*
