M48
;Layer_Color=9474304
;FILE_FORMAT=4:3
METRIC,LZ
;TYPE=PLATED
T02F00S00C0.700
T03F00S00C0.711
T04F00S00C0.762
T05F00S00C1.000
T08F00S00C1.240
T09F00S00C1.300
T10F00S00C2.500
%
T02
X00274Y00807
T03
X0017231Y0055231
X00246Y00536
X0026448Y0067468
X0025Y00749
X00389Y0076715
X0045827Y0074835
X00094Y00794
T04
X00304Y00807
T05
X00027Y0009364
Y0022864
Y0027343
Y0040843
Y0045321
X00212
Y0040843
Y0027343
Y0022864
Y0009364
Y0058821
Y00633
Y00768
X00027
Y00633
Y0058821
T08
X003862Y00934
X004116
X00437
T09
X001606Y00035
X00186
X0010944
X0008404
X004615Y0009668
Y0012208
Y0022752
Y0025292
Y0035836
Y0038376
Y004892
Y005146
X0010944Y00968
X0008404
X001606
X00186
T10
X00475Y00025
X00025
Y00975
X00475
M30
