M48
;Layer_Color=9474304
;FILE_FORMAT=4:3
METRIC,LZ
;TYPE=PLATED
T01F00S00C0.500
T06F00S00C1.000
T07F00S00C1.200
%
G90
G05
T01
G00X0001683Y008108
M15
G01X0002383
M16
G00X0005483Y008108
M15
G01X0006183
M16
G00X0005483Y008972
M15
G01X0006183
M16
G00X0001683Y008972
M15
G01X0002383
M16
T06
G00X00386Y0008341
M15
G01X00376
M16
G00X00386Y0010881
M15
G01X00376
M16
G00X00386Y0013421
M15
G01X00376
M16
G00X00386Y0021425
M15
G01X00376
M16
G00X00386Y0023965
M15
G01X00376
M16
G00X00386Y0026505
M15
G01X00376
M16
G00X00386Y0034509
M15
G01X00376
M16
G00X00386Y0037049
M15
G01X00376
M16
G00X00386Y0039589
M15
G01X00376
M16
G00X00386Y0047593
M15
G01X00376
M16
G00X00386Y0050133
M15
G01X00376
M16
G00X00386Y0052673
M15
G01X00376
M16
G00X00387Y00644
M15
G01X00397
M16
G00X00387Y006694
M15
G01X00397
M16
G00X00387Y006948
M15
G01X00397
M16
G00X00455Y006948
M15
G01X00465
M16
G00X00455Y006694
M15
G01X00465
M16
G00X00455Y00644
M15
G01X00465
M16
G00X00319Y00644
M15
G01X00329
M16
G00X00319Y006694
M15
G01X00329
M16
G00X00319Y006948
M15
G01X00329
M16
T07
G00X002645Y0087745
M15
G01X002875
M16
G00X002645Y00937
M15
G01X002875
M16
G00X002291Y0091854
M15
G01Y0089554
M16
M17
M30
