G04*
G04 #@! TF.GenerationSoftware,Altium Limited,Altium Designer,24.2.2 (26)*
G04*
G04 Layer_Color=8388736*
%FSLAX44Y44*%
%MOMM*%
G71*
G04*
G04 #@! TF.SameCoordinates,26981B9A-845B-47AF-AE02-24A449A504A3*
G04*
G04*
G04 #@! TF.FilePolarity,Negative*
G04*
G01*
G75*
%ADD21R,1.3532X1.1032*%
%ADD22R,1.3532X1.0032*%
%ADD23R,1.3532X0.9032*%
%ADD24R,1.7032X1.5032*%
%ADD25R,1.5032X1.7032*%
%ADD26C,2.0632*%
%ADD27R,2.0632X2.0632*%
%ADD28O,2.2032X1.2032*%
%ADD29O,3.2032X2.2032*%
%ADD30O,5.2032X2.7032*%
%ADD31O,2.7032X5.2032*%
%ADD32O,2.2032X2.7032*%
%ADD33C,2.2032*%
%ADD34R,2.2032X2.2032*%
%ADD35O,2.7032X2.2032*%
%ADD36C,1.4732*%
%ADD37C,3.2032*%
D21*
X58379Y826500D02*
D03*
Y881500D02*
D03*
D22*
Y838800D02*
D03*
Y869200D02*
D03*
D23*
Y859000D02*
D03*
Y849000D02*
D03*
D24*
X91000Y863500D02*
D03*
Y882500D02*
D03*
Y844500D02*
D03*
Y825500D02*
D03*
X386000Y985500D02*
D03*
Y966500D02*
D03*
X437000Y985500D02*
D03*
Y966500D02*
D03*
D25*
X225500Y807000D02*
D03*
X244500D02*
D03*
D26*
X386200Y934000D02*
D03*
X411600D02*
D03*
D27*
X437000D02*
D03*
D28*
X20329Y810800D02*
D03*
Y897200D02*
D03*
X58329Y810800D02*
D03*
Y897200D02*
D03*
D29*
X392000Y694800D02*
D03*
Y669400D02*
D03*
Y644000D02*
D03*
X381000Y475932D02*
D03*
Y501332D02*
D03*
Y526732D02*
D03*
X460000Y694800D02*
D03*
Y669400D02*
D03*
Y644000D02*
D03*
X324000Y694800D02*
D03*
Y669400D02*
D03*
Y644000D02*
D03*
X381000Y83412D02*
D03*
Y108812D02*
D03*
Y134212D02*
D03*
Y214252D02*
D03*
Y239652D02*
D03*
Y265052D02*
D03*
Y345092D02*
D03*
Y370492D02*
D03*
Y395892D02*
D03*
D30*
X276000Y877449D02*
D03*
Y937000D02*
D03*
D31*
X229100Y907039D02*
D03*
D32*
X160600Y968000D02*
D03*
X186000D02*
D03*
X109444Y35000D02*
D03*
X84044D02*
D03*
X186000D02*
D03*
X160600D02*
D03*
X84044Y968000D02*
D03*
X109444D02*
D03*
D33*
X27000Y93642D02*
D03*
Y228641D02*
D03*
X212000D02*
D03*
Y93642D02*
D03*
Y273428D02*
D03*
Y408428D02*
D03*
X27000D02*
D03*
Y273428D02*
D03*
X212000Y453214D02*
D03*
Y588214D02*
D03*
X27000D02*
D03*
Y453214D02*
D03*
X274000Y807000D02*
D03*
X212000Y632999D02*
D03*
Y768000D02*
D03*
X27000D02*
D03*
Y632999D02*
D03*
D34*
X304000Y807000D02*
D03*
D35*
X461500Y252920D02*
D03*
Y227520D02*
D03*
Y383760D02*
D03*
Y358360D02*
D03*
Y489200D02*
D03*
Y514600D02*
D03*
Y96680D02*
D03*
Y122080D02*
D03*
D36*
X172314Y552314D02*
D03*
X246000Y536000D02*
D03*
X264483Y674678D02*
D03*
X250000Y749000D02*
D03*
X458272Y748350D02*
D03*
X389000Y767152D02*
D03*
X94000Y794000D02*
D03*
D37*
X25000Y25000D02*
D03*
X475000Y975000D02*
D03*
X25000D02*
D03*
X475000Y25000D02*
D03*
M02*
