G04*
G04 #@! TF.GenerationSoftware,Altium Limited,Altium Designer,24.2.2 (26)*
G04*
G04 Layer_Color=255*
%FSLAX44Y44*%
%MOMM*%
G71*
G04*
G04 #@! TF.SameCoordinates,C1532DF8-A77D-479D-A07C-5EAB100E6B30*
G04*
G04*
G04 #@! TF.FilePolarity,Positive*
G04*
G01*
G75*
%ADD16R,1.1500X0.9000*%
%ADD17R,1.1500X0.8000*%
%ADD18R,1.1500X0.7000*%
%ADD19R,1.5000X1.3000*%
%ADD20R,1.3000X1.5000*%
%ADD40C,1.8600*%
%ADD41R,1.8600X1.8600*%
%ADD42O,2.0000X1.0000*%
%ADD43O,3.0000X2.0000*%
%ADD44O,5.0000X2.5000*%
%ADD45O,2.5000X5.0000*%
%ADD46O,2.0000X2.5000*%
%ADD47C,2.0000*%
%ADD48R,2.0000X2.0000*%
%ADD49O,2.5000X2.0000*%
D16*
X58379Y826500D02*
D03*
Y881500D02*
D03*
D17*
Y838800D02*
D03*
Y869200D02*
D03*
D18*
Y859000D02*
D03*
Y849000D02*
D03*
D19*
X91000Y863500D02*
D03*
Y882500D02*
D03*
Y844500D02*
D03*
Y825500D02*
D03*
X386000Y985500D02*
D03*
Y966500D02*
D03*
X437000Y985500D02*
D03*
Y966500D02*
D03*
D20*
X225500Y807000D02*
D03*
X244500D02*
D03*
D40*
X386200Y934000D02*
D03*
X411600D02*
D03*
D41*
X437000D02*
D03*
D42*
X20329Y810800D02*
D03*
Y897200D02*
D03*
X58329Y810800D02*
D03*
Y897200D02*
D03*
D43*
X392000Y694800D02*
D03*
Y669400D02*
D03*
Y644000D02*
D03*
X381000Y475932D02*
D03*
Y501332D02*
D03*
Y526732D02*
D03*
X460000Y694800D02*
D03*
Y669400D02*
D03*
Y644000D02*
D03*
X324000Y694800D02*
D03*
Y669400D02*
D03*
Y644000D02*
D03*
X381000Y83412D02*
D03*
Y108812D02*
D03*
Y134212D02*
D03*
Y214252D02*
D03*
Y239652D02*
D03*
Y265052D02*
D03*
Y345092D02*
D03*
Y370492D02*
D03*
Y395892D02*
D03*
D44*
X276000Y877449D02*
D03*
Y937000D02*
D03*
D45*
X229100Y907039D02*
D03*
D46*
X160600Y968000D02*
D03*
X186000D02*
D03*
X109444Y35000D02*
D03*
X84044D02*
D03*
X186000D02*
D03*
X160600D02*
D03*
X84044Y968000D02*
D03*
X109444D02*
D03*
D47*
X27000Y93642D02*
D03*
Y228641D02*
D03*
X212000D02*
D03*
Y93642D02*
D03*
Y273428D02*
D03*
Y408428D02*
D03*
X27000D02*
D03*
Y273428D02*
D03*
X212000Y453214D02*
D03*
Y588214D02*
D03*
X27000D02*
D03*
Y453214D02*
D03*
X274000Y807000D02*
D03*
X212000Y632999D02*
D03*
Y768000D02*
D03*
X27000D02*
D03*
Y632999D02*
D03*
D48*
X304000Y807000D02*
D03*
D49*
X461500Y252920D02*
D03*
Y227520D02*
D03*
Y383760D02*
D03*
Y358360D02*
D03*
Y489200D02*
D03*
Y514600D02*
D03*
Y96680D02*
D03*
Y122080D02*
D03*
M02*
