G04*
G04 #@! TF.GenerationSoftware,Altium Limited,Altium Designer,24.2.2 (26)*
G04*
G04 Layer_Physical_Order=1*
G04 Layer_Color=255*
%FSLAX44Y44*%
%MOMM*%
G71*
G04*
G04 #@! TF.SameCoordinates,C1532DF8-A77D-479D-A07C-5EAB100E6B30*
G04*
G04*
G04 #@! TF.FilePolarity,Positive*
G04*
G01*
G75*
%ADD16R,1.1500X0.9000*%
%ADD17R,1.1500X0.8000*%
%ADD18R,1.1500X0.7000*%
%ADD19R,1.5000X1.3000*%
%ADD20R,1.3000X1.5000*%
%ADD38C,1.0000*%
%ADD39C,0.6000*%
%ADD40C,1.8600*%
%ADD41R,1.8600X1.8600*%
%ADD42O,2.0000X1.0000*%
%ADD43O,3.0000X2.0000*%
%ADD44O,5.0000X2.5000*%
%ADD45O,2.5000X5.0000*%
%ADD46O,2.0000X2.5000*%
%ADD47C,2.0000*%
%ADD48R,2.0000X2.0000*%
%ADD49O,2.5000X2.0000*%
%ADD50C,1.2700*%
%ADD51C,3.0000*%
G36*
X499795Y1000794D02*
X500000Y1000709D01*
Y717923D01*
X498730Y717840D01*
X498691Y718132D01*
X497482Y721051D01*
X495559Y723558D01*
X480559Y738559D01*
X478052Y740482D01*
X475133Y741691D01*
X472000Y742104D01*
X471352D01*
X470759Y743374D01*
X471622Y746592D01*
Y750108D01*
X470712Y753503D01*
X468954Y756547D01*
X466469Y759033D01*
X463425Y760790D01*
X460029Y761700D01*
X456514D01*
X453119Y760790D01*
X453098Y760779D01*
X402006D01*
X401402Y761824D01*
X401454Y762049D01*
X402350Y765394D01*
Y768909D01*
X401440Y772304D01*
X401104Y772888D01*
Y810000D01*
X400691Y813133D01*
X399482Y816052D01*
X397559Y818559D01*
X330109Y886008D01*
X327602Y887932D01*
X324683Y889141D01*
X321550Y889553D01*
X303793D01*
X302355Y891305D01*
X299386Y893742D01*
X295998Y895552D01*
X292323Y896667D01*
X288500Y897044D01*
X263500D01*
X259677Y896667D01*
X256002Y895552D01*
X252614Y893742D01*
X249645Y891305D01*
X247208Y888336D01*
X245397Y884948D01*
X244282Y881272D01*
X243906Y877449D01*
X244282Y873627D01*
X245397Y869951D01*
X247208Y866563D01*
X249645Y863594D01*
X252614Y861157D01*
X256002Y859347D01*
X259677Y858232D01*
X263500Y857855D01*
X288500D01*
X292323Y858232D01*
X295998Y859347D01*
X299386Y861157D01*
X302355Y863594D01*
X303793Y865346D01*
X316537D01*
X376897Y804987D01*
Y772888D01*
X376560Y772304D01*
X375650Y768909D01*
Y765394D01*
X376546Y762049D01*
X376598Y761824D01*
X375994Y760779D01*
X256299D01*
X255153Y761440D01*
X251758Y762350D01*
X248242D01*
X244847Y761440D01*
X241803Y759683D01*
X239317Y757197D01*
X237560Y754153D01*
X236650Y750758D01*
Y747242D01*
X237560Y743847D01*
X239317Y740803D01*
X241803Y738317D01*
X244847Y736560D01*
X248242Y735650D01*
X251758D01*
X255153Y736560D01*
X255173Y736572D01*
X341795D01*
X342281Y735398D01*
X322355Y715472D01*
X320432Y712965D01*
X319983Y711882D01*
X319000D01*
X315668Y711554D01*
X312463Y710582D01*
X309510Y709003D01*
X306921Y706879D01*
X304797Y704290D01*
X303218Y701337D01*
X302246Y698133D01*
X301918Y694800D01*
X302246Y691467D01*
X303218Y688263D01*
X304797Y685310D01*
X306725Y682961D01*
X306859Y682100D01*
X306725Y681239D01*
X304797Y678890D01*
X303218Y675937D01*
X302246Y672733D01*
X301918Y669400D01*
X302246Y666067D01*
X303218Y662863D01*
X304797Y659910D01*
X306725Y657561D01*
X306859Y656700D01*
X306725Y655839D01*
X304797Y653490D01*
X303218Y650537D01*
X302246Y647333D01*
X301918Y644000D01*
X302246Y640667D01*
X303218Y637463D01*
X304797Y634510D01*
X306921Y631921D01*
X309510Y629797D01*
X312463Y628218D01*
X315668Y627246D01*
X319000Y626918D01*
X329000D01*
X332333Y627246D01*
X335537Y628218D01*
X338491Y629797D01*
X341079Y631921D01*
X343204Y634510D01*
X344782Y637463D01*
X345754Y640667D01*
X346083Y644000D01*
X345754Y647333D01*
X344782Y650537D01*
X343204Y653490D01*
X341276Y655839D01*
X341142Y656700D01*
X341276Y657561D01*
X343204Y659910D01*
X344782Y662863D01*
X345754Y666067D01*
X346083Y669400D01*
X345754Y672733D01*
X344782Y675937D01*
X343204Y678890D01*
X341276Y681239D01*
X341142Y682100D01*
X341276Y682961D01*
X343204Y685310D01*
X344782Y688263D01*
X345754Y691467D01*
X346083Y694800D01*
X345754Y698133D01*
X344782Y701337D01*
X343971Y702854D01*
X359013Y717896D01*
X466987D01*
X474381Y710502D01*
X473616Y709471D01*
X471537Y710582D01*
X468333Y711554D01*
X465000Y711882D01*
X455000D01*
X451668Y711554D01*
X448463Y710582D01*
X445510Y709003D01*
X442921Y706879D01*
X440797Y704290D01*
X439218Y701337D01*
X438246Y698133D01*
X437918Y694800D01*
X438246Y691467D01*
X439218Y688263D01*
X440797Y685310D01*
X442725Y682961D01*
X442859Y682100D01*
X442725Y681239D01*
X440797Y678890D01*
X439218Y675937D01*
X438246Y672733D01*
X437918Y669400D01*
X438246Y666067D01*
X439218Y662863D01*
X440797Y659910D01*
X442725Y657561D01*
X442859Y656700D01*
X442725Y655839D01*
X440797Y653490D01*
X439218Y650537D01*
X438246Y647333D01*
X437918Y644000D01*
X438246Y640667D01*
X439218Y637463D01*
X440797Y634510D01*
X442921Y631921D01*
X445510Y629797D01*
X448463Y628218D01*
X451668Y627246D01*
X455000Y626918D01*
X465000D01*
X468333Y627246D01*
X471537Y628218D01*
X474491Y629797D01*
X477079Y631921D01*
X479204Y634510D01*
X480782Y637463D01*
X481754Y640667D01*
X482083Y644000D01*
X481754Y647333D01*
X480782Y650537D01*
X479204Y653490D01*
X477276Y655839D01*
X477142Y656700D01*
X477276Y657561D01*
X478629Y659210D01*
X481143D01*
X484275Y659622D01*
X487194Y660831D01*
X489701Y662755D01*
X495559Y668613D01*
X497482Y671120D01*
X498691Y674039D01*
X498730Y674331D01*
X500000Y674248D01*
Y0D01*
X1000D01*
X0Y1000D01*
Y1000794D01*
X499795D01*
D02*
G37*
%LPC*%
G36*
X449500Y997000D02*
X442000D01*
Y990500D01*
X449500D01*
Y997000D01*
D02*
G37*
G36*
X398500D02*
X391000D01*
Y990500D01*
X398500D01*
Y997000D01*
D02*
G37*
G36*
X381000D02*
X373500D01*
Y990500D01*
X381000D01*
Y997000D01*
D02*
G37*
G36*
X432000D02*
X424500D01*
Y990500D01*
X432000D01*
Y997000D01*
D02*
G37*
G36*
X109444Y987582D02*
X106111Y987254D01*
X102906Y986282D01*
X99953Y984703D01*
X97365Y982579D01*
X96123D01*
X93534Y984703D01*
X90581Y986282D01*
X87376Y987254D01*
X84044Y987582D01*
X80711Y987254D01*
X77506Y986282D01*
X74553Y984703D01*
X71965Y982579D01*
X69840Y979990D01*
X68262Y977037D01*
X67290Y973833D01*
X66961Y970500D01*
Y965500D01*
X67290Y962167D01*
X68262Y958963D01*
X69840Y956010D01*
X71965Y953421D01*
X74553Y951297D01*
X77506Y949718D01*
X80711Y948746D01*
X84044Y948418D01*
X87376Y948746D01*
X90581Y949718D01*
X93534Y951297D01*
X96123Y953421D01*
X97365D01*
X99953Y951297D01*
X102906Y949718D01*
X106111Y948746D01*
X109444Y948418D01*
X112776Y948746D01*
X115981Y949718D01*
X118934Y951297D01*
X121523Y953421D01*
X123647Y956010D01*
X125225Y958963D01*
X126198Y962167D01*
X126526Y965500D01*
Y970500D01*
X126198Y973833D01*
X125225Y977037D01*
X123647Y979990D01*
X121523Y982579D01*
X118934Y984703D01*
X115981Y986282D01*
X112776Y987254D01*
X109444Y987582D01*
D02*
G37*
G36*
X480000Y994397D02*
Y980000D01*
X494397D01*
X494231Y980834D01*
X492724Y984473D01*
X490535Y987749D01*
X487749Y990535D01*
X484473Y992723D01*
X480834Y994231D01*
X480000Y994397D01*
D02*
G37*
G36*
X470000D02*
X469166Y994231D01*
X465526Y992723D01*
X462251Y990535D01*
X459465Y987749D01*
X457276Y984473D01*
X455768Y980834D01*
X455603Y980000D01*
X470000D01*
Y994397D01*
D02*
G37*
G36*
X30000D02*
Y980000D01*
X44397D01*
X44232Y980834D01*
X42724Y984473D01*
X40535Y987749D01*
X37750Y990535D01*
X34474Y992723D01*
X30834Y994231D01*
X30000Y994397D01*
D02*
G37*
G36*
X20000D02*
X19166Y994231D01*
X15527Y992723D01*
X12251Y990535D01*
X9465Y987749D01*
X7276Y984473D01*
X5769Y980834D01*
X5603Y980000D01*
X20000D01*
Y994397D01*
D02*
G37*
G36*
X191000Y984658D02*
Y973000D01*
X200826D01*
X200783Y973440D01*
X199925Y976268D01*
X198532Y978874D01*
X196658Y981158D01*
X194374Y983032D01*
X191768Y984425D01*
X191000Y984658D01*
D02*
G37*
G36*
X155600Y984658D02*
X154832Y984425D01*
X152226Y983032D01*
X149942Y981158D01*
X148068Y978874D01*
X146675Y976268D01*
X145817Y973440D01*
X145774Y973000D01*
X155600D01*
Y984658D01*
D02*
G37*
G36*
X494397Y970000D02*
X480000D01*
Y955602D01*
X480834Y955768D01*
X484473Y957276D01*
X487749Y959465D01*
X490535Y962251D01*
X492724Y965526D01*
X494231Y969166D01*
X494397Y970000D01*
D02*
G37*
G36*
X470000D02*
X455603D01*
X455768Y969166D01*
X457276Y965526D01*
X459465Y962251D01*
X462251Y959465D01*
X465526Y957276D01*
X469166Y955768D01*
X470000Y955602D01*
Y970000D01*
D02*
G37*
G36*
X44397D02*
X30000D01*
Y955602D01*
X30834Y955768D01*
X34474Y957276D01*
X37750Y959465D01*
X40535Y962251D01*
X42724Y965526D01*
X44232Y969166D01*
X44397Y970000D01*
D02*
G37*
G36*
X20000D02*
X5603D01*
X5769Y969166D01*
X7276Y965526D01*
X9465Y962251D01*
X12251Y959465D01*
X15527Y957276D01*
X19166Y955768D01*
X20000Y955602D01*
Y970000D01*
D02*
G37*
G36*
X165600Y984658D02*
Y968000D01*
Y951342D01*
X166368Y951575D01*
X168974Y952968D01*
X171258Y954842D01*
X172482Y956333D01*
X174118D01*
X175342Y954842D01*
X177626Y952968D01*
X180232Y951575D01*
X181000Y951342D01*
Y968000D01*
Y984658D01*
X180232Y984425D01*
X177626Y983032D01*
X175342Y981158D01*
X174118Y979667D01*
X172482D01*
X171258Y981158D01*
X168974Y983032D01*
X166368Y984425D01*
X165600Y984658D01*
D02*
G37*
G36*
X155600Y963000D02*
X145774D01*
X145817Y962560D01*
X146675Y959732D01*
X148068Y957126D01*
X149942Y954842D01*
X152226Y952968D01*
X154832Y951575D01*
X155600Y951342D01*
Y963000D01*
D02*
G37*
G36*
X200826D02*
X191000D01*
Y951342D01*
X191768Y951575D01*
X194374Y952968D01*
X196658Y954842D01*
X198532Y957126D01*
X199925Y959732D01*
X200783Y962560D01*
X200826Y963000D01*
D02*
G37*
G36*
X449500Y980500D02*
X437000D01*
X424500D01*
Y980000D01*
X422500D01*
Y953000D01*
X424896D01*
Y950300D01*
X420700D01*
Y946725D01*
X419430Y945992D01*
X417119Y947326D01*
X416600Y947465D01*
Y934000D01*
Y920535D01*
X417119Y920675D01*
X419430Y922009D01*
X420700Y921275D01*
Y917700D01*
X453300D01*
Y950300D01*
X449103D01*
Y953000D01*
X451500D01*
Y980000D01*
X449500D01*
Y980500D01*
D02*
G37*
G36*
X288500Y954584D02*
X281000D01*
Y942000D01*
X305271D01*
X304746Y943729D01*
X303121Y946769D01*
X300934Y949434D01*
X298270Y951621D01*
X295229Y953246D01*
X291931Y954246D01*
X288500Y954584D01*
D02*
G37*
G36*
X271000D02*
X263500D01*
X260069Y954246D01*
X256771Y953246D01*
X253731Y951621D01*
X251066Y949434D01*
X248879Y946769D01*
X247254Y943729D01*
X246729Y942000D01*
X271000D01*
Y954584D01*
D02*
G37*
G36*
X398500Y980500D02*
X386000D01*
X373500D01*
Y980000D01*
X371500D01*
Y953000D01*
X373996D01*
Y944848D01*
X373539Y944391D01*
X371755Y941721D01*
X370526Y938755D01*
X369900Y935605D01*
Y932395D01*
X370526Y929246D01*
X371755Y926279D01*
X373539Y923609D01*
X375809Y921339D01*
X378479Y919555D01*
X381445Y918326D01*
X384594Y917700D01*
X387805D01*
X390954Y918326D01*
X393921Y919555D01*
X396590Y921339D01*
X398861Y923609D01*
X399305Y924275D01*
X400940Y924436D01*
X402819Y922557D01*
X406080Y920675D01*
X406600Y920535D01*
Y934000D01*
Y947465D01*
X406080Y947326D01*
X402819Y945443D01*
X400940Y943564D01*
X399305Y943725D01*
X398861Y944391D01*
X398203Y945048D01*
Y953000D01*
X400500D01*
Y980000D01*
X398500D01*
Y980500D01*
D02*
G37*
G36*
X305271Y932000D02*
X281000D01*
Y919415D01*
X288500D01*
X291931Y919753D01*
X295229Y920753D01*
X298270Y922378D01*
X300934Y924565D01*
X303121Y927230D01*
X304746Y930270D01*
X305271Y932000D01*
D02*
G37*
G36*
X271000D02*
X246729D01*
X247254Y930270D01*
X248879Y927230D01*
X251066Y924565D01*
X253731Y922378D01*
X256771Y920753D01*
X260069Y919753D01*
X263500Y919415D01*
X271000D01*
Y932000D01*
D02*
G37*
G36*
X234100Y936310D02*
Y912039D01*
X246685D01*
Y919539D01*
X246347Y922970D01*
X245346Y926269D01*
X243721Y929309D01*
X241534Y931974D01*
X238869Y934161D01*
X235829Y935786D01*
X234100Y936310D01*
D02*
G37*
G36*
X224100Y936310D02*
X222371Y935786D01*
X219331Y934161D01*
X216666Y931974D01*
X214479Y929309D01*
X212854Y926269D01*
X211853Y922970D01*
X211515Y919539D01*
Y912039D01*
X224100D01*
Y936310D01*
D02*
G37*
G36*
X63329Y907286D02*
X63329D01*
Y902200D01*
X72082D01*
X72064Y902243D01*
X70461Y904332D01*
X68373Y905935D01*
X65940Y906943D01*
X63329Y907286D01*
D02*
G37*
G36*
X53329D02*
X53329D01*
X50719Y906943D01*
X48286Y905935D01*
X46197Y904332D01*
X44594Y902243D01*
X44577Y902200D01*
X53329D01*
Y907286D01*
D02*
G37*
G36*
X25329D02*
X25329D01*
Y902200D01*
X34082D01*
X34064Y902243D01*
X32461Y904332D01*
X30373Y905935D01*
X27940Y906943D01*
X25329Y907286D01*
D02*
G37*
G36*
X15329D02*
X15329D01*
X12719Y906943D01*
X10286Y905935D01*
X8197Y904332D01*
X6594Y902243D01*
X6576Y902200D01*
X15329D01*
Y907286D01*
D02*
G37*
G36*
X103500Y894000D02*
X96000D01*
Y887500D01*
X103500D01*
Y894000D01*
D02*
G37*
G36*
X86000D02*
X78500D01*
Y887500D01*
X86000D01*
Y894000D01*
D02*
G37*
G36*
X34082Y892200D02*
X25329D01*
Y887114D01*
X25329D01*
X27940Y887457D01*
X30373Y888465D01*
X32461Y890068D01*
X34064Y892157D01*
X34082Y892200D01*
D02*
G37*
G36*
X15329D02*
X6576D01*
X6594Y892157D01*
X8197Y890068D01*
X10286Y888465D01*
X12719Y887457D01*
X15329Y887114D01*
X15329D01*
Y892200D01*
D02*
G37*
G36*
X72082D02*
X44577D01*
X44594Y892157D01*
X46197Y890068D01*
X47629Y888969D01*
Y886500D01*
X69129D01*
Y889046D01*
X70461Y890068D01*
X72064Y892157D01*
X72082Y892200D01*
D02*
G37*
G36*
X224100Y902039D02*
X211515D01*
Y894539D01*
X211853Y891109D01*
X212854Y887810D01*
X214479Y884770D01*
X216666Y882105D01*
X219331Y879918D01*
X222371Y878293D01*
X224100Y877769D01*
Y902039D01*
D02*
G37*
G36*
X246685D02*
X234100D01*
Y877769D01*
X235829Y878293D01*
X238869Y879918D01*
X241534Y882105D01*
X243721Y884770D01*
X245346Y887810D01*
X246347Y891109D01*
X246685Y894539D01*
Y902039D01*
D02*
G37*
G36*
X103500Y877500D02*
X91000D01*
X78500D01*
Y871000D01*
X80500D01*
Y865117D01*
X67129D01*
Y872000D01*
X69129D01*
Y876500D01*
X47629D01*
Y875318D01*
X44515D01*
X42174Y874852D01*
X40189Y873526D01*
X36674Y870011D01*
X35348Y868026D01*
X34883Y865685D01*
Y843000D01*
Y816863D01*
X33612Y816432D01*
X32461Y817932D01*
X30373Y819535D01*
X27940Y820543D01*
X25329Y820886D01*
X25329D01*
Y810800D01*
Y800714D01*
X25329D01*
X27940Y801057D01*
X30373Y802065D01*
X32461Y803668D01*
X33612Y805168D01*
X34883Y804737D01*
Y799000D01*
X35348Y796659D01*
X36674Y794674D01*
X42674Y788674D01*
X44659Y787348D01*
X47000Y786882D01*
X87895D01*
X88259Y786518D01*
X90391Y785287D01*
X92769Y784650D01*
X95231D01*
X97609Y785287D01*
X99741Y786518D01*
X101482Y788259D01*
X102713Y790391D01*
X103350Y792769D01*
Y795231D01*
X102713Y797609D01*
X101482Y799741D01*
X99741Y801482D01*
X97609Y802713D01*
X95231Y803350D01*
X92769D01*
X90391Y802713D01*
X88259Y801482D01*
X86518Y799741D01*
X86158Y799118D01*
X49534D01*
X47842Y800810D01*
X47871Y800880D01*
X49508Y801559D01*
X50719Y801057D01*
X53329Y800714D01*
X53329D01*
Y810800D01*
X58329D01*
Y815800D01*
X72082D01*
X72064Y815843D01*
X70461Y817932D01*
X69129Y818954D01*
Y821500D01*
X58379D01*
Y831500D01*
X69129D01*
Y836000D01*
X67129D01*
Y842883D01*
X80500D01*
Y837000D01*
X78500D01*
Y830500D01*
X91000D01*
X103500D01*
Y837000D01*
X101500D01*
Y854000D01*
X101500D01*
X101500Y855270D01*
Y871000D01*
X103500D01*
Y877500D01*
D02*
G37*
G36*
X321000Y824000D02*
X287000D01*
Y819701D01*
X285827Y819215D01*
X284837Y820205D01*
X282053Y822065D01*
X278959Y823347D01*
X275674Y824000D01*
X272326D01*
X269042Y823347D01*
X265948Y822065D01*
X263163Y820205D01*
X262062Y819104D01*
X258000D01*
Y821500D01*
X231000D01*
Y819500D01*
X230500D01*
Y807000D01*
Y794500D01*
X231000D01*
Y792500D01*
X258000D01*
Y794897D01*
X262062D01*
X263163Y793795D01*
X265948Y791935D01*
X269042Y790654D01*
X272326Y790000D01*
X275674D01*
X278959Y790654D01*
X282053Y791935D01*
X284837Y793795D01*
X285827Y794785D01*
X287000Y794299D01*
Y790000D01*
X321000D01*
Y824000D01*
D02*
G37*
G36*
X15329Y820886D02*
X15329D01*
X12719Y820543D01*
X10286Y819535D01*
X8197Y817932D01*
X6594Y815843D01*
X6576Y815800D01*
X15329D01*
Y820886D01*
D02*
G37*
G36*
X103500Y820500D02*
X96000D01*
Y814000D01*
X103500D01*
Y820500D01*
D02*
G37*
G36*
X86000D02*
X78500D01*
Y814000D01*
X86000D01*
Y820500D01*
D02*
G37*
G36*
X220500Y819500D02*
X214000D01*
Y812000D01*
X220500D01*
Y819500D01*
D02*
G37*
G36*
X72082Y805800D02*
X63329D01*
Y800714D01*
X63329D01*
X65940Y801057D01*
X68373Y802065D01*
X70461Y803668D01*
X72064Y805757D01*
X72082Y805800D01*
D02*
G37*
G36*
X15329D02*
X6576D01*
X6594Y805757D01*
X8197Y803668D01*
X10286Y802065D01*
X12719Y801057D01*
X15329Y800714D01*
X15329D01*
Y805800D01*
D02*
G37*
G36*
X220500Y802000D02*
X214000D01*
Y794500D01*
X220500D01*
Y802000D01*
D02*
G37*
G36*
X28674Y785000D02*
X25326D01*
X22041Y784346D01*
X18948Y783065D01*
X16163Y781205D01*
X13795Y778837D01*
X11935Y776052D01*
X10654Y772959D01*
X10000Y769674D01*
Y766326D01*
X10654Y763041D01*
X11935Y759947D01*
X13795Y757163D01*
X16163Y754795D01*
X18948Y752935D01*
X22041Y751653D01*
X25326Y751000D01*
X28674D01*
X31959Y751653D01*
X35053Y752935D01*
X37837Y754795D01*
X40205Y757163D01*
X42065Y759947D01*
X43347Y763041D01*
X44000Y766326D01*
Y769674D01*
X43347Y772959D01*
X42065Y776052D01*
X40205Y778837D01*
X37837Y781205D01*
X35053Y783065D01*
X31959Y784346D01*
X28674Y785000D01*
D02*
G37*
G36*
X32000Y647164D02*
Y637999D01*
X41165D01*
X40293Y640105D01*
X38651Y642561D01*
X36562Y644651D01*
X34105Y646292D01*
X32000Y647164D01*
D02*
G37*
G36*
X22000D02*
X19895Y646292D01*
X17438Y644651D01*
X15349Y642561D01*
X13707Y640105D01*
X12835Y637999D01*
X22000D01*
Y647164D01*
D02*
G37*
G36*
X397000Y711882D02*
X387000D01*
X383668Y711554D01*
X380463Y710582D01*
X377510Y709003D01*
X374921Y706879D01*
X372797Y704290D01*
X371218Y701337D01*
X370246Y698133D01*
X369918Y694800D01*
X370246Y691467D01*
X371218Y688263D01*
X372797Y685310D01*
X374725Y682961D01*
X374859Y682100D01*
X374725Y681239D01*
X372797Y678890D01*
X371218Y675937D01*
X370246Y672733D01*
X369918Y669400D01*
X370246Y666067D01*
X371218Y662863D01*
X372797Y659910D01*
X374921Y657321D01*
X377510Y655197D01*
X378084Y654890D01*
X378188Y653624D01*
X377729Y653272D01*
X375645Y650556D01*
X374335Y647394D01*
X373888Y644000D01*
X374335Y640606D01*
X375645Y637444D01*
X377729Y634728D01*
X380444Y632645D01*
X383607Y631335D01*
X387000Y630888D01*
X397000D01*
X400394Y631335D01*
X403556Y632645D01*
X406272Y634728D01*
X408356Y637444D01*
X409666Y640606D01*
X410112Y644000D01*
X409666Y647394D01*
X408356Y650556D01*
X406272Y653272D01*
X405813Y653624D01*
X405917Y654890D01*
X406491Y655197D01*
X409079Y657321D01*
X411204Y659910D01*
X412782Y662863D01*
X413754Y666067D01*
X414083Y669400D01*
X413754Y672733D01*
X412782Y675937D01*
X411204Y678890D01*
X409276Y681239D01*
X409142Y682100D01*
X409276Y682961D01*
X411204Y685310D01*
X412782Y688263D01*
X413754Y691467D01*
X414083Y694800D01*
X413754Y698133D01*
X412782Y701337D01*
X411204Y704290D01*
X409079Y706879D01*
X406491Y709003D01*
X403537Y710582D01*
X400333Y711554D01*
X397000Y711882D01*
D02*
G37*
G36*
X41165Y627999D02*
X32000D01*
Y618835D01*
X34105Y619706D01*
X36562Y621348D01*
X38651Y623437D01*
X40293Y625894D01*
X41165Y627999D01*
D02*
G37*
G36*
X22000D02*
X12835D01*
X13707Y625894D01*
X15349Y623437D01*
X17438Y621348D01*
X19895Y619706D01*
X22000Y618835D01*
Y627999D01*
D02*
G37*
G36*
X213674Y649999D02*
X210326D01*
X207041Y649346D01*
X203948Y648065D01*
X201163Y646204D01*
X198795Y643836D01*
X196935Y641052D01*
X195653Y637958D01*
X195000Y634674D01*
Y631325D01*
X195653Y628041D01*
X196935Y624947D01*
X198795Y622163D01*
X201163Y619795D01*
X203948Y617934D01*
X207041Y616653D01*
X210326Y615999D01*
X213674D01*
X216959Y616653D01*
X220053Y617934D01*
X222837Y619795D01*
X225205Y622163D01*
X227065Y624947D01*
X228347Y628041D01*
X229000Y631325D01*
Y634674D01*
X228347Y637958D01*
X227065Y641052D01*
X225205Y643836D01*
X222837Y646204D01*
X220053Y648065D01*
X216959Y649346D01*
X213674Y649999D01*
D02*
G37*
G36*
X28674Y605214D02*
X25326D01*
X22041Y604560D01*
X18948Y603279D01*
X16163Y601418D01*
X13795Y599051D01*
X11935Y596266D01*
X10654Y593172D01*
X10000Y589888D01*
Y586539D01*
X10654Y583255D01*
X11935Y580161D01*
X13795Y577377D01*
X16163Y575009D01*
X18948Y573148D01*
X22041Y571867D01*
X25326Y571214D01*
X28674D01*
X31959Y571867D01*
X35053Y573148D01*
X37837Y575009D01*
X40205Y577377D01*
X42065Y580161D01*
X43347Y583255D01*
X44000Y586539D01*
Y589888D01*
X43347Y593172D01*
X42065Y596266D01*
X40205Y599051D01*
X37837Y601418D01*
X35053Y603279D01*
X31959Y604560D01*
X28674Y605214D01*
D02*
G37*
G36*
X213674Y785000D02*
X210326D01*
X207041Y784346D01*
X203948Y783065D01*
X201163Y781205D01*
X198795Y778837D01*
X196935Y776052D01*
X195653Y772959D01*
X195000Y769674D01*
Y766326D01*
X195653Y763041D01*
X196935Y759947D01*
X198795Y757163D01*
X199897Y756062D01*
Y743014D01*
X146441Y689558D01*
X144518Y687052D01*
X143309Y684133D01*
X142896Y681000D01*
Y564552D01*
X142273Y563047D01*
X141861Y559915D01*
Y544713D01*
X142273Y541581D01*
X143240Y539246D01*
X143309Y538725D01*
X144518Y535806D01*
X146441Y533299D01*
X152299Y527441D01*
X154806Y525518D01*
X157418Y524436D01*
X158662Y523482D01*
X161581Y522273D01*
X164714Y521860D01*
X179915D01*
X183048Y522273D01*
X185967Y523482D01*
X186507Y523896D01*
X240264D01*
X240847Y523560D01*
X244242Y522650D01*
X247757D01*
X251110Y523548D01*
X251326Y523606D01*
X252380Y522998D01*
Y395000D01*
Y266000D01*
Y131000D01*
Y104497D01*
X224986Y77104D01*
X219816D01*
X219563Y78374D01*
X220053Y78576D01*
X222837Y80437D01*
X225205Y82805D01*
X227065Y85589D01*
X228347Y88683D01*
X229000Y91967D01*
Y95316D01*
X228347Y98600D01*
X227065Y101694D01*
X225205Y104478D01*
X222837Y106846D01*
X220053Y108707D01*
X216959Y109988D01*
X213674Y110642D01*
X210326D01*
X207041Y109988D01*
X203948Y108707D01*
X201163Y106846D01*
X198795Y104478D01*
X196935Y101694D01*
X195653Y98600D01*
X195000Y95316D01*
Y91967D01*
X195653Y88683D01*
X196935Y85589D01*
X198795Y82805D01*
X201163Y80437D01*
X203948Y78576D01*
X204437Y78374D01*
X204184Y77104D01*
X118858D01*
X115725Y76691D01*
X112806Y75482D01*
X110299Y73559D01*
X102798Y66058D01*
X100875Y63551D01*
X99666Y60632D01*
X99253Y57499D01*
Y51129D01*
X97604Y49775D01*
X96743Y49641D01*
X95883Y49775D01*
X93534Y51703D01*
X90581Y53282D01*
X87376Y54254D01*
X84044Y54582D01*
X80711Y54254D01*
X77506Y53282D01*
X74553Y51703D01*
X71965Y49579D01*
X69840Y46990D01*
X68262Y44037D01*
X67290Y40832D01*
X66961Y37500D01*
Y32500D01*
X67290Y29167D01*
X68262Y25963D01*
X69840Y23009D01*
X71965Y20421D01*
X74553Y18296D01*
X77506Y16718D01*
X80711Y15746D01*
X84044Y15417D01*
X87376Y15746D01*
X90581Y16718D01*
X93534Y18296D01*
X95883Y20224D01*
X96743Y20358D01*
X97604Y20224D01*
X99953Y18296D01*
X102906Y16718D01*
X106111Y15746D01*
X109444Y15417D01*
X112776Y15746D01*
X115981Y16718D01*
X118934Y18296D01*
X121523Y20421D01*
X123647Y23009D01*
X125225Y25963D01*
X126198Y29167D01*
X126526Y32500D01*
Y37500D01*
X126198Y40832D01*
X125225Y44037D01*
X123647Y46990D01*
X123461Y47217D01*
Y52486D01*
X123871Y52896D01*
X155308D01*
X155497Y51626D01*
X154832Y51425D01*
X152226Y50032D01*
X149942Y48158D01*
X148068Y45873D01*
X146675Y43268D01*
X145817Y40440D01*
X145774Y40000D01*
X160600D01*
Y35000D01*
X165600D01*
Y18341D01*
X166368Y18574D01*
X168974Y19967D01*
X171258Y21842D01*
X172482Y23333D01*
X174118D01*
X175342Y21842D01*
X177626Y19967D01*
X180232Y18574D01*
X181000Y18341D01*
Y35000D01*
X186000D01*
Y40000D01*
X200826D01*
X200783Y40440D01*
X199925Y43268D01*
X198532Y45873D01*
X196658Y48158D01*
X194374Y50032D01*
X191768Y51425D01*
X191104Y51626D01*
X191292Y52896D01*
X230000D01*
X233133Y53309D01*
X236052Y54518D01*
X238559Y56441D01*
X273042Y90925D01*
X274965Y93431D01*
X276174Y96350D01*
X276587Y99483D01*
Y122109D01*
X363402D01*
X363848Y121062D01*
X363878Y120839D01*
X361797Y118303D01*
X360218Y115349D01*
X359246Y112145D01*
X358918Y108812D01*
X359246Y105480D01*
X360218Y102275D01*
X361797Y99322D01*
X363921Y96733D01*
X365480Y95454D01*
Y94390D01*
X365271Y93983D01*
X363468Y91786D01*
X362075Y89180D01*
X361842Y88412D01*
X381000D01*
X400158D01*
X399925Y89180D01*
X398532Y91786D01*
X396730Y93983D01*
X396520Y94390D01*
Y95454D01*
X398079Y96733D01*
X400203Y99322D01*
X401782Y102275D01*
X402754Y105480D01*
X403082Y108812D01*
X402754Y112145D01*
X401782Y115349D01*
X400203Y118303D01*
X398276Y120652D01*
X398141Y121512D01*
X398276Y122373D01*
X400203Y124722D01*
X401782Y127675D01*
X402754Y130880D01*
X403082Y134212D01*
X402754Y137545D01*
X401782Y140749D01*
X400203Y143703D01*
X398079Y146291D01*
X395490Y148416D01*
X392537Y149994D01*
X389333Y150966D01*
X386000Y151294D01*
X376000D01*
X372667Y150966D01*
X369463Y149994D01*
X366510Y148416D01*
X363951Y146316D01*
X276587D01*
Y252949D01*
X363402D01*
X363848Y251902D01*
X363878Y251679D01*
X361797Y249143D01*
X360218Y246189D01*
X359246Y242985D01*
X358918Y239652D01*
X359246Y236320D01*
X360218Y233115D01*
X361797Y230162D01*
X363921Y227573D01*
X365480Y226294D01*
Y225230D01*
X365271Y224823D01*
X363468Y222626D01*
X362075Y220020D01*
X361842Y219252D01*
X381000D01*
X400158D01*
X399925Y220020D01*
X398532Y222626D01*
X396730Y224823D01*
X396520Y225230D01*
Y226294D01*
X398079Y227573D01*
X400203Y230162D01*
X401782Y233115D01*
X402754Y236320D01*
X403082Y239652D01*
X402754Y242985D01*
X401782Y246189D01*
X400203Y249143D01*
X398276Y251492D01*
X398141Y252352D01*
X398276Y253213D01*
X400203Y255562D01*
X401782Y258515D01*
X402754Y261720D01*
X403082Y265052D01*
X402754Y268385D01*
X401782Y271589D01*
X400203Y274543D01*
X398079Y277131D01*
X395490Y279256D01*
X392537Y280834D01*
X389333Y281806D01*
X386000Y282134D01*
X376000D01*
X372667Y281806D01*
X369463Y280834D01*
X366510Y279256D01*
X363951Y277156D01*
X276587D01*
Y383789D01*
X363402D01*
X363848Y382742D01*
X363878Y382519D01*
X361797Y379983D01*
X360218Y377029D01*
X359246Y373825D01*
X358918Y370492D01*
X359246Y367160D01*
X360218Y363955D01*
X361797Y361002D01*
X363921Y358413D01*
X365480Y357133D01*
Y356070D01*
X365271Y355663D01*
X363468Y353466D01*
X362075Y350860D01*
X361842Y350092D01*
X381000D01*
X400158D01*
X399925Y350860D01*
X398532Y353466D01*
X396730Y355663D01*
X396520Y356070D01*
Y357133D01*
X398079Y358413D01*
X400203Y361002D01*
X401782Y363955D01*
X402754Y367160D01*
X403082Y370492D01*
X402754Y373825D01*
X401782Y377029D01*
X400203Y379983D01*
X398276Y382332D01*
X398141Y383192D01*
X398276Y384053D01*
X400203Y386402D01*
X401782Y389355D01*
X402754Y392560D01*
X403082Y395892D01*
X402754Y399225D01*
X401782Y402429D01*
X400203Y405383D01*
X398079Y407971D01*
X395490Y410095D01*
X392537Y411674D01*
X389333Y412646D01*
X386000Y412974D01*
X376000D01*
X372667Y412646D01*
X369463Y411674D01*
X366510Y410095D01*
X363951Y407996D01*
X276587D01*
Y514629D01*
X363402D01*
X363848Y513582D01*
X363878Y513359D01*
X361797Y510822D01*
X360218Y507869D01*
X359246Y504665D01*
X358918Y501332D01*
X359246Y498000D01*
X360218Y494795D01*
X361797Y491842D01*
X363921Y489253D01*
X365480Y487974D01*
Y486910D01*
X365271Y486503D01*
X363468Y484306D01*
X362075Y481700D01*
X361842Y480932D01*
X381000D01*
X400158D01*
X399925Y481700D01*
X398532Y484306D01*
X396730Y486503D01*
X396520Y486910D01*
Y487974D01*
X398079Y489253D01*
X400203Y491842D01*
X401782Y494795D01*
X402754Y498000D01*
X403082Y501332D01*
X402754Y504665D01*
X401782Y507869D01*
X400203Y510822D01*
X398276Y513172D01*
X398141Y514032D01*
X398276Y514893D01*
X400203Y517242D01*
X401782Y520195D01*
X402754Y523400D01*
X403082Y526732D01*
X402754Y530065D01*
X401782Y533269D01*
X400203Y536222D01*
X398079Y538811D01*
X395490Y540936D01*
X392537Y542514D01*
X389333Y543486D01*
X386000Y543814D01*
X376000D01*
X372667Y543486D01*
X369463Y542514D01*
X366510Y540936D01*
X363951Y538836D01*
X276587D01*
Y668942D01*
X276923Y669525D01*
X277833Y672921D01*
Y676436D01*
X276923Y679831D01*
X275166Y682875D01*
X272680Y685361D01*
X269636Y687119D01*
X266241Y688028D01*
X262726D01*
X259330Y687119D01*
X256286Y685361D01*
X253801Y682875D01*
X252043Y679831D01*
X251133Y676436D01*
Y672921D01*
X252043Y669525D01*
X252380Y668942D01*
Y549002D01*
X251326Y548394D01*
X251110Y548452D01*
X247757Y549350D01*
X244242D01*
X240847Y548440D01*
X240264Y548104D01*
X186880D01*
X186394Y549277D01*
X208662Y571545D01*
X210326Y571214D01*
X213674D01*
X216959Y571867D01*
X220053Y573148D01*
X222837Y575009D01*
X225205Y577377D01*
X227065Y580161D01*
X228347Y583255D01*
X229000Y586539D01*
Y589888D01*
X228347Y593172D01*
X227065Y596266D01*
X225205Y599051D01*
X222837Y601418D01*
X220053Y603279D01*
X216959Y604560D01*
X213674Y605214D01*
X210326D01*
X207041Y604560D01*
X203948Y603279D01*
X201163Y601418D01*
X198795Y599051D01*
X196935Y596266D01*
X195653Y593172D01*
X195553Y592670D01*
X168374Y565490D01*
X167135Y566003D01*
X167104Y566054D01*
Y675987D01*
X220559Y729442D01*
X222482Y731948D01*
X223691Y734867D01*
X224104Y738000D01*
Y756062D01*
X225205Y757163D01*
X227065Y759947D01*
X228347Y763041D01*
X229000Y766326D01*
Y769674D01*
X228347Y772959D01*
X227065Y776052D01*
X225205Y778837D01*
X222837Y781205D01*
X220053Y783065D01*
X216959Y784346D01*
X213674Y785000D01*
D02*
G37*
G36*
X464000Y531682D02*
X459000D01*
X455668Y531354D01*
X452463Y530382D01*
X449510Y528803D01*
X446921Y526679D01*
X444797Y524090D01*
X443218Y521137D01*
X442246Y517932D01*
X441918Y514600D01*
X442246Y511267D01*
X443218Y508063D01*
X444797Y505109D01*
X446725Y502760D01*
X446859Y501900D01*
X446725Y501039D01*
X444797Y498690D01*
X443218Y495737D01*
X442246Y492532D01*
X441918Y489200D01*
X442246Y485867D01*
X443218Y482663D01*
X444797Y479709D01*
X446921Y477121D01*
X449510Y474996D01*
X452463Y473418D01*
X455668Y472446D01*
X459000Y472117D01*
X464000D01*
X467333Y472446D01*
X470537Y473418D01*
X473491Y474996D01*
X476079Y477121D01*
X478204Y479709D01*
X479782Y482663D01*
X480754Y485867D01*
X481082Y489200D01*
X480754Y492532D01*
X479782Y495737D01*
X478204Y498690D01*
X476276Y501039D01*
X476142Y501900D01*
X476276Y502760D01*
X478204Y505109D01*
X479782Y508063D01*
X480754Y511267D01*
X481082Y514600D01*
X480754Y517932D01*
X479782Y521137D01*
X478204Y524090D01*
X476079Y526679D01*
X473491Y528803D01*
X470537Y530382D01*
X467333Y531354D01*
X464000Y531682D01*
D02*
G37*
G36*
X400158Y470932D02*
X386000D01*
Y460860D01*
X388941Y461149D01*
X391768Y462007D01*
X394374Y463400D01*
X396658Y465274D01*
X398532Y467558D01*
X399925Y470164D01*
X400158Y470932D01*
D02*
G37*
G36*
X376000D02*
X361842D01*
X362075Y470164D01*
X363468Y467558D01*
X365342Y465274D01*
X367626Y463400D01*
X370232Y462007D01*
X373060Y461149D01*
X376000Y460860D01*
X376000D01*
Y470932D01*
D02*
G37*
G36*
X32000Y467379D02*
Y458214D01*
X41165D01*
X40293Y460319D01*
X38651Y462776D01*
X36562Y464865D01*
X34105Y466507D01*
X32000Y467379D01*
D02*
G37*
G36*
X22000D02*
X19895Y466507D01*
X17438Y464865D01*
X15349Y462776D01*
X13707Y460319D01*
X12835Y458214D01*
X22000D01*
Y467379D01*
D02*
G37*
G36*
X41165Y448214D02*
X32000D01*
Y439049D01*
X34105Y439921D01*
X36562Y441562D01*
X38651Y443652D01*
X40293Y446109D01*
X41165Y448214D01*
D02*
G37*
G36*
X22000D02*
X12835D01*
X13707Y446109D01*
X15349Y443652D01*
X17438Y441562D01*
X19895Y439921D01*
X22000Y439049D01*
Y448214D01*
D02*
G37*
G36*
X213674Y470214D02*
X210326D01*
X207041Y469561D01*
X203948Y468279D01*
X201163Y466418D01*
X198795Y464051D01*
X196935Y461266D01*
X195653Y458172D01*
X195000Y454888D01*
Y451539D01*
X195653Y448255D01*
X196935Y445161D01*
X198795Y442377D01*
X201163Y440009D01*
X203948Y438148D01*
X207041Y436867D01*
X210326Y436214D01*
X213674D01*
X216959Y436867D01*
X220053Y438148D01*
X222837Y440009D01*
X225205Y442377D01*
X227065Y445161D01*
X228347Y448255D01*
X229000Y451539D01*
Y454888D01*
X228347Y458172D01*
X227065Y461266D01*
X225205Y464051D01*
X222837Y466418D01*
X220053Y468279D01*
X216959Y469561D01*
X213674Y470214D01*
D02*
G37*
G36*
Y425428D02*
X210326D01*
X207041Y424774D01*
X203948Y423493D01*
X201163Y421632D01*
X198795Y419264D01*
X196935Y416480D01*
X195653Y413386D01*
X195000Y410102D01*
Y406753D01*
X195653Y403469D01*
X196935Y400375D01*
X198795Y397591D01*
X201163Y395223D01*
X203948Y393362D01*
X207041Y392081D01*
X210326Y391428D01*
X213674D01*
X216959Y392081D01*
X220053Y393362D01*
X222837Y395223D01*
X225205Y397591D01*
X227065Y400375D01*
X228347Y403469D01*
X229000Y406753D01*
Y410102D01*
X228347Y413386D01*
X227065Y416480D01*
X225205Y419264D01*
X222837Y421632D01*
X220053Y423493D01*
X216959Y424774D01*
X213674Y425428D01*
D02*
G37*
G36*
X28674D02*
X25326D01*
X22041Y424774D01*
X18948Y423493D01*
X16163Y421632D01*
X13795Y419264D01*
X11935Y416480D01*
X10654Y413386D01*
X10000Y410102D01*
Y406753D01*
X10654Y403469D01*
X11935Y400375D01*
X13795Y397591D01*
X16163Y395223D01*
X18948Y393362D01*
X22041Y392081D01*
X25326Y391428D01*
X28674D01*
X31959Y392081D01*
X35053Y393362D01*
X37837Y395223D01*
X40205Y397591D01*
X42065Y400375D01*
X43347Y403469D01*
X44000Y406753D01*
Y410102D01*
X43347Y413386D01*
X42065Y416480D01*
X40205Y419264D01*
X37837Y421632D01*
X35053Y423493D01*
X31959Y424774D01*
X28674Y425428D01*
D02*
G37*
G36*
X464000Y400842D02*
X459000D01*
X455668Y400514D01*
X452463Y399542D01*
X449510Y397963D01*
X446921Y395839D01*
X444797Y393250D01*
X443218Y390297D01*
X442246Y387092D01*
X441918Y383760D01*
X442246Y380427D01*
X443218Y377223D01*
X444797Y374269D01*
X446725Y371920D01*
X446859Y371060D01*
X446725Y370199D01*
X444797Y367850D01*
X443218Y364897D01*
X442246Y361692D01*
X441918Y358360D01*
X442246Y355027D01*
X443218Y351823D01*
X444797Y348869D01*
X446921Y346281D01*
X449510Y344156D01*
X452463Y342578D01*
X455668Y341606D01*
X459000Y341277D01*
X464000D01*
X467333Y341606D01*
X470537Y342578D01*
X473491Y344156D01*
X476079Y346281D01*
X478204Y348869D01*
X479782Y351823D01*
X480754Y355027D01*
X481082Y358360D01*
X480754Y361692D01*
X479782Y364897D01*
X478204Y367850D01*
X476276Y370199D01*
X476142Y371060D01*
X476276Y371920D01*
X478204Y374269D01*
X479782Y377223D01*
X480754Y380427D01*
X481082Y383760D01*
X480754Y387092D01*
X479782Y390297D01*
X478204Y393250D01*
X476079Y395839D01*
X473491Y397963D01*
X470537Y399542D01*
X467333Y400514D01*
X464000Y400842D01*
D02*
G37*
G36*
X400158Y340092D02*
X386000D01*
Y330020D01*
X388941Y330309D01*
X391768Y331167D01*
X394374Y332560D01*
X396658Y334434D01*
X398532Y336718D01*
X399925Y339324D01*
X400158Y340092D01*
D02*
G37*
G36*
X376000D02*
X361842D01*
X362075Y339324D01*
X363468Y336718D01*
X365342Y334434D01*
X367626Y332560D01*
X370232Y331167D01*
X373060Y330309D01*
X376000Y330020D01*
X376000D01*
Y340092D01*
D02*
G37*
G36*
X32000Y287592D02*
Y278428D01*
X41165D01*
X40293Y280533D01*
X38651Y282990D01*
X36562Y285079D01*
X34105Y286721D01*
X32000Y287592D01*
D02*
G37*
G36*
X22000D02*
X19895Y286721D01*
X17438Y285079D01*
X15349Y282990D01*
X13707Y280533D01*
X12835Y278428D01*
X22000D01*
Y287592D01*
D02*
G37*
G36*
X41165Y268428D02*
X32000D01*
Y259263D01*
X34105Y260135D01*
X36562Y261776D01*
X38651Y263866D01*
X40293Y266322D01*
X41165Y268428D01*
D02*
G37*
G36*
X22000D02*
X12835D01*
X13707Y266322D01*
X15349Y263866D01*
X17438Y261776D01*
X19895Y260135D01*
X22000Y259263D01*
Y268428D01*
D02*
G37*
G36*
X213674Y290428D02*
X210326D01*
X207041Y289774D01*
X203948Y288493D01*
X201163Y286632D01*
X198795Y284265D01*
X196935Y281480D01*
X195653Y278386D01*
X195000Y275102D01*
Y271753D01*
X195653Y268469D01*
X196935Y265375D01*
X198795Y262591D01*
X201163Y260223D01*
X203948Y258362D01*
X207041Y257081D01*
X210326Y256428D01*
X213674D01*
X216959Y257081D01*
X220053Y258362D01*
X222837Y260223D01*
X225205Y262591D01*
X227065Y265375D01*
X228347Y268469D01*
X229000Y271753D01*
Y275102D01*
X228347Y278386D01*
X227065Y281480D01*
X225205Y284265D01*
X222837Y286632D01*
X220053Y288493D01*
X216959Y289774D01*
X213674Y290428D01*
D02*
G37*
G36*
Y245641D02*
X210326D01*
X207041Y244988D01*
X203948Y243707D01*
X201163Y241846D01*
X198795Y239478D01*
X196935Y236694D01*
X195653Y233600D01*
X195000Y230316D01*
Y226967D01*
X195653Y223683D01*
X196935Y220589D01*
X198795Y217805D01*
X201163Y215437D01*
X203948Y213576D01*
X207041Y212295D01*
X210326Y211642D01*
X213674D01*
X216959Y212295D01*
X220053Y213576D01*
X222837Y215437D01*
X225205Y217805D01*
X227065Y220589D01*
X228347Y223683D01*
X229000Y226967D01*
Y230316D01*
X228347Y233600D01*
X227065Y236694D01*
X225205Y239478D01*
X222837Y241846D01*
X220053Y243707D01*
X216959Y244988D01*
X213674Y245641D01*
D02*
G37*
G36*
X28674D02*
X25326D01*
X22041Y244988D01*
X18948Y243707D01*
X16163Y241846D01*
X13795Y239478D01*
X11935Y236694D01*
X10654Y233600D01*
X10000Y230316D01*
Y226967D01*
X10654Y223683D01*
X11935Y220589D01*
X13795Y217805D01*
X16163Y215437D01*
X18948Y213576D01*
X22041Y212295D01*
X25326Y211642D01*
X28674D01*
X31959Y212295D01*
X35053Y213576D01*
X37837Y215437D01*
X40205Y217805D01*
X42065Y220589D01*
X43347Y223683D01*
X44000Y226967D01*
Y230316D01*
X43347Y233600D01*
X42065Y236694D01*
X40205Y239478D01*
X37837Y241846D01*
X35053Y243707D01*
X31959Y244988D01*
X28674Y245641D01*
D02*
G37*
G36*
X464000Y270002D02*
X459000D01*
X455668Y269674D01*
X452463Y268702D01*
X449510Y267123D01*
X446921Y264999D01*
X444797Y262410D01*
X443218Y259457D01*
X442246Y256252D01*
X441918Y252920D01*
X442246Y249587D01*
X443218Y246383D01*
X444797Y243429D01*
X446725Y241080D01*
X446859Y240220D01*
X446725Y239359D01*
X444797Y237010D01*
X443218Y234057D01*
X442246Y230852D01*
X441918Y227520D01*
X442246Y224187D01*
X443218Y220983D01*
X444797Y218029D01*
X446921Y215441D01*
X449510Y213316D01*
X452463Y211738D01*
X455668Y210766D01*
X459000Y210437D01*
X464000D01*
X467333Y210766D01*
X470537Y211738D01*
X473491Y213316D01*
X476079Y215441D01*
X478204Y218029D01*
X479782Y220983D01*
X480754Y224187D01*
X481082Y227520D01*
X480754Y230852D01*
X479782Y234057D01*
X478204Y237010D01*
X476276Y239359D01*
X476142Y240220D01*
X476276Y241080D01*
X478204Y243429D01*
X479782Y246383D01*
X480754Y249587D01*
X481082Y252920D01*
X480754Y256252D01*
X479782Y259457D01*
X478204Y262410D01*
X476079Y264999D01*
X473491Y267123D01*
X470537Y268702D01*
X467333Y269674D01*
X464000Y270002D01*
D02*
G37*
G36*
X400158Y209252D02*
X386000D01*
Y199180D01*
X388941Y199469D01*
X391768Y200327D01*
X394374Y201720D01*
X396658Y203594D01*
X398532Y205878D01*
X399925Y208484D01*
X400158Y209252D01*
D02*
G37*
G36*
X376000D02*
X361842D01*
X362075Y208484D01*
X363468Y205878D01*
X365342Y203594D01*
X367626Y201720D01*
X370232Y200327D01*
X373060Y199469D01*
X376000Y199180D01*
X376000D01*
Y209252D01*
D02*
G37*
G36*
X32000Y107806D02*
Y98642D01*
X41165D01*
X40293Y100747D01*
X38651Y103203D01*
X36562Y105293D01*
X34105Y106934D01*
X32000Y107806D01*
D02*
G37*
G36*
X22000D02*
X19895Y106934D01*
X17438Y105293D01*
X15349Y103203D01*
X13707Y100747D01*
X12835Y98642D01*
X22000D01*
Y107806D01*
D02*
G37*
G36*
X464000Y139162D02*
X459000D01*
X455668Y138834D01*
X452463Y137862D01*
X449510Y136283D01*
X446921Y134159D01*
X444797Y131570D01*
X443218Y128617D01*
X442246Y125412D01*
X441918Y122080D01*
X442246Y118747D01*
X443218Y115543D01*
X444797Y112589D01*
X446725Y110240D01*
X446859Y109380D01*
X446725Y108519D01*
X444797Y106170D01*
X443218Y103217D01*
X442246Y100012D01*
X441918Y96680D01*
X442246Y93347D01*
X443218Y90143D01*
X444797Y87189D01*
X446921Y84601D01*
X449510Y82476D01*
X452463Y80898D01*
X455668Y79926D01*
X459000Y79598D01*
X464000D01*
X467333Y79926D01*
X470537Y80898D01*
X473491Y82476D01*
X476079Y84601D01*
X478204Y87189D01*
X479782Y90143D01*
X480754Y93347D01*
X481082Y96680D01*
X480754Y100012D01*
X479782Y103217D01*
X478204Y106170D01*
X476276Y108519D01*
X476142Y109380D01*
X476276Y110240D01*
X478204Y112589D01*
X479782Y115543D01*
X480754Y118747D01*
X481082Y122080D01*
X480754Y125412D01*
X479782Y128617D01*
X478204Y131570D01*
X476079Y134159D01*
X473491Y136283D01*
X470537Y137862D01*
X467333Y138834D01*
X464000Y139162D01*
D02*
G37*
G36*
X41165Y88642D02*
X32000D01*
Y79477D01*
X34105Y80349D01*
X36562Y81990D01*
X38651Y84080D01*
X40293Y86536D01*
X41165Y88642D01*
D02*
G37*
G36*
X22000D02*
X12835D01*
X13707Y86536D01*
X15349Y84080D01*
X17438Y81990D01*
X19895Y80349D01*
X22000Y79477D01*
Y88642D01*
D02*
G37*
G36*
X400158Y78412D02*
X386000D01*
Y68340D01*
X388941Y68629D01*
X391768Y69487D01*
X394374Y70880D01*
X396658Y72754D01*
X398532Y75038D01*
X399925Y77644D01*
X400158Y78412D01*
D02*
G37*
G36*
X376000D02*
X361842D01*
X362075Y77644D01*
X363468Y75038D01*
X365342Y72754D01*
X367626Y70880D01*
X370232Y69487D01*
X373060Y68629D01*
X376000Y68340D01*
X376000D01*
Y78412D01*
D02*
G37*
G36*
X480000Y44397D02*
Y30000D01*
X494397D01*
X494231Y30833D01*
X492724Y34473D01*
X490535Y37749D01*
X487749Y40535D01*
X484473Y42723D01*
X480834Y44231D01*
X480000Y44397D01*
D02*
G37*
G36*
X470000D02*
X469166Y44231D01*
X465526Y42723D01*
X462251Y40535D01*
X459465Y37749D01*
X457276Y34473D01*
X455768Y30833D01*
X455603Y30000D01*
X470000D01*
Y44397D01*
D02*
G37*
G36*
X30000D02*
Y30000D01*
X44397D01*
X44232Y30833D01*
X42724Y34473D01*
X40535Y37749D01*
X37750Y40535D01*
X34474Y42723D01*
X30834Y44231D01*
X30000Y44397D01*
D02*
G37*
G36*
X20000D02*
X19166Y44231D01*
X15527Y42723D01*
X12251Y40535D01*
X9465Y37749D01*
X7276Y34473D01*
X5769Y30833D01*
X5603Y30000D01*
X20000D01*
Y44397D01*
D02*
G37*
G36*
X200826Y30000D02*
X191000D01*
Y18341D01*
X191768Y18574D01*
X194374Y19967D01*
X196658Y21842D01*
X198532Y24126D01*
X199925Y26732D01*
X200783Y29559D01*
X200826Y30000D01*
D02*
G37*
G36*
X155600D02*
X145774D01*
X145817Y29559D01*
X146675Y26732D01*
X148068Y24126D01*
X149942Y21842D01*
X152226Y19967D01*
X154832Y18574D01*
X155600Y18341D01*
Y30000D01*
D02*
G37*
G36*
X44397Y20000D02*
X30000D01*
Y5602D01*
X30834Y5768D01*
X34474Y7276D01*
X37750Y9465D01*
X40535Y12250D01*
X42724Y15526D01*
X44232Y19166D01*
X44397Y20000D01*
D02*
G37*
G36*
X20000D02*
X5603D01*
X5769Y19166D01*
X7276Y15526D01*
X9465Y12250D01*
X12251Y9465D01*
X15527Y7276D01*
X19166Y5768D01*
X20000Y5602D01*
Y20000D01*
D02*
G37*
G36*
X494397D02*
X480000D01*
Y5602D01*
X480834Y5768D01*
X484473Y7276D01*
X487749Y9465D01*
X490535Y12250D01*
X492724Y15526D01*
X494231Y19166D01*
X494397Y20000D01*
D02*
G37*
G36*
X470000D02*
X455603D01*
X455768Y19166D01*
X457276Y15526D01*
X459465Y12250D01*
X462251Y9465D01*
X465526Y7276D01*
X469166Y5768D01*
X470000Y5602D01*
Y20000D01*
D02*
G37*
%LPD*%
D16*
X58379Y826500D02*
D03*
Y881500D02*
D03*
D17*
Y838800D02*
D03*
Y869200D02*
D03*
D18*
Y859000D02*
D03*
Y849000D02*
D03*
D19*
X91000Y863500D02*
D03*
Y882500D02*
D03*
Y844500D02*
D03*
Y825500D02*
D03*
X386000Y985500D02*
D03*
Y966500D02*
D03*
X437000Y985500D02*
D03*
Y966500D02*
D03*
D20*
X225500Y807000D02*
D03*
X244500D02*
D03*
D38*
X179915Y533964D02*
X181951Y536000D01*
X153964Y544713D02*
X155000Y543677D01*
X153964Y559915D02*
X155000Y560950D01*
X153964Y544713D02*
Y559915D01*
X181951Y536000D02*
X246000D01*
X160858D02*
X162677D01*
X164714Y533964D01*
X179915D01*
X155000Y541858D02*
Y543677D01*
Y560950D02*
Y681000D01*
X172314Y552314D02*
X208214Y588214D01*
X212000D01*
X155000Y541858D02*
X160858Y536000D01*
X264483Y528000D02*
Y674678D01*
X155000Y681000D02*
X212000Y738000D01*
Y768000D01*
X264483Y395000D02*
Y528000D01*
X265751Y526732D01*
X381000D01*
X264483Y266000D02*
Y395000D01*
X265375Y395892D01*
X381000D01*
X264483Y131000D02*
Y266000D01*
X265431Y265052D01*
X381000D01*
X264483Y99483D02*
Y131000D01*
X267695Y134212D01*
X381000D01*
X84044Y35000D02*
X109444D01*
X111357Y36913D01*
Y57499D01*
X118858Y65000D01*
X230000D01*
X264483Y99483D01*
X250325Y748675D02*
X457947D01*
X250000Y749000D02*
X250325Y748675D01*
X457947D02*
X458272Y748350D01*
X386100Y934100D02*
X386200Y934000D01*
X386000Y966500D02*
X386100Y966400D01*
Y934100D02*
Y966400D01*
X354000Y730000D02*
X472000D01*
X330914Y706914D02*
X354000Y730000D01*
X472000D02*
X487000Y715000D01*
X389000Y767152D02*
Y810000D01*
X276000Y877449D02*
X321550D01*
X389000Y810000D01*
X487000Y677171D02*
Y715000D01*
X326294Y694800D02*
X330914Y699419D01*
Y706914D01*
X324000Y694800D02*
X326294D01*
X461914Y671313D02*
X481143D01*
X487000Y677171D01*
X460000Y669400D02*
X461914Y671313D01*
X244500Y807000D02*
X274000D01*
X437000Y934000D02*
X437000Y934000D01*
Y966500D02*
X437000Y966500D01*
X437000Y934000D02*
Y966500D01*
D39*
X41000Y843000D02*
X45200Y838800D01*
X41000Y799000D02*
Y843000D01*
Y799000D02*
X47000Y793000D01*
X93000D01*
X94000Y794000D01*
X45200Y838800D02*
X58379D01*
X41000Y843000D02*
Y865685D01*
X44515Y869200D02*
X58379D01*
X41000Y865685D02*
X44515Y869200D01*
X90000Y863500D02*
X91000D01*
X58379Y859000D02*
X85500D01*
X90000Y863500D01*
Y843500D02*
X91000D01*
X58379Y849000D02*
X84500D01*
X90000Y843500D01*
D40*
X386200Y934000D02*
D03*
X411600D02*
D03*
D41*
X437000D02*
D03*
D42*
X20329Y810800D02*
D03*
Y897200D02*
D03*
X58329Y810800D02*
D03*
Y897200D02*
D03*
D43*
X392000Y694800D02*
D03*
Y669400D02*
D03*
Y644000D02*
D03*
X381000Y475932D02*
D03*
Y501332D02*
D03*
Y526732D02*
D03*
X460000Y694800D02*
D03*
Y669400D02*
D03*
Y644000D02*
D03*
X324000Y694800D02*
D03*
Y669400D02*
D03*
Y644000D02*
D03*
X381000Y83412D02*
D03*
Y108812D02*
D03*
Y134212D02*
D03*
Y214252D02*
D03*
Y239652D02*
D03*
Y265052D02*
D03*
Y345092D02*
D03*
Y370492D02*
D03*
Y395892D02*
D03*
D44*
X276000Y877449D02*
D03*
Y937000D02*
D03*
D45*
X229100Y907039D02*
D03*
D46*
X160600Y968000D02*
D03*
X186000D02*
D03*
X109444Y35000D02*
D03*
X84044D02*
D03*
X186000D02*
D03*
X160600D02*
D03*
X84044Y968000D02*
D03*
X109444D02*
D03*
D47*
X27000Y93642D02*
D03*
Y228641D02*
D03*
X212000D02*
D03*
Y93642D02*
D03*
Y273428D02*
D03*
Y408428D02*
D03*
X27000D02*
D03*
Y273428D02*
D03*
X212000Y453214D02*
D03*
Y588214D02*
D03*
X27000D02*
D03*
Y453214D02*
D03*
X274000Y807000D02*
D03*
X212000Y632999D02*
D03*
Y768000D02*
D03*
X27000D02*
D03*
Y632999D02*
D03*
D48*
X304000Y807000D02*
D03*
D49*
X461500Y252920D02*
D03*
Y227520D02*
D03*
Y383760D02*
D03*
Y358360D02*
D03*
Y489200D02*
D03*
Y514600D02*
D03*
Y96680D02*
D03*
Y122080D02*
D03*
D50*
X172314Y552314D02*
D03*
X246000Y536000D02*
D03*
X264483Y674678D02*
D03*
X250000Y749000D02*
D03*
X458272Y748350D02*
D03*
X389000Y767152D02*
D03*
X94000Y794000D02*
D03*
D51*
X25000Y25000D02*
D03*
X475000Y975000D02*
D03*
X25000D02*
D03*
X475000Y25000D02*
D03*
M02*
