G04*
G04 #@! TF.GenerationSoftware,Altium Limited,Altium Designer,24.2.2 (26)*
G04*
G04 Layer_Color=65535*
%FSLAX44Y44*%
%MOMM*%
G71*
G04*
G04 #@! TF.SameCoordinates,C1532DF8-A77D-479D-A07C-5EAB100E6B30*
G04*
G04*
G04 #@! TF.FilePolarity,Positive*
G04*
G01*
G75*
%ADD10C,0.2000*%
%ADD11C,0.2540*%
%ADD12C,0.1524*%
%ADD13C,0.1270*%
%ADD14C,0.1500*%
%ADD15R,1.6510X5.3340*%
G36*
X262287Y124376D02*
X262266D01*
Y124387D01*
X262287D01*
Y124376D01*
D02*
G37*
G36*
X296249Y124321D02*
X315772D01*
Y124311D01*
X315783D01*
Y124289D01*
X315772D01*
Y124267D01*
X315783D01*
Y124245D01*
X315794D01*
Y124224D01*
X315848D01*
Y124235D01*
X315859D01*
Y124245D01*
X315870D01*
Y124235D01*
X315881D01*
Y124169D01*
X315870D01*
Y124148D01*
X315859D01*
Y124061D01*
X315848D01*
Y123800D01*
X315859D01*
Y123778D01*
X315870D01*
Y123757D01*
X315881D01*
Y122985D01*
X315870D01*
Y122562D01*
X315859D01*
Y122963D01*
X315848D01*
Y123279D01*
X315837D01*
Y123192D01*
X315826D01*
Y123257D01*
X315815D01*
Y123344D01*
X315804D01*
Y123235D01*
X315794D01*
Y121660D01*
X315783D01*
Y121605D01*
X315794D01*
Y120693D01*
X315783D01*
Y113120D01*
X315772D01*
Y111317D01*
X315761D01*
Y111274D01*
X315750D01*
Y111915D01*
X315739D01*
Y112240D01*
X315728D01*
Y112045D01*
X315718D01*
Y110687D01*
X315707D01*
Y109785D01*
X315718D01*
Y109774D01*
X315707D01*
Y109677D01*
X315631D01*
Y109579D01*
X315620D01*
Y109568D01*
X315544D01*
Y109492D01*
X315468D01*
Y109427D01*
X315457D01*
Y109416D01*
X315424D01*
Y109427D01*
X315413D01*
Y109416D01*
X315392D01*
Y109405D01*
X315381D01*
Y109340D01*
X315359D01*
Y109351D01*
X315316D01*
Y109340D01*
X315229D01*
Y109329D01*
X315218D01*
Y109264D01*
X315142D01*
Y109253D01*
X315131D01*
Y109188D01*
X315120D01*
Y109177D01*
X315055D01*
Y109112D01*
X315044D01*
Y109101D01*
X314968D01*
Y109090D01*
X314957D01*
Y109068D01*
X314968D01*
Y109036D01*
X314903D01*
Y109025D01*
X314881D01*
Y109014D01*
X314859D01*
Y109025D01*
X314837D01*
Y109014D01*
X314816D01*
Y108949D01*
X314751D01*
Y108938D01*
X314729D01*
Y108894D01*
X314718D01*
Y108883D01*
X314729D01*
Y108851D01*
X314707D01*
Y108840D01*
X314664D01*
Y108775D01*
X314653D01*
Y108764D01*
X314588D01*
Y108753D01*
X314577D01*
Y108688D01*
X314479D01*
Y108677D01*
X314468D01*
Y108612D01*
X314436D01*
Y108623D01*
X314425D01*
Y108612D01*
X314392D01*
Y108601D01*
X314327D01*
Y108536D01*
X314316D01*
Y108525D01*
X314240D01*
Y108460D01*
X314175D01*
Y108449D01*
X314164D01*
Y108297D01*
X314153D01*
Y108275D01*
X314164D01*
Y108264D01*
X314186D01*
Y108253D01*
X314229D01*
Y108243D01*
X314240D01*
Y108221D01*
X314229D01*
Y108210D01*
X314240D01*
Y108188D01*
X314305D01*
Y108177D01*
X314327D01*
Y108112D01*
X314392D01*
Y108101D01*
X314414D01*
Y108090D01*
X314446D01*
Y108101D01*
X314468D01*
Y108036D01*
X314479D01*
Y108025D01*
X314577D01*
Y107960D01*
X314588D01*
Y107949D01*
X314642D01*
Y107938D01*
X314653D01*
Y107916D01*
X314642D01*
Y107884D01*
X314653D01*
Y107873D01*
X314707D01*
Y107862D01*
X314729D01*
Y107786D01*
X314751D01*
Y107775D01*
X314805D01*
Y107743D01*
X314816D01*
Y107732D01*
X314805D01*
Y107710D01*
X314816D01*
Y107699D01*
X314870D01*
Y107688D01*
X314892D01*
Y107667D01*
X314903D01*
Y107656D01*
X314892D01*
Y107623D01*
X314914D01*
Y107612D01*
X314946D01*
Y107623D01*
X314957D01*
Y107612D01*
X314979D01*
Y107601D01*
X314990D01*
Y107580D01*
X314979D01*
Y107547D01*
X315044D01*
Y107536D01*
X315055D01*
Y107525D01*
X315120D01*
Y107515D01*
X315131D01*
Y107504D01*
X315120D01*
Y107460D01*
X315142D01*
Y107449D01*
X315229D01*
Y107384D01*
X315240D01*
Y107373D01*
X315294D01*
Y107362D01*
X315305D01*
Y107341D01*
X315294D01*
Y107308D01*
X315305D01*
Y107297D01*
X315370D01*
Y107286D01*
X315381D01*
Y107221D01*
X315403D01*
Y107210D01*
X315468D01*
Y107145D01*
X315478D01*
Y107134D01*
X315620D01*
Y107058D01*
X315696D01*
Y107047D01*
X315707D01*
Y107037D01*
X315696D01*
Y106971D01*
X315707D01*
Y102604D01*
X315696D01*
Y100149D01*
X315685D01*
Y99964D01*
X315674D01*
Y100344D01*
X315663D01*
Y100942D01*
X315652D01*
Y100746D01*
X315641D01*
Y99964D01*
X315631D01*
Y99942D01*
X315641D01*
Y99899D01*
X315631D01*
Y97878D01*
X315641D01*
Y97661D01*
X315631D01*
Y91838D01*
X315620D01*
Y89111D01*
X315609D01*
Y88709D01*
X315598D01*
Y88926D01*
X315587D01*
Y89665D01*
X315576D01*
Y89621D01*
X315565D01*
Y88969D01*
X315555D01*
Y87427D01*
X315544D01*
Y87394D01*
X315555D01*
Y87275D01*
X315544D01*
Y86134D01*
X315533D01*
Y86123D01*
X315511D01*
Y86134D01*
X315478D01*
Y86112D01*
X315468D01*
Y86058D01*
X315478D01*
Y86036D01*
X315468D01*
Y85949D01*
X315403D01*
Y85938D01*
X315392D01*
Y85873D01*
X315381D01*
Y85862D01*
X315359D01*
Y85873D01*
X315316D01*
Y85862D01*
X315305D01*
Y85819D01*
X315316D01*
Y85721D01*
X315305D01*
Y85710D01*
X315272D01*
Y85721D01*
X315250D01*
Y85710D01*
X315240D01*
Y85656D01*
X315229D01*
Y85623D01*
X315218D01*
Y85580D01*
X315207D01*
Y85623D01*
X315142D01*
Y85558D01*
X315131D01*
Y85471D01*
X315120D01*
Y85384D01*
X315066D01*
Y85373D01*
X315055D01*
Y85319D01*
X315044D01*
Y85297D01*
X315011D01*
Y85308D01*
X314990D01*
Y85297D01*
X314979D01*
Y85199D01*
X314968D01*
Y85178D01*
X314979D01*
Y85156D01*
X314968D01*
Y85145D01*
X314903D01*
Y85124D01*
X314892D01*
Y85102D01*
X314903D01*
Y85091D01*
X314892D01*
Y84993D01*
X314881D01*
Y84982D01*
X314870D01*
Y84993D01*
X314827D01*
Y84982D01*
X314816D01*
Y84906D01*
X314805D01*
Y84895D01*
X314783D01*
Y84906D01*
X314751D01*
Y84895D01*
X314740D01*
Y84841D01*
X314751D01*
Y84797D01*
X314740D01*
Y84743D01*
X314729D01*
Y84732D01*
X314664D01*
Y84721D01*
X314653D01*
Y84667D01*
X314642D01*
Y84613D01*
X314631D01*
Y84591D01*
X314577D01*
Y84580D01*
X314566D01*
Y84428D01*
X314555D01*
Y84417D01*
X314512D01*
Y84428D01*
X314501D01*
Y84417D01*
X314490D01*
Y84406D01*
X314479D01*
Y84330D01*
X314468D01*
Y84265D01*
X314414D01*
Y84254D01*
X314403D01*
Y84189D01*
X314392D01*
Y84178D01*
X314381D01*
Y84167D01*
X314370D01*
Y84178D01*
X314338D01*
Y84167D01*
X314327D01*
Y84070D01*
X314316D01*
Y84015D01*
X314305D01*
Y84004D01*
X314294D01*
Y84015D01*
X314262D01*
Y84004D01*
X314251D01*
Y83983D01*
X314240D01*
Y83907D01*
X314229D01*
Y83852D01*
X314207D01*
Y83907D01*
X314186D01*
Y83896D01*
X314175D01*
Y83874D01*
X314186D01*
Y83863D01*
X314175D01*
Y83841D01*
X314164D01*
Y83755D01*
X314088D01*
Y83613D01*
X314077D01*
Y83603D01*
X314012D01*
Y83505D01*
X314001D01*
Y83450D01*
X314012D01*
Y83440D01*
X314001D01*
Y83429D01*
X313990D01*
Y83418D01*
X313979D01*
Y83429D01*
X313947D01*
Y83418D01*
X313936D01*
Y83385D01*
X313925D01*
Y83353D01*
X313860D01*
Y83364D01*
X313849D01*
Y83353D01*
X313838D01*
Y83342D01*
X313827D01*
Y83244D01*
X313816D01*
Y83222D01*
X313827D01*
Y83201D01*
X313816D01*
Y83190D01*
X313751D01*
Y83124D01*
X313740D01*
Y83103D01*
X313718D01*
Y83114D01*
X313686D01*
Y83103D01*
X313675D01*
Y83027D01*
X313664D01*
Y82951D01*
X313599D01*
Y82940D01*
X313588D01*
Y82864D01*
X313577D01*
Y82853D01*
X313566D01*
Y82864D01*
X313523D01*
Y82799D01*
X313512D01*
Y82701D01*
X313501D01*
Y82690D01*
X313436D01*
Y82538D01*
X313360D01*
Y82451D01*
X313349D01*
Y82386D01*
X313284D01*
Y82310D01*
X313273D01*
Y82201D01*
X313186D01*
Y82190D01*
X313175D01*
Y82125D01*
X313164D01*
Y82049D01*
X313110D01*
Y82038D01*
X313099D01*
Y81984D01*
X313088D01*
Y81951D01*
X313067D01*
Y81962D01*
X313034D01*
Y81951D01*
X313023D01*
Y81864D01*
X313012D01*
Y81799D01*
X313001D01*
Y81788D01*
X312991D01*
Y81799D01*
X312947D01*
Y81734D01*
X312936D01*
Y81658D01*
X312925D01*
Y81647D01*
X312904D01*
Y81658D01*
X312882D01*
Y81647D01*
X312871D01*
Y81636D01*
X312860D01*
Y81495D01*
X312849D01*
Y81484D01*
X312828D01*
Y81495D01*
X312795D01*
Y81484D01*
X312784D01*
Y81451D01*
X312773D01*
Y81386D01*
X312708D01*
Y81375D01*
X312697D01*
Y81332D01*
X312686D01*
Y81256D01*
X312676D01*
Y81234D01*
X312621D01*
Y81223D01*
X312610D01*
Y81158D01*
X312600D01*
Y81093D01*
X312589D01*
Y81082D01*
X312534D01*
Y81071D01*
X312523D01*
Y80995D01*
X312513D01*
Y80930D01*
X312491D01*
Y80973D01*
X312480D01*
Y80984D01*
X312458D01*
Y80919D01*
X312447D01*
Y80832D01*
X312437D01*
Y80810D01*
X312404D01*
Y80821D01*
X312382D01*
Y80810D01*
X312371D01*
Y80745D01*
X312360D01*
Y80680D01*
X312350D01*
Y80669D01*
X312339D01*
Y80680D01*
X312306D01*
Y80669D01*
X312295D01*
Y80647D01*
X312285D01*
Y80561D01*
X312274D01*
Y80517D01*
X312263D01*
Y80506D01*
X312252D01*
Y80517D01*
X312230D01*
Y80506D01*
X312219D01*
Y80495D01*
X312208D01*
Y80419D01*
X312197D01*
Y80408D01*
X312176D01*
Y80419D01*
X312143D01*
Y80408D01*
X312132D01*
Y80278D01*
X312122D01*
Y80256D01*
X312056D01*
Y80245D01*
X312045D01*
Y80180D01*
X312035D01*
Y80126D01*
X312024D01*
Y80115D01*
X312013D01*
Y80104D01*
X311959D01*
Y80039D01*
X311948D01*
Y80006D01*
X311959D01*
Y79974D01*
X311948D01*
Y79995D01*
X311882D01*
Y79941D01*
X311872D01*
Y79854D01*
X311861D01*
Y79833D01*
X311839D01*
Y79844D01*
X311806D01*
Y79822D01*
X311796D01*
Y79757D01*
X311785D01*
Y79691D01*
X311752D01*
Y79702D01*
X311741D01*
Y79691D01*
X311719D01*
Y79626D01*
X311709D01*
Y79517D01*
X311654D01*
Y79507D01*
X311644D01*
Y79496D01*
X311633D01*
Y79441D01*
X311622D01*
Y79431D01*
X311600D01*
Y79441D01*
X311578D01*
Y79431D01*
X311567D01*
Y79420D01*
X311557D01*
Y79278D01*
X311491D01*
Y79268D01*
X311481D01*
Y79192D01*
X311470D01*
Y79181D01*
X311448D01*
Y79192D01*
X311415D01*
Y79181D01*
X311394D01*
Y79170D01*
X311404D01*
Y79148D01*
X311426D01*
Y79137D01*
X311415D01*
Y79126D01*
X311404D01*
Y79040D01*
X311328D01*
Y79029D01*
X311318D01*
Y78898D01*
X311307D01*
Y78866D01*
X311252D01*
Y78877D01*
X311241D01*
Y78866D01*
X311231D01*
Y78855D01*
X311220D01*
Y78714D01*
X311209D01*
Y78703D01*
X311176D01*
Y78714D01*
X311165D01*
Y78703D01*
X311144D01*
Y78616D01*
X311133D01*
Y78551D01*
X311100D01*
Y78562D01*
X311089D01*
Y78551D01*
X311068D01*
Y78529D01*
X311057D01*
Y78464D01*
X311046D01*
Y78453D01*
X311035D01*
Y78464D01*
X310992D01*
Y78377D01*
X310981D01*
Y78301D01*
X310916D01*
Y78290D01*
X310905D01*
Y78225D01*
X310894D01*
Y78170D01*
X310883D01*
Y78159D01*
X310850D01*
Y78149D01*
X310829D01*
Y78116D01*
X310818D01*
Y78018D01*
X310796D01*
Y78040D01*
X310763D01*
Y78029D01*
X310753D01*
Y77997D01*
X310742D01*
Y77964D01*
X310731D01*
Y77888D01*
X310666D01*
Y77877D01*
X310655D01*
Y77823D01*
X310644D01*
Y77747D01*
X310579D01*
Y77725D01*
X310568D01*
Y77573D01*
X310557D01*
Y77562D01*
X310492D01*
Y77497D01*
X310481D01*
Y77475D01*
X310470D01*
Y77464D01*
X310459D01*
Y77475D01*
X310448D01*
Y77486D01*
X310438D01*
Y77475D01*
X310416D01*
Y77355D01*
X310405D01*
Y77323D01*
X310394D01*
Y77312D01*
X310372D01*
Y77323D01*
X310351D01*
Y77312D01*
X310340D01*
Y77258D01*
X310329D01*
Y77225D01*
X310318D01*
Y77171D01*
X310296D01*
Y77182D01*
X310275D01*
Y77171D01*
X310264D01*
Y77160D01*
X310253D01*
Y77084D01*
X310242D01*
Y77062D01*
X310231D01*
Y77073D01*
X310188D01*
Y77062D01*
X310177D01*
Y77008D01*
X310166D01*
Y76921D01*
X310155D01*
Y76910D01*
X310144D01*
Y76921D01*
X310112D01*
Y76910D01*
X310101D01*
Y76899D01*
X310090D01*
Y76834D01*
X310079D01*
Y76780D01*
X310068D01*
Y76769D01*
X310014D01*
Y76758D01*
X310003D01*
Y76660D01*
X309992D01*
Y76617D01*
X309981D01*
Y76606D01*
X309960D01*
Y76617D01*
X309927D01*
Y76595D01*
X309916D01*
Y76519D01*
X309905D01*
Y76508D01*
X309894D01*
Y76497D01*
X309883D01*
Y76508D01*
X309851D01*
Y76497D01*
X309840D01*
Y76367D01*
X309829D01*
Y76345D01*
X309764D01*
Y76258D01*
X309753D01*
Y76204D01*
X309742D01*
Y76193D01*
X309731D01*
Y76204D01*
X309699D01*
Y76193D01*
X309688D01*
Y76171D01*
X309677D01*
Y76095D01*
X309666D01*
Y76084D01*
X309645D01*
Y76095D01*
X309623D01*
Y76084D01*
X309612D01*
Y76041D01*
X309601D01*
Y75976D01*
X309590D01*
Y75943D01*
X309557D01*
Y75954D01*
X309547D01*
Y75943D01*
X309525D01*
Y75867D01*
X309514D01*
Y75791D01*
X309449D01*
Y75780D01*
X309438D01*
Y75683D01*
X309384D01*
Y75672D01*
X309373D01*
Y75639D01*
X309362D01*
Y75606D01*
X309329D01*
Y75617D01*
X309275D01*
Y75585D01*
X309264D01*
Y75563D01*
X309275D01*
Y75530D01*
X309264D01*
Y75454D01*
X309253D01*
Y75433D01*
X309232D01*
Y75444D01*
X309199D01*
Y75367D01*
X309188D01*
Y75291D01*
X309177D01*
Y75215D01*
X309145D01*
Y75226D01*
X309134D01*
Y75215D01*
X309112D01*
Y75161D01*
X309101D01*
Y75128D01*
X309036D01*
Y75041D01*
X309025D01*
Y74965D01*
X308960D01*
Y74955D01*
X308949D01*
Y74813D01*
X308938D01*
Y74802D01*
X308917D01*
Y74813D01*
X308884D01*
Y74802D01*
X308873D01*
Y74705D01*
X308862D01*
Y74672D01*
X308873D01*
Y74650D01*
X308862D01*
Y74640D01*
X308797D01*
Y74563D01*
X308786D01*
Y74553D01*
X308710D01*
Y74542D01*
X308699D01*
Y74487D01*
X308710D01*
Y74477D01*
X308721D01*
Y74411D01*
X308710D01*
Y74401D01*
X308699D01*
Y74390D01*
X308688D01*
Y74401D01*
X308623D01*
Y74390D01*
X308612D01*
Y74227D01*
X308601D01*
Y74216D01*
X308569D01*
Y74227D01*
X308558D01*
Y74216D01*
X308536D01*
Y74162D01*
X308525D01*
Y74140D01*
X308515D01*
Y74129D01*
X308504D01*
Y74140D01*
X308471D01*
Y74129D01*
X308460D01*
Y74085D01*
X308471D01*
Y74075D01*
X308460D01*
Y74031D01*
X308449D01*
Y73988D01*
X308384D01*
Y73977D01*
X308373D01*
Y73846D01*
X308363D01*
Y73836D01*
X308341D01*
Y73846D01*
X308319D01*
Y73836D01*
X308297D01*
Y73770D01*
X308286D01*
Y73749D01*
X308276D01*
Y73738D01*
X308254D01*
Y73727D01*
X308232D01*
Y73673D01*
X308221D01*
Y73607D01*
X308210D01*
Y73575D01*
X308189D01*
Y73586D01*
X308167D01*
Y73575D01*
X308134D01*
Y73564D01*
X308123D01*
Y73531D01*
X308134D01*
Y73423D01*
X308123D01*
Y73412D01*
X308047D01*
Y73390D01*
X308036D01*
Y73281D01*
X308026D01*
Y73271D01*
X307971D01*
Y73260D01*
X307960D01*
Y73184D01*
X307950D01*
Y73162D01*
X307895D01*
Y73097D01*
X307884D01*
Y73010D01*
X307874D01*
Y72988D01*
X307852D01*
Y72999D01*
X307819D01*
Y72988D01*
X307808D01*
Y72934D01*
X307798D01*
Y72847D01*
X307787D01*
Y72836D01*
X307678D01*
Y72847D01*
X307645D01*
Y72858D01*
X307656D01*
Y72869D01*
X307667D01*
Y72912D01*
X307656D01*
Y73010D01*
X307645D01*
Y73303D01*
X307656D01*
Y73347D01*
X307645D01*
Y73542D01*
X307656D01*
Y73705D01*
X307645D01*
Y73803D01*
X307656D01*
Y74031D01*
X307645D01*
Y74075D01*
X307656D01*
Y74292D01*
X307645D01*
Y75878D01*
X307656D01*
Y76399D01*
X307645D01*
Y77497D01*
X307656D01*
Y78790D01*
X307645D01*
Y78844D01*
X307656D01*
Y103310D01*
X307645D01*
Y103321D01*
X307580D01*
Y103332D01*
X307569D01*
Y103386D01*
X307504D01*
Y103408D01*
X307493D01*
Y103473D01*
X307330D01*
Y103484D01*
X307287D01*
Y103495D01*
X307309D01*
Y103506D01*
X307320D01*
Y103517D01*
X307330D01*
Y103527D01*
X307320D01*
Y103538D01*
X307287D01*
Y103549D01*
X307102D01*
Y103560D01*
X307091D01*
Y103625D01*
X307070D01*
Y103636D01*
X306939D01*
Y103712D01*
X306928D01*
Y103723D01*
X306842D01*
Y103712D01*
X306765D01*
Y103777D01*
X306776D01*
Y103788D01*
X306765D01*
Y103810D01*
X306689D01*
Y103821D01*
X306668D01*
Y103842D01*
X306679D01*
Y103875D01*
X306592D01*
Y103886D01*
X306537D01*
Y103897D01*
X306439D01*
Y103929D01*
X306461D01*
Y103919D01*
X306505D01*
Y103929D01*
X306516D01*
Y103951D01*
X306450D01*
Y103940D01*
X306439D01*
Y103951D01*
X306429D01*
Y103962D01*
X306407D01*
Y103973D01*
X306353D01*
Y104005D01*
X306364D01*
Y104027D01*
X306353D01*
Y104038D01*
X306266D01*
Y104049D01*
X306201D01*
Y104060D01*
X306190D01*
Y104071D01*
X306201D01*
Y104114D01*
X306190D01*
Y104125D01*
X306048D01*
Y104136D01*
X306038D01*
Y104157D01*
X306048D01*
Y104190D01*
X306038D01*
Y104201D01*
X305896D01*
Y104212D01*
X305875D01*
Y104244D01*
X305885D01*
Y104255D01*
X305875D01*
Y104277D01*
X305864D01*
Y104288D01*
X305733D01*
Y104299D01*
X305723D01*
Y104310D01*
X305744D01*
Y104320D01*
X305755D01*
Y104364D01*
X305723D01*
Y104375D01*
X305603D01*
Y104364D01*
X305592D01*
Y104375D01*
X305581D01*
Y104386D01*
X305592D01*
Y104396D01*
X305603D01*
Y104429D01*
X305614D01*
Y104440D01*
X305603D01*
Y104451D01*
X305560D01*
Y104462D01*
X305473D01*
Y104473D01*
X305462D01*
Y104527D01*
X305451D01*
Y104538D01*
X305342D01*
Y104549D01*
X305299D01*
Y104603D01*
X305288D01*
Y104614D01*
X305223D01*
Y104625D01*
X305147D01*
Y104636D01*
X305136D01*
Y104646D01*
X305147D01*
Y104690D01*
X305114D01*
Y104701D01*
X304984D01*
Y104712D01*
X304973D01*
Y104733D01*
X304984D01*
Y104766D01*
X304973D01*
Y104777D01*
X304853D01*
Y104788D01*
X304821D01*
Y104809D01*
X304832D01*
Y104820D01*
X304842D01*
Y104831D01*
X304832D01*
Y104842D01*
X304821D01*
Y104853D01*
X304810D01*
Y104864D01*
X304669D01*
Y104885D01*
X304680D01*
Y104896D01*
X304690D01*
Y104907D01*
X304680D01*
Y104918D01*
X304669D01*
Y104929D01*
X304658D01*
Y104940D01*
X304571D01*
Y104951D01*
X304549D01*
Y105016D01*
X304538D01*
Y105027D01*
X304451D01*
Y105037D01*
X304397D01*
Y105103D01*
X304375D01*
Y105114D01*
X304277D01*
Y105125D01*
X304245D01*
Y105135D01*
X304234D01*
Y105146D01*
X304245D01*
Y105179D01*
X304234D01*
Y105190D01*
X304136D01*
Y105201D01*
X304082D01*
Y105266D01*
X303984D01*
Y105276D01*
X303930D01*
Y105287D01*
X303919D01*
Y105298D01*
X303930D01*
Y105309D01*
X303941D01*
Y105331D01*
X303930D01*
Y105342D01*
X303897D01*
Y105353D01*
X303767D01*
Y105364D01*
X303756D01*
Y105374D01*
X303767D01*
Y105385D01*
X303778D01*
Y105407D01*
X303767D01*
Y105418D01*
X303745D01*
Y105429D01*
X303658D01*
Y105440D01*
X303604D01*
Y105450D01*
X303615D01*
Y105461D01*
X303626D01*
Y105450D01*
X303637D01*
Y105461D01*
X303647D01*
Y105494D01*
X303604D01*
Y105505D01*
X303571D01*
Y105516D01*
X303495D01*
Y105537D01*
X303506D01*
Y105570D01*
X303495D01*
Y105581D01*
X303484D01*
Y105592D01*
X303474D01*
Y105581D01*
X303365D01*
Y105592D01*
X303321D01*
Y105613D01*
X303332D01*
Y105668D01*
X303311D01*
Y105679D01*
X303213D01*
Y105689D01*
X303180D01*
Y105733D01*
X303191D01*
Y105744D01*
X303180D01*
Y105755D01*
X303169D01*
Y105765D01*
X303028D01*
Y105776D01*
X303006D01*
Y105798D01*
X303017D01*
Y105831D01*
X303006D01*
Y105842D01*
X302920D01*
Y105852D01*
X302865D01*
Y105918D01*
X302757D01*
Y105928D01*
X302702D01*
Y105961D01*
X302713D01*
Y105983D01*
X302702D01*
Y105994D01*
X302691D01*
Y106004D01*
X302594D01*
Y106015D01*
X302561D01*
Y106026D01*
X302572D01*
Y106037D01*
X302594D01*
Y106059D01*
X302583D01*
Y106070D01*
X302528D01*
Y106081D01*
X302431D01*
Y106091D01*
X302409D01*
Y106102D01*
X302420D01*
Y106113D01*
X302431D01*
Y106146D01*
X302409D01*
Y106157D01*
X302398D01*
Y106146D01*
X302387D01*
Y106157D01*
X302355D01*
Y106167D01*
X302278D01*
Y106243D01*
X302137D01*
Y106254D01*
X302105D01*
Y106243D01*
X302094D01*
Y106059D01*
X302105D01*
Y105787D01*
X302116D01*
Y105689D01*
X302105D01*
Y104396D01*
X302116D01*
Y103723D01*
X302126D01*
Y104125D01*
X302137D01*
Y104147D01*
X302126D01*
Y104386D01*
X302137D01*
Y105092D01*
X302148D01*
Y103788D01*
X302159D01*
Y105700D01*
X302148D01*
Y105298D01*
X302137D01*
Y105700D01*
X302126D01*
Y105776D01*
X302137D01*
Y105809D01*
X302148D01*
Y105776D01*
X302159D01*
Y105994D01*
X302170D01*
Y106015D01*
X302181D01*
Y105983D01*
X302192D01*
Y105961D01*
X302181D01*
Y105939D01*
X302192D01*
Y105852D01*
X302181D01*
Y105831D01*
X302192D01*
Y101061D01*
X302181D01*
Y100833D01*
X302170D01*
Y101029D01*
X302159D01*
Y101170D01*
X302148D01*
Y101083D01*
X302137D01*
Y101137D01*
X302126D01*
Y101246D01*
X302116D01*
Y101126D01*
X302105D01*
Y100225D01*
X302116D01*
Y100127D01*
X302126D01*
Y100214D01*
X302137D01*
Y100246D01*
X302148D01*
Y100214D01*
X302159D01*
Y100268D01*
X302170D01*
Y100670D01*
X302181D01*
Y100268D01*
X302192D01*
Y85449D01*
X302181D01*
Y85438D01*
X302192D01*
Y85330D01*
X302181D01*
Y85308D01*
X302192D01*
Y84863D01*
X302181D01*
Y83928D01*
X302192D01*
Y83548D01*
X302202D01*
Y82625D01*
X302192D01*
Y82364D01*
X302181D01*
Y81734D01*
X302192D01*
Y81571D01*
X302202D01*
Y81028D01*
X302192D01*
Y80952D01*
X302202D01*
Y80658D01*
X302192D01*
Y79246D01*
X302181D01*
Y75074D01*
X302192D01*
Y74868D01*
X302202D01*
Y74672D01*
X302192D01*
Y74509D01*
X302181D01*
Y67719D01*
X302192D01*
Y67654D01*
X302181D01*
Y67154D01*
X302192D01*
Y66459D01*
X302181D01*
Y66111D01*
X302192D01*
Y65720D01*
X302181D01*
Y65709D01*
X302192D01*
Y65427D01*
X302181D01*
Y65253D01*
X302192D01*
Y65079D01*
X302202D01*
Y64786D01*
X302192D01*
Y64677D01*
X302202D01*
Y64449D01*
X302192D01*
Y64340D01*
X302181D01*
Y64079D01*
X302192D01*
Y63754D01*
X302202D01*
Y63428D01*
X302192D01*
Y63297D01*
X302105D01*
Y63286D01*
X302094D01*
Y63243D01*
X302083D01*
Y63221D01*
X302061D01*
Y63232D01*
X302029D01*
Y63210D01*
X302018D01*
Y63167D01*
X302029D01*
Y63145D01*
X302018D01*
Y63080D01*
X302007D01*
Y63058D01*
X301974D01*
Y63069D01*
X301953D01*
Y63058D01*
X301942D01*
Y62982D01*
X301931D01*
Y62906D01*
X301866D01*
Y62895D01*
X301855D01*
Y62819D01*
X301790D01*
Y62797D01*
X301779D01*
Y62787D01*
X301790D01*
Y62743D01*
X301779D01*
Y62667D01*
X301768D01*
Y62656D01*
X301757D01*
Y62667D01*
X301714D01*
Y62656D01*
X301703D01*
Y62558D01*
X301692D01*
Y62515D01*
X301670D01*
Y62526D01*
X301637D01*
Y62515D01*
X301627D01*
Y62493D01*
X301616D01*
Y62330D01*
X301583D01*
Y62341D01*
X301572D01*
Y62330D01*
X301551D01*
Y62298D01*
X301540D01*
Y62254D01*
X301529D01*
Y62243D01*
X301518D01*
Y62254D01*
X301453D01*
Y62233D01*
X301442D01*
Y62200D01*
X301453D01*
Y62189D01*
X301442D01*
Y62102D01*
X301431D01*
Y62091D01*
X301366D01*
Y61994D01*
X301355D01*
Y61928D01*
X301333D01*
Y61939D01*
X301322D01*
Y61950D01*
X301312D01*
Y61939D01*
X301301D01*
Y61928D01*
X301290D01*
Y61863D01*
X301279D01*
Y61842D01*
X301268D01*
Y61831D01*
X301257D01*
Y61842D01*
X301214D01*
Y61765D01*
X301203D01*
Y61679D01*
X301138D01*
Y61668D01*
X301127D01*
Y61537D01*
X301116D01*
Y61526D01*
X301062D01*
Y61515D01*
X301051D01*
Y61439D01*
X301040D01*
Y61374D01*
X301007D01*
Y61385D01*
X300997D01*
Y61374D01*
X300975D01*
Y61342D01*
X300964D01*
Y61276D01*
X300877D01*
Y61135D01*
X300866D01*
Y61114D01*
X300855D01*
Y61103D01*
X300834D01*
Y61114D01*
X300812D01*
Y61103D01*
X300801D01*
Y61092D01*
X300790D01*
Y61016D01*
X300779D01*
Y60961D01*
X300758D01*
Y60972D01*
X300747D01*
Y60994D01*
X300736D01*
Y60972D01*
X300725D01*
Y60951D01*
X300714D01*
Y60875D01*
X300703D01*
Y60864D01*
X300638D01*
Y60766D01*
X300627D01*
Y60712D01*
X300616D01*
Y60701D01*
X300605D01*
Y60712D01*
X300562D01*
Y60679D01*
X300551D01*
Y60549D01*
X300540D01*
Y60538D01*
X300529D01*
Y60549D01*
X300518D01*
Y60560D01*
X300497D01*
Y60549D01*
X300486D01*
Y60527D01*
X300475D01*
Y60440D01*
X300464D01*
Y60386D01*
X300410D01*
Y60375D01*
X300399D01*
Y60310D01*
X300388D01*
Y60299D01*
X300323D01*
Y60288D01*
X300312D01*
Y60234D01*
X300323D01*
Y60147D01*
X300312D01*
Y60136D01*
X300236D01*
Y60125D01*
X300225D01*
Y60060D01*
X300236D01*
Y59962D01*
X300149D01*
Y59951D01*
X300138D01*
Y59897D01*
X300127D01*
Y59875D01*
X300106D01*
Y59886D01*
X300073D01*
Y59875D01*
X300062D01*
Y59777D01*
X300051D01*
Y59723D01*
X299986D01*
Y59647D01*
X299975D01*
Y59593D01*
X299964D01*
Y59582D01*
X299943D01*
Y59625D01*
X299921D01*
Y59582D01*
X299910D01*
Y59549D01*
X299899D01*
Y59473D01*
X299888D01*
Y59419D01*
X299867D01*
Y59440D01*
X299877D01*
Y59462D01*
X299867D01*
Y59473D01*
X299834D01*
Y59440D01*
X299845D01*
Y59430D01*
X299834D01*
Y59408D01*
X299823D01*
Y59332D01*
X299812D01*
Y59321D01*
X299747D01*
Y59245D01*
X299736D01*
Y59180D01*
X299747D01*
Y59158D01*
X299736D01*
Y59147D01*
X299671D01*
Y59071D01*
X299660D01*
Y58995D01*
X299639D01*
Y59006D01*
X299584D01*
Y58995D01*
X299573D01*
Y58919D01*
X299562D01*
Y58908D01*
X299497D01*
Y58886D01*
X299486D01*
Y58865D01*
X299497D01*
Y58854D01*
X299486D01*
Y58767D01*
X299476D01*
Y58756D01*
X299465D01*
Y58745D01*
X299454D01*
Y58756D01*
X299421D01*
Y58745D01*
X299410D01*
Y58669D01*
X299400D01*
Y58626D01*
X299389D01*
Y58615D01*
X299378D01*
Y58636D01*
X299367D01*
Y58647D01*
X299345D01*
Y58615D01*
X299334D01*
Y58517D01*
X299324D01*
Y58484D01*
X299313D01*
Y58463D01*
X299302D01*
Y58484D01*
X299258D01*
Y58430D01*
X299247D01*
Y58343D01*
X299182D01*
Y58332D01*
X299171D01*
Y58256D01*
X299160D01*
Y58191D01*
X299106D01*
Y58180D01*
X299095D01*
Y58158D01*
X299084D01*
Y58137D01*
X299095D01*
Y58126D01*
X299084D01*
Y58093D01*
X299030D01*
Y58082D01*
X299019D01*
Y58050D01*
X299008D01*
Y58017D01*
X298997D01*
Y57941D01*
X298987D01*
Y57930D01*
X298932D01*
Y57920D01*
X298922D01*
Y57865D01*
X298911D01*
Y57789D01*
X298900D01*
Y57778D01*
X298846D01*
Y57767D01*
X298835D01*
Y57681D01*
X298824D01*
Y57626D01*
X298813D01*
Y57615D01*
X298802D01*
Y57670D01*
X298769D01*
Y57615D01*
X298759D01*
Y57528D01*
X298748D01*
Y57517D01*
X298682D01*
Y57452D01*
X298672D01*
Y57387D01*
X298661D01*
Y57376D01*
X298617D01*
Y57365D01*
X298606D01*
Y57344D01*
X298596D01*
Y57268D01*
X298585D01*
Y57213D01*
X298596D01*
Y57203D01*
X298585D01*
Y57192D01*
X298530D01*
Y57181D01*
X298519D01*
Y57116D01*
X298509D01*
Y57105D01*
X298487D01*
Y57116D01*
X298454D01*
Y57105D01*
X298444D01*
Y56964D01*
X298433D01*
Y56953D01*
X298367D01*
Y56877D01*
X298357D01*
Y56779D01*
X298291D01*
Y56735D01*
X298281D01*
Y56703D01*
X298248D01*
Y56714D01*
X298237D01*
Y56703D01*
X298226D01*
Y56714D01*
X298194D01*
Y56692D01*
X298183D01*
Y56561D01*
X298172D01*
Y56540D01*
X298150D01*
Y56551D01*
X298118D01*
Y56540D01*
X298107D01*
Y56475D01*
X298096D01*
Y56388D01*
X298041D01*
Y56377D01*
X298031D01*
Y56312D01*
X298020D01*
Y56235D01*
X297955D01*
Y56225D01*
X297944D01*
Y56138D01*
X297878D01*
Y56127D01*
X297868D01*
Y56105D01*
X297878D01*
Y56083D01*
X297868D01*
Y55996D01*
X297857D01*
Y55975D01*
X297835D01*
Y55986D01*
X297803D01*
Y55975D01*
X297792D01*
Y55877D01*
X297781D01*
Y55823D01*
X297716D01*
Y55812D01*
X297705D01*
Y55725D01*
X297629D01*
Y55714D01*
X297618D01*
Y55595D01*
X297607D01*
Y55573D01*
X297542D01*
Y55562D01*
X297531D01*
Y55475D01*
X297520D01*
Y55421D01*
X297487D01*
Y55432D01*
X297477D01*
Y55421D01*
X297466D01*
Y55410D01*
X297455D01*
Y55323D01*
X297444D01*
Y55290D01*
X297433D01*
Y55269D01*
X297444D01*
Y55247D01*
X297411D01*
Y55269D01*
X297422D01*
Y55301D01*
X297411D01*
Y55312D01*
X297390D01*
Y55290D01*
X297379D01*
Y55279D01*
X297390D01*
Y55258D01*
X297400D01*
Y55247D01*
X297379D01*
Y55214D01*
X297368D01*
Y55193D01*
X297379D01*
Y55171D01*
X297368D01*
Y55160D01*
X297303D01*
Y55138D01*
X297292D01*
Y55073D01*
X297227D01*
Y54997D01*
X297216D01*
Y54921D01*
X297140D01*
Y54910D01*
X297129D01*
Y54878D01*
X297140D01*
Y54780D01*
X297129D01*
Y54758D01*
X297053D01*
Y54628D01*
X297042D01*
Y54595D01*
X296977D01*
Y54584D01*
X296966D01*
Y54476D01*
X296955D01*
Y54443D01*
X296944D01*
Y54432D01*
X296922D01*
Y54443D01*
X296901D01*
Y54432D01*
X296890D01*
Y54421D01*
X296879D01*
Y54324D01*
X296868D01*
Y54313D01*
X296879D01*
Y54280D01*
X296868D01*
Y54269D01*
X296846D01*
Y54280D01*
X296814D01*
Y54269D01*
X296803D01*
Y54193D01*
X296792D01*
Y54182D01*
X296727D01*
Y54106D01*
X296716D01*
Y54030D01*
X296705D01*
Y54019D01*
X296684D01*
Y54030D01*
X296662D01*
Y54019D01*
X296651D01*
Y53998D01*
X296640D01*
Y53921D01*
X296629D01*
Y53867D01*
X296575D01*
Y53856D01*
X296564D01*
Y53780D01*
X296553D01*
Y53759D01*
X296542D01*
Y53769D01*
X296499D01*
Y53759D01*
X296488D01*
Y53704D01*
X296477D01*
Y53617D01*
X296412D01*
Y53606D01*
X296401D01*
Y53552D01*
X296390D01*
Y53520D01*
X296379D01*
Y53476D01*
X296368D01*
Y53465D01*
X296325D01*
Y53454D01*
X296314D01*
Y53367D01*
X296303D01*
Y53313D01*
X296314D01*
Y53291D01*
X296303D01*
Y53281D01*
X296227D01*
Y53204D01*
X296206D01*
Y53194D01*
X296195D01*
Y53204D01*
X296162D01*
Y53194D01*
X296151D01*
Y53117D01*
X296140D01*
Y53052D01*
X296075D01*
Y52987D01*
X296064D01*
Y52965D01*
X296053D01*
Y52955D01*
X296042D01*
Y52965D01*
X295999D01*
Y52944D01*
X295988D01*
Y52933D01*
X295999D01*
Y52889D01*
X295988D01*
Y52803D01*
X295923D01*
Y52792D01*
X295912D01*
Y52650D01*
X295901D01*
Y52639D01*
X295869D01*
Y52650D01*
X295858D01*
Y52639D01*
X295836D01*
Y52553D01*
X295825D01*
Y52498D01*
X295836D01*
Y52487D01*
X295825D01*
Y52477D01*
X295760D01*
Y52400D01*
X295749D01*
Y52379D01*
X295727D01*
Y52390D01*
X295673D01*
Y52379D01*
X295662D01*
Y52325D01*
X295673D01*
Y52314D01*
X295684D01*
Y52259D01*
X295673D01*
Y52227D01*
X295641D01*
Y52238D01*
X295630D01*
Y52227D01*
X295619D01*
Y52238D01*
X295586D01*
Y52216D01*
X295575D01*
Y52085D01*
X295564D01*
Y52064D01*
X295543D01*
Y52075D01*
X295510D01*
Y52064D01*
X295499D01*
Y51966D01*
X295488D01*
Y51922D01*
X295499D01*
Y51912D01*
X295488D01*
Y51901D01*
X295423D01*
Y51868D01*
X295412D01*
Y51814D01*
X295380D01*
Y51825D01*
X295358D01*
Y51814D01*
X295347D01*
Y51738D01*
X295336D01*
Y51662D01*
X295260D01*
Y51510D01*
X295249D01*
Y51499D01*
X295195D01*
Y51477D01*
X295184D01*
Y51401D01*
X295173D01*
Y51379D01*
X295152D01*
Y51390D01*
X295141D01*
Y51401D01*
X295130D01*
Y51390D01*
X295108D01*
Y51357D01*
X295130D01*
Y51347D01*
X295141D01*
Y51357D01*
X295152D01*
Y51368D01*
X295173D01*
Y51336D01*
X295108D01*
Y51249D01*
X295086D01*
Y51238D01*
X295076D01*
Y51249D01*
X295043D01*
Y51238D01*
X295032D01*
Y51173D01*
X295021D01*
Y51097D01*
X294934D01*
Y51086D01*
X294923D01*
Y51010D01*
X294913D01*
Y50988D01*
X294902D01*
Y50977D01*
X294913D01*
Y50912D01*
X294891D01*
Y50923D01*
X294880D01*
Y50934D01*
X294891D01*
Y50999D01*
X294858D01*
Y50934D01*
X294869D01*
Y50923D01*
X294858D01*
Y50912D01*
X294847D01*
Y50858D01*
X294837D01*
Y50847D01*
X294826D01*
Y50836D01*
X294815D01*
Y50847D01*
X294782D01*
Y50836D01*
X294771D01*
Y50738D01*
X294760D01*
Y50684D01*
X294728D01*
Y50695D01*
X294706D01*
Y50684D01*
X294695D01*
Y50662D01*
X294685D01*
Y50532D01*
X294674D01*
Y50521D01*
X294652D01*
Y50532D01*
X294619D01*
Y50521D01*
X294608D01*
Y50423D01*
X294597D01*
Y50380D01*
X294576D01*
Y50412D01*
X294543D01*
Y50380D01*
X294532D01*
Y50369D01*
X294522D01*
Y50336D01*
X294511D01*
Y50282D01*
X294445D01*
Y50271D01*
X294435D01*
Y50206D01*
X294424D01*
Y50173D01*
X294413D01*
Y50141D01*
X294369D01*
Y50130D01*
X294359D01*
Y50054D01*
X294348D01*
Y50021D01*
X294359D01*
Y50010D01*
X294369D01*
Y49978D01*
X294359D01*
Y49967D01*
X294348D01*
Y49978D01*
X294337D01*
Y49999D01*
X294326D01*
Y49989D01*
X294315D01*
Y49999D01*
X294304D01*
Y50010D01*
X294293D01*
Y49999D01*
X294282D01*
Y49956D01*
X294272D01*
Y49880D01*
X294261D01*
Y49858D01*
X294239D01*
Y49869D01*
X294206D01*
Y49858D01*
X294185D01*
Y49804D01*
X294174D01*
Y49793D01*
X294163D01*
Y49771D01*
X294152D01*
Y49739D01*
X294163D01*
Y49717D01*
X294109D01*
Y49750D01*
X294119D01*
Y49760D01*
X294109D01*
Y49782D01*
X294098D01*
Y49804D01*
X294087D01*
Y49847D01*
X294076D01*
Y49891D01*
X294065D01*
Y49978D01*
X294076D01*
Y50076D01*
X294087D01*
Y50554D01*
X294076D01*
Y50651D01*
X294087D01*
Y73781D01*
X294076D01*
Y73879D01*
X294065D01*
Y73955D01*
X294054D01*
Y74009D01*
X294044D01*
Y74324D01*
X294054D01*
Y74618D01*
X294044D01*
Y74661D01*
X294054D01*
Y74715D01*
X294044D01*
Y97791D01*
Y97802D01*
Y124235D01*
X294033D01*
Y124321D01*
X294261D01*
Y124332D01*
X295260D01*
Y124321D01*
X296151D01*
Y124332D01*
X296249D01*
Y124321D01*
D02*
G37*
G36*
X293870D02*
X293881D01*
Y121182D01*
X293891D01*
Y121117D01*
X293881D01*
Y113023D01*
X293891D01*
Y112729D01*
X293881D01*
Y112382D01*
X293891D01*
Y111839D01*
X293881D01*
Y100811D01*
X293891D01*
Y100246D01*
X293881D01*
Y100094D01*
X293891D01*
Y99866D01*
X293881D01*
Y99736D01*
X293891D01*
Y99377D01*
X293881D01*
Y98606D01*
X293891D01*
Y98562D01*
X293881D01*
Y98432D01*
X293891D01*
Y97911D01*
X293881D01*
Y97704D01*
X293891D01*
Y97672D01*
X293881D01*
Y97454D01*
X293891D01*
Y97346D01*
X293881D01*
Y96564D01*
X293891D01*
Y96455D01*
X293881D01*
Y96227D01*
X293891D01*
Y95879D01*
X293881D01*
Y95662D01*
X293891D01*
Y95553D01*
X293881D01*
Y86699D01*
X293891D01*
Y86427D01*
X293881D01*
Y86297D01*
X293891D01*
Y86253D01*
X293881D01*
Y86134D01*
X293891D01*
Y85906D01*
X293881D01*
Y85819D01*
X293891D01*
Y85525D01*
X293881D01*
Y85406D01*
X293891D01*
Y83657D01*
X293881D01*
Y83526D01*
X293891D01*
Y82744D01*
X293881D01*
Y82646D01*
X293891D01*
Y82092D01*
X293881D01*
Y81908D01*
X293891D01*
Y81039D01*
X293881D01*
Y80930D01*
X293891D01*
Y80224D01*
X293881D01*
Y80039D01*
X293891D01*
Y79974D01*
X293881D01*
Y76584D01*
X293870D01*
Y76562D01*
X293881D01*
Y76465D01*
X293870D01*
Y74531D01*
X293859D01*
Y74368D01*
X293870D01*
Y74237D01*
X293881D01*
Y74020D01*
X293870D01*
Y73966D01*
X293859D01*
Y73857D01*
X293848D01*
Y50782D01*
X293859D01*
Y50423D01*
X293848D01*
Y50152D01*
X293859D01*
Y49793D01*
X293848D01*
Y49782D01*
X293826D01*
Y49771D01*
X293815D01*
Y49717D01*
X293804D01*
Y49706D01*
X293772D01*
Y49717D01*
X293761D01*
Y49728D01*
X293750D01*
Y49739D01*
X293761D01*
Y49771D01*
X293739D01*
Y49782D01*
X293728D01*
Y49793D01*
X293717D01*
Y49804D01*
X293707D01*
Y49815D01*
X293696D01*
Y49804D01*
X293652D01*
Y49793D01*
X293641D01*
Y49804D01*
X293631D01*
Y49858D01*
X293641D01*
Y49945D01*
X293587D01*
Y49956D01*
X293576D01*
Y49967D01*
X293566D01*
Y50054D01*
X293555D01*
Y50097D01*
X293544D01*
Y50108D01*
X293489D01*
Y50119D01*
X293479D01*
Y50206D01*
X293468D01*
Y50217D01*
X293457D01*
Y50228D01*
X293446D01*
Y50238D01*
X293435D01*
Y50249D01*
X293424D01*
Y50260D01*
X293413D01*
Y50271D01*
X293403D01*
Y50336D01*
X293392D01*
Y50358D01*
X293381D01*
Y50369D01*
X293337D01*
Y50380D01*
X293326D01*
Y50434D01*
X293316D01*
Y50510D01*
X293305D01*
Y50521D01*
X293239D01*
Y50586D01*
X293229D01*
Y50651D01*
X293218D01*
Y50662D01*
X293207D01*
Y50673D01*
X293196D01*
Y50662D01*
X293185D01*
Y50651D01*
X293174D01*
Y50662D01*
X293164D01*
Y50684D01*
X293153D01*
Y50771D01*
X293142D01*
Y50782D01*
X293109D01*
Y50771D01*
X293087D01*
Y50803D01*
X293077D01*
Y50923D01*
X293066D01*
Y50934D01*
X292990D01*
Y51075D01*
X292979D01*
Y51086D01*
X292914D01*
Y51162D01*
X292903D01*
Y51184D01*
X292892D01*
Y51195D01*
X292870D01*
Y51205D01*
X292848D01*
Y51195D01*
X292838D01*
Y51205D01*
X292827D01*
Y51271D01*
X292816D01*
Y51347D01*
X292794D01*
Y51357D01*
X292761D01*
Y51390D01*
X292751D01*
Y51423D01*
X292740D01*
Y51488D01*
X292729D01*
Y51499D01*
X292675D01*
Y51510D01*
X292664D01*
Y51586D01*
X292653D01*
Y51640D01*
X292642D01*
Y51651D01*
X292609D01*
Y51640D01*
X292598D01*
Y51651D01*
X292588D01*
Y51684D01*
X292577D01*
Y51749D01*
X292566D01*
Y51760D01*
X292533D01*
Y51749D01*
X292523D01*
Y51760D01*
X292512D01*
Y51825D01*
X292501D01*
Y51901D01*
X292490D01*
Y51912D01*
X292436D01*
Y51955D01*
X292425D01*
Y52031D01*
X292414D01*
Y52064D01*
X292381D01*
Y52053D01*
X292370D01*
Y52064D01*
X292349D01*
Y52140D01*
X292338D01*
Y52172D01*
X292327D01*
Y52183D01*
X292316D01*
Y52194D01*
X292305D01*
Y52183D01*
X292294D01*
Y52205D01*
X292283D01*
Y52227D01*
X292273D01*
Y52238D01*
X292262D01*
Y52303D01*
X292251D01*
Y52314D01*
X292240D01*
Y52325D01*
X292197D01*
Y52335D01*
X292186D01*
Y52390D01*
X292175D01*
Y52455D01*
X292164D01*
Y52466D01*
X292153D01*
Y52477D01*
X292120D01*
Y52487D01*
X292110D01*
Y52498D01*
X292099D01*
Y52553D01*
X292088D01*
Y52596D01*
X292077D01*
Y52618D01*
X292066D01*
Y52629D01*
X292034D01*
Y52639D01*
X292023D01*
Y52672D01*
X292012D01*
Y52726D01*
X292001D01*
Y52737D01*
X291957D01*
Y52748D01*
X291947D01*
Y52792D01*
X291936D01*
Y52868D01*
X291925D01*
Y52889D01*
X291903D01*
Y52900D01*
X291871D01*
Y52911D01*
X291860D01*
Y52976D01*
X291849D01*
Y53031D01*
X291838D01*
Y53042D01*
X291784D01*
Y53063D01*
X291773D01*
Y53139D01*
X291762D01*
Y53161D01*
X291751D01*
Y53172D01*
X291729D01*
Y53161D01*
X291719D01*
Y53172D01*
X291708D01*
Y53204D01*
X291697D01*
Y53248D01*
X291686D01*
Y53291D01*
X291675D01*
Y53302D01*
X291632D01*
Y53313D01*
X291621D01*
Y53356D01*
X291610D01*
Y53411D01*
X291599D01*
Y53443D01*
X291588D01*
Y53454D01*
X291534D01*
Y53487D01*
X291523D01*
Y53606D01*
X291512D01*
Y53617D01*
X291447D01*
Y53628D01*
X291436D01*
Y53759D01*
X291425D01*
Y53769D01*
X291382D01*
Y53780D01*
X291371D01*
Y53791D01*
X291360D01*
Y53856D01*
X291349D01*
Y53867D01*
X291338D01*
Y53878D01*
X291317D01*
Y53867D01*
X291295D01*
Y53878D01*
X291284D01*
Y53954D01*
X291273D01*
Y54019D01*
X291208D01*
Y54063D01*
X291197D01*
Y54117D01*
X291186D01*
Y54128D01*
X291154D01*
Y54117D01*
X291143D01*
Y54128D01*
X291132D01*
Y54182D01*
X291121D01*
Y54269D01*
X291110D01*
Y54280D01*
X291056D01*
Y54291D01*
X291045D01*
Y54367D01*
X291034D01*
Y54421D01*
X290980D01*
Y54432D01*
X290958D01*
Y54497D01*
X290947D01*
Y54530D01*
X290936D01*
Y54563D01*
X290926D01*
Y54573D01*
X290882D01*
Y54595D01*
X290871D01*
Y54671D01*
X290860D01*
Y54682D01*
X290839D01*
Y54693D01*
X290795D01*
Y54769D01*
X290784D01*
Y54834D01*
X290773D01*
Y54845D01*
X290719D01*
Y54856D01*
X290708D01*
Y54943D01*
X290697D01*
Y54986D01*
X290686D01*
Y54997D01*
X290665D01*
Y54986D01*
X290643D01*
Y54997D01*
X290632D01*
Y55062D01*
X290621D01*
Y55095D01*
X290599D01*
Y55106D01*
X290589D01*
Y55095D01*
X290567D01*
Y55106D01*
X290556D01*
Y55171D01*
X290545D01*
Y55236D01*
X290534D01*
Y55247D01*
X290502D01*
Y55236D01*
X290480D01*
Y55258D01*
X290469D01*
Y55377D01*
X290458D01*
Y55410D01*
X290426D01*
Y55399D01*
X290404D01*
Y55410D01*
X290393D01*
Y55475D01*
X290382D01*
Y55508D01*
X290361D01*
Y55518D01*
X290350D01*
Y55508D01*
X290328D01*
Y55518D01*
X290317D01*
Y55540D01*
X290306D01*
Y55595D01*
X290295D01*
Y55605D01*
X290306D01*
Y55638D01*
X290295D01*
Y55649D01*
X290285D01*
Y55660D01*
X290230D01*
Y55714D01*
X290219D01*
Y55757D01*
X290208D01*
Y55801D01*
X290198D01*
Y55812D01*
X290143D01*
Y55877D01*
X290132D01*
Y55931D01*
X290121D01*
Y55964D01*
X290089D01*
Y55953D01*
X290067D01*
Y55975D01*
X290056D01*
Y56062D01*
X290045D01*
Y56073D01*
X290035D01*
Y56083D01*
X290013D01*
Y56073D01*
X289991D01*
Y56094D01*
X289980D01*
Y56170D01*
X289969D01*
Y56225D01*
X289904D01*
Y56301D01*
X289893D01*
Y56366D01*
X289883D01*
Y56377D01*
X289872D01*
Y56388D01*
X289861D01*
Y56377D01*
X289828D01*
Y56399D01*
X289817D01*
Y56485D01*
X289806D01*
Y56529D01*
X289752D01*
Y56518D01*
X289741D01*
Y56507D01*
X289720D01*
Y56518D01*
X289730D01*
Y56540D01*
X289741D01*
Y56594D01*
X289730D01*
Y56638D01*
X289720D01*
Y56648D01*
X289698D01*
Y56638D01*
X289687D01*
Y56648D01*
X289665D01*
Y56638D01*
X289654D01*
Y56648D01*
X289643D01*
Y56790D01*
X289633D01*
Y56800D01*
X289578D01*
Y56811D01*
X289567D01*
Y56877D01*
X289557D01*
Y56931D01*
X289546D01*
Y56942D01*
X289513D01*
Y56953D01*
X289491D01*
Y56996D01*
X289480D01*
Y57039D01*
X289470D01*
Y57050D01*
X289459D01*
Y57061D01*
X289415D01*
Y57116D01*
X289405D01*
Y57181D01*
X289394D01*
Y57203D01*
X289328D01*
Y57289D01*
X289317D01*
Y57344D01*
X289307D01*
Y57355D01*
X289285D01*
Y57344D01*
X289274D01*
Y57333D01*
X289263D01*
Y57344D01*
X289252D01*
Y57376D01*
X289242D01*
Y57463D01*
X289231D01*
Y57474D01*
X289220D01*
Y57485D01*
X289209D01*
Y57474D01*
X289198D01*
Y57463D01*
X289176D01*
Y57528D01*
X289165D01*
Y57604D01*
X289155D01*
Y57615D01*
X289100D01*
Y57626D01*
X289089D01*
Y57691D01*
X289079D01*
Y57757D01*
X289002D01*
Y57854D01*
X288992D01*
Y57887D01*
X288981D01*
Y57909D01*
X288948D01*
Y57920D01*
X288926D01*
Y57941D01*
X288916D01*
Y58017D01*
X288905D01*
Y58028D01*
X288883D01*
Y58039D01*
X288850D01*
Y58072D01*
X288839D01*
Y58104D01*
X288829D01*
Y58169D01*
X288818D01*
Y58180D01*
X288764D01*
Y58191D01*
X288753D01*
Y58278D01*
X288742D01*
Y58332D01*
X288687D01*
Y58343D01*
X288677D01*
Y58408D01*
X288666D01*
Y58441D01*
X288655D01*
Y58452D01*
X288644D01*
Y58463D01*
X288633D01*
Y58452D01*
X288611D01*
Y58484D01*
X288601D01*
Y58517D01*
X288590D01*
Y58582D01*
X288579D01*
Y58593D01*
X288546D01*
Y58582D01*
X288535D01*
Y58593D01*
X288524D01*
Y58615D01*
X288514D01*
Y58680D01*
X288503D01*
Y58745D01*
X288438D01*
Y58821D01*
X288427D01*
Y58854D01*
X288416D01*
Y58897D01*
X288361D01*
Y58908D01*
X288351D01*
Y58973D01*
X288340D01*
Y58995D01*
X288329D01*
Y59006D01*
X288275D01*
Y59049D01*
X288264D01*
Y59104D01*
X288253D01*
Y59147D01*
X288188D01*
Y59158D01*
X288177D01*
Y59234D01*
X288166D01*
Y59278D01*
X288155D01*
Y59299D01*
X288133D01*
Y59267D01*
X288123D01*
Y59256D01*
X288112D01*
Y59299D01*
X288101D01*
Y59408D01*
X288090D01*
Y59419D01*
X288079D01*
Y59430D01*
X288057D01*
Y59419D01*
X288036D01*
Y59440D01*
X288025D01*
Y59495D01*
X288014D01*
Y59560D01*
X288003D01*
Y59571D01*
X287970D01*
Y59560D01*
X287959D01*
Y59571D01*
X287949D01*
Y59625D01*
X287938D01*
Y59658D01*
X287927D01*
Y59712D01*
X287894D01*
Y59690D01*
X287873D01*
Y59723D01*
X287862D01*
Y59821D01*
X287851D01*
Y59853D01*
X287840D01*
Y59864D01*
X287829D01*
Y59853D01*
X287818D01*
Y59843D01*
X287797D01*
Y59853D01*
X287786D01*
Y59897D01*
X287775D01*
Y59973D01*
X287764D01*
Y59984D01*
X287710D01*
Y60005D01*
X287699D01*
Y60071D01*
X287688D01*
Y60125D01*
X287677D01*
Y60136D01*
X287612D01*
Y60212D01*
X287601D01*
Y60223D01*
X287590D01*
Y60234D01*
X287568D01*
Y60244D01*
X287558D01*
Y60234D01*
X287547D01*
Y60266D01*
X287536D01*
Y60299D01*
X287525D01*
Y60375D01*
X287514D01*
Y60386D01*
X287503D01*
Y60397D01*
X287481D01*
Y60386D01*
X287460D01*
Y60418D01*
X287449D01*
Y60527D01*
X287438D01*
Y60538D01*
X287427D01*
Y60549D01*
X287405D01*
Y60538D01*
X287373D01*
Y60592D01*
X287362D01*
Y60614D01*
X287351D01*
Y60625D01*
X287329D01*
Y60614D01*
X287297D01*
Y60712D01*
X287286D01*
Y60799D01*
X287275D01*
Y60820D01*
X287264D01*
Y60842D01*
X287253D01*
Y60809D01*
X287243D01*
Y60799D01*
X287221D01*
Y60853D01*
X287210D01*
Y60940D01*
X287199D01*
Y60961D01*
X287145D01*
Y60972D01*
X287134D01*
Y61038D01*
X287123D01*
Y61103D01*
X287047D01*
Y61114D01*
X287036D01*
Y61179D01*
X287025D01*
Y61200D01*
X287003D01*
Y61211D01*
X286993D01*
Y61200D01*
X286960D01*
Y61255D01*
X286949D01*
Y61276D01*
X286960D01*
Y61353D01*
X286949D01*
Y61364D01*
X286938D01*
Y61374D01*
X286884D01*
Y61439D01*
X286873D01*
Y61515D01*
X286840D01*
Y61526D01*
X286830D01*
Y61515D01*
X286808D01*
Y61526D01*
X286797D01*
Y61613D01*
X286786D01*
Y61668D01*
X286743D01*
Y61657D01*
X286732D01*
Y61679D01*
X286721D01*
Y61744D01*
X286710D01*
Y61776D01*
X286699D01*
Y61798D01*
X286677D01*
Y61787D01*
X286667D01*
Y61776D01*
X286656D01*
Y61787D01*
X286645D01*
Y61852D01*
X286634D01*
Y61928D01*
X286623D01*
Y61939D01*
X286602D01*
Y61928D01*
X286569D01*
Y61950D01*
X286558D01*
Y62037D01*
X286547D01*
Y62048D01*
X286558D01*
Y62070D01*
X286547D01*
Y62091D01*
X286482D01*
Y62167D01*
X286471D01*
Y62189D01*
X286460D01*
Y62200D01*
X286449D01*
Y62211D01*
X286439D01*
Y62200D01*
X286417D01*
Y62222D01*
X286406D01*
Y62243D01*
X286395D01*
Y62276D01*
X286384D01*
Y62330D01*
X286373D01*
Y62341D01*
X286362D01*
Y62352D01*
X286330D01*
Y62363D01*
X286319D01*
Y62406D01*
X286308D01*
Y62461D01*
X286297D01*
Y62493D01*
X286276D01*
Y62504D01*
X286254D01*
Y62493D01*
X286232D01*
Y62515D01*
X286221D01*
Y62591D01*
X286210D01*
Y62645D01*
X286178D01*
Y62613D01*
X286167D01*
Y62602D01*
X286156D01*
Y62645D01*
X286145D01*
Y62743D01*
X286134D01*
Y62765D01*
X286124D01*
Y62776D01*
X286102D01*
Y62765D01*
X286091D01*
Y62754D01*
X286080D01*
Y62765D01*
X286069D01*
Y62819D01*
X286058D01*
Y62906D01*
X285993D01*
Y62939D01*
X285982D01*
Y62982D01*
X285971D01*
Y63058D01*
X285939D01*
Y63047D01*
X285917D01*
Y63069D01*
X285906D01*
Y63156D01*
X285895D01*
Y63167D01*
X285884D01*
Y63178D01*
X285863D01*
Y63167D01*
X285852D01*
Y63178D01*
X285841D01*
Y63167D01*
X285808D01*
Y63221D01*
X285819D01*
Y63308D01*
X285808D01*
Y63319D01*
X285732D01*
Y63341D01*
X285721D01*
Y63406D01*
X285711D01*
Y63428D01*
X285721D01*
Y63471D01*
X285711D01*
Y63482D01*
X285678D01*
Y63460D01*
X285656D01*
Y63525D01*
X285645D01*
Y71163D01*
X285656D01*
Y106254D01*
X285645D01*
Y110187D01*
X285656D01*
Y110252D01*
X285645D01*
Y110785D01*
X285656D01*
Y110806D01*
X285645D01*
Y111165D01*
X285656D01*
Y111589D01*
X285645D01*
Y112251D01*
X285656D01*
Y112588D01*
X285645D01*
Y114033D01*
X285656D01*
Y114163D01*
X285645D01*
Y114229D01*
X285635D01*
Y114240D01*
X285602D01*
Y114229D01*
X285580D01*
Y114250D01*
X285569D01*
Y114381D01*
X285558D01*
Y114392D01*
X280105D01*
Y114381D01*
X280094D01*
Y114359D01*
X280105D01*
Y114326D01*
X280116D01*
Y114305D01*
X280126D01*
Y114294D01*
X280116D01*
Y114131D01*
X280105D01*
Y113523D01*
X280116D01*
Y113349D01*
X280105D01*
Y109112D01*
X280116D01*
Y108405D01*
X280105D01*
Y108351D01*
X280116D01*
Y108199D01*
X280105D01*
Y107754D01*
X280116D01*
Y107656D01*
X280105D01*
Y107515D01*
X280116D01*
Y106852D01*
X280105D01*
Y97791D01*
X280116D01*
Y97259D01*
X280105D01*
Y97139D01*
X280116D01*
Y96835D01*
X280105D01*
Y96737D01*
X280116D01*
Y96607D01*
X280105D01*
Y96085D01*
X280116D01*
Y95097D01*
X280105D01*
Y94945D01*
X280116D01*
Y91772D01*
X280105D01*
Y91403D01*
X280116D01*
Y91273D01*
X280105D01*
Y91196D01*
X280116D01*
Y82005D01*
X280105D01*
Y78398D01*
X280116D01*
Y78181D01*
X280105D01*
Y77910D01*
X280116D01*
Y74759D01*
X280105D01*
Y74390D01*
X280116D01*
Y73597D01*
X280105D01*
Y73412D01*
X280050D01*
Y73401D01*
X280029D01*
Y73325D01*
X279996D01*
Y73336D01*
X279985D01*
Y73325D01*
X279909D01*
Y73336D01*
X279898D01*
Y73325D01*
X279866D01*
Y73488D01*
X279822D01*
Y73499D01*
X279800D01*
Y73564D01*
X279790D01*
Y73597D01*
X279779D01*
Y73618D01*
X279768D01*
Y73629D01*
X279757D01*
Y73640D01*
X279746D01*
Y73651D01*
X279735D01*
Y73662D01*
X279725D01*
Y73684D01*
X279714D01*
Y73738D01*
X279703D01*
Y73759D01*
X279692D01*
Y73770D01*
X279638D01*
Y73825D01*
X279627D01*
Y73901D01*
X279616D01*
Y73912D01*
X279562D01*
Y73923D01*
X279551D01*
Y73998D01*
X279540D01*
Y74053D01*
X279529D01*
Y74064D01*
X279496D01*
Y74053D01*
X279485D01*
Y74064D01*
X279475D01*
Y74107D01*
X279464D01*
Y74162D01*
X279453D01*
Y74172D01*
X279420D01*
Y74162D01*
X279398D01*
Y74205D01*
X279388D01*
Y74314D01*
X279377D01*
Y74324D01*
X279322D01*
Y74335D01*
X279312D01*
Y74411D01*
X279301D01*
Y74477D01*
X279236D01*
Y74487D01*
X279225D01*
Y74553D01*
X279214D01*
Y74574D01*
X279203D01*
Y74607D01*
X279181D01*
Y74618D01*
X279170D01*
Y74607D01*
X279160D01*
Y74585D01*
X279138D01*
Y74715D01*
X279127D01*
Y74737D01*
X279116D01*
Y74748D01*
X279083D01*
Y74737D01*
X279062D01*
Y74759D01*
X279051D01*
Y74879D01*
X279040D01*
Y74889D01*
X278986D01*
Y74900D01*
X278975D01*
Y74976D01*
X278964D01*
Y75041D01*
X278920D01*
Y75031D01*
X278910D01*
Y75041D01*
X278899D01*
Y75128D01*
X278888D01*
Y75161D01*
X278877D01*
Y75194D01*
X278855D01*
Y75183D01*
X278845D01*
Y75150D01*
X278834D01*
Y75172D01*
X278823D01*
Y75215D01*
X278812D01*
Y75356D01*
X278801D01*
Y75367D01*
X278768D01*
Y75356D01*
X278747D01*
Y75378D01*
X278736D01*
Y75444D01*
X278714D01*
Y75454D01*
X278703D01*
Y75444D01*
X278638D01*
Y75519D01*
X278649D01*
Y75617D01*
X278605D01*
Y75628D01*
X278595D01*
Y75617D01*
X278562D01*
Y75639D01*
X278551D01*
Y75704D01*
X278562D01*
Y75780D01*
X278486D01*
Y75791D01*
X278475D01*
Y75856D01*
X278464D01*
Y75867D01*
X278399D01*
Y76019D01*
X278388D01*
Y76030D01*
X278334D01*
Y76041D01*
X278323D01*
Y76095D01*
X278312D01*
Y76150D01*
X278301D01*
Y76171D01*
X278279D01*
Y76150D01*
X278269D01*
Y76117D01*
X278258D01*
Y76150D01*
X278247D01*
Y76204D01*
X278236D01*
Y76258D01*
X278225D01*
Y76269D01*
X278171D01*
Y76334D01*
X278160D01*
Y76432D01*
X278095D01*
Y76443D01*
X278084D01*
Y76508D01*
X278073D01*
Y76519D01*
X277986D01*
Y76584D01*
X277997D01*
Y76595D01*
X278008D01*
Y76617D01*
X277997D01*
Y76682D01*
X277986D01*
Y76693D01*
X277932D01*
Y76715D01*
X277921D01*
Y76769D01*
X277910D01*
Y76834D01*
X277899D01*
Y76845D01*
X277856D01*
Y76856D01*
X277845D01*
Y76910D01*
X277834D01*
Y76932D01*
X277823D01*
Y76986D01*
X277812D01*
Y76997D01*
X277780D01*
Y76986D01*
X277758D01*
Y77008D01*
X277747D01*
Y77084D01*
X277736D01*
Y77095D01*
X277682D01*
Y77138D01*
X277671D01*
Y77236D01*
X277660D01*
Y77258D01*
X277606D01*
Y77269D01*
X277595D01*
Y77334D01*
X277584D01*
Y77399D01*
X277573D01*
Y77410D01*
X277541D01*
Y77399D01*
X277530D01*
Y77410D01*
X277519D01*
Y77464D01*
X277508D01*
Y77508D01*
X277497D01*
Y77529D01*
X277486D01*
Y77540D01*
X277476D01*
Y77529D01*
X277465D01*
Y77508D01*
X277443D01*
Y77551D01*
X277432D01*
Y77649D01*
X277421D01*
Y77671D01*
X277389D01*
Y77660D01*
X277367D01*
Y77681D01*
X277356D01*
Y77747D01*
X277345D01*
Y77812D01*
X277291D01*
Y77823D01*
X277269D01*
Y77888D01*
X277258D01*
Y77920D01*
X277247D01*
Y77953D01*
X277226D01*
Y77964D01*
X277204D01*
Y77931D01*
X277182D01*
Y78062D01*
X277171D01*
Y78073D01*
X277160D01*
Y78084D01*
X277117D01*
Y78105D01*
X277106D01*
Y78149D01*
X277095D01*
Y78225D01*
X277085D01*
Y78236D01*
X277030D01*
Y78279D01*
X277019D01*
Y78333D01*
X277008D01*
Y78377D01*
X276998D01*
Y78388D01*
X276976D01*
Y78377D01*
X276954D01*
Y78388D01*
X276943D01*
Y78453D01*
X276932D01*
Y78485D01*
X276922D01*
Y78496D01*
X276911D01*
Y78507D01*
X276900D01*
Y78496D01*
X276889D01*
Y78485D01*
X276878D01*
Y78496D01*
X276867D01*
Y78551D01*
X276856D01*
Y78637D01*
X276845D01*
Y78648D01*
X276813D01*
Y78637D01*
X276802D01*
Y78648D01*
X276791D01*
Y78692D01*
X276780D01*
Y78768D01*
X276769D01*
Y78790D01*
X276704D01*
Y78877D01*
X276693D01*
Y78909D01*
X276682D01*
Y78942D01*
X276639D01*
Y78953D01*
X276628D01*
Y78963D01*
X276617D01*
Y79029D01*
X276606D01*
Y79040D01*
X276596D01*
Y79050D01*
X276541D01*
Y79116D01*
X276530D01*
Y79159D01*
X276520D01*
Y79192D01*
X276509D01*
Y79202D01*
X276476D01*
Y79192D01*
X276454D01*
Y79235D01*
X276444D01*
Y79322D01*
X276433D01*
Y79355D01*
X276378D01*
Y79376D01*
X276367D01*
Y79452D01*
X276357D01*
Y79474D01*
X276346D01*
Y79485D01*
X276335D01*
Y79496D01*
X276324D01*
Y79485D01*
X276302D01*
Y79517D01*
X276291D01*
Y79550D01*
X276280D01*
Y79615D01*
X276226D01*
Y79626D01*
X276215D01*
Y79691D01*
X276204D01*
Y79767D01*
X276183D01*
Y79778D01*
X276172D01*
Y79767D01*
X276139D01*
Y79778D01*
X276128D01*
Y79865D01*
X276117D01*
Y79909D01*
X276107D01*
Y79920D01*
X276096D01*
Y79909D01*
X276063D01*
Y79898D01*
X276052D01*
Y79876D01*
X276042D01*
Y79898D01*
X276031D01*
Y79909D01*
X276042D01*
Y79930D01*
X276052D01*
Y79952D01*
X276042D01*
Y80017D01*
X276031D01*
Y80028D01*
X275987D01*
Y80039D01*
X275976D01*
Y80093D01*
X275965D01*
Y80126D01*
X275955D01*
Y80169D01*
X275944D01*
Y80180D01*
X275889D01*
Y80245D01*
X275879D01*
Y80289D01*
X275868D01*
Y80332D01*
X275846D01*
Y80343D01*
X275802D01*
Y80365D01*
X275792D01*
Y80430D01*
X275781D01*
Y80441D01*
X275737D01*
Y80463D01*
X275726D01*
Y80506D01*
X275716D01*
Y80571D01*
X275705D01*
Y80593D01*
X275650D01*
Y80604D01*
X275639D01*
Y80680D01*
X275629D01*
Y80734D01*
X275618D01*
Y80745D01*
X275564D01*
Y80800D01*
X275553D01*
Y80854D01*
X275542D01*
Y80886D01*
X275531D01*
Y80897D01*
X275520D01*
Y80886D01*
X275509D01*
Y80865D01*
X275498D01*
Y80897D01*
X275487D01*
Y80919D01*
X275477D01*
Y80995D01*
X275466D01*
Y81006D01*
X275411D01*
Y81017D01*
X275401D01*
Y81082D01*
X275390D01*
Y81147D01*
X275379D01*
Y81158D01*
X275357D01*
Y81147D01*
X275346D01*
Y81158D01*
X275314D01*
Y81245D01*
X275303D01*
Y81278D01*
X275292D01*
Y81299D01*
X275238D01*
Y81321D01*
X275227D01*
Y81408D01*
X275216D01*
Y81419D01*
X275205D01*
Y81430D01*
X275183D01*
Y81440D01*
X275161D01*
Y81462D01*
X275151D01*
Y81495D01*
X275140D01*
Y81560D01*
X275129D01*
Y81571D01*
X275075D01*
Y81593D01*
X275064D01*
Y81603D01*
X275075D01*
Y81614D01*
X275064D01*
Y81679D01*
X275053D01*
Y81723D01*
X275009D01*
Y81712D01*
X274998D01*
Y81723D01*
X274988D01*
Y81799D01*
X274977D01*
Y81832D01*
X274966D01*
Y81864D01*
X274933D01*
Y81853D01*
X274923D01*
Y81875D01*
X274912D01*
Y81908D01*
X274901D01*
Y81973D01*
X274890D01*
Y81984D01*
X274836D01*
Y81995D01*
Y82005D01*
Y82027D01*
X274825D01*
Y82092D01*
X274814D01*
Y82136D01*
X274749D01*
Y82223D01*
X274738D01*
Y82244D01*
X274727D01*
Y82288D01*
X274673D01*
Y82255D01*
X274662D01*
Y82266D01*
X274651D01*
Y82310D01*
X274662D01*
Y82364D01*
X274651D01*
Y82386D01*
X274640D01*
Y82397D01*
X274597D01*
Y82407D01*
X274586D01*
Y82451D01*
X274575D01*
Y82516D01*
X274564D01*
Y82538D01*
X274553D01*
Y82549D01*
X274510D01*
Y82559D01*
X274499D01*
Y82614D01*
X274488D01*
Y82668D01*
X274477D01*
Y82690D01*
X274466D01*
Y82701D01*
X274445D01*
Y82690D01*
X274423D01*
Y82701D01*
X274412D01*
Y82788D01*
X274401D01*
Y82809D01*
X274390D01*
Y82820D01*
X274379D01*
Y82831D01*
X274368D01*
Y82820D01*
X274357D01*
Y82809D01*
X274347D01*
Y82853D01*
X274336D01*
Y82896D01*
X274325D01*
Y82951D01*
X274314D01*
Y82962D01*
X274260D01*
Y83027D01*
X274249D01*
Y83092D01*
X274238D01*
Y83103D01*
X274227D01*
Y83114D01*
X274216D01*
Y83103D01*
X274184D01*
Y83124D01*
X274173D01*
Y83201D01*
X274162D01*
Y83255D01*
X274108D01*
Y83244D01*
X274097D01*
Y83222D01*
X274086D01*
Y83233D01*
X274075D01*
Y83244D01*
X274086D01*
Y83266D01*
X274097D01*
Y83298D01*
X274086D01*
Y83364D01*
X274075D01*
Y83374D01*
X274032D01*
Y83385D01*
X274021D01*
Y83429D01*
X274010D01*
Y83472D01*
X273999D01*
Y83516D01*
X273988D01*
Y83526D01*
X273934D01*
Y83548D01*
X273923D01*
Y83613D01*
X273912D01*
Y83668D01*
X273901D01*
Y83679D01*
X273869D01*
Y83668D01*
X273847D01*
Y83679D01*
X273836D01*
Y83765D01*
X273825D01*
Y83831D01*
X273771D01*
Y83841D01*
X273760D01*
Y83918D01*
X273749D01*
Y83939D01*
X273695D01*
Y83950D01*
X273684D01*
Y84015D01*
X273673D01*
Y84080D01*
X273662D01*
Y84091D01*
X273608D01*
Y84157D01*
X273597D01*
Y84189D01*
X273586D01*
Y84233D01*
X273575D01*
Y84243D01*
X273564D01*
Y84233D01*
X273554D01*
Y84200D01*
X273532D01*
Y84254D01*
X273521D01*
Y84330D01*
X273510D01*
Y84341D01*
X273499D01*
Y84352D01*
X273488D01*
Y84341D01*
X273456D01*
Y84352D01*
X273445D01*
Y84428D01*
X273434D01*
Y84493D01*
X273380D01*
Y84504D01*
X273358D01*
Y84569D01*
X273347D01*
Y84602D01*
X273336D01*
Y84635D01*
X273315D01*
Y84645D01*
X273304D01*
Y84635D01*
X273293D01*
Y84613D01*
X273271D01*
Y84754D01*
X273260D01*
Y84797D01*
X273249D01*
Y84808D01*
X273239D01*
Y84819D01*
X273217D01*
Y84808D01*
X273206D01*
Y84797D01*
X273195D01*
Y84819D01*
X273184D01*
Y84917D01*
X273173D01*
Y84971D01*
X273162D01*
Y84982D01*
X273141D01*
Y84971D01*
X273119D01*
Y84982D01*
X273108D01*
Y85069D01*
X273097D01*
Y85124D01*
X273086D01*
Y85134D01*
X273065D01*
Y85124D01*
X273043D01*
Y85134D01*
X273032D01*
Y85156D01*
X273021D01*
Y85221D01*
X273010D01*
Y85232D01*
X272978D01*
Y85221D01*
X272956D01*
Y85254D01*
X272945D01*
Y85319D01*
X272934D01*
Y85330D01*
X272924D01*
Y85341D01*
X272913D01*
Y85330D01*
X272902D01*
Y85319D01*
X272891D01*
Y85330D01*
X272880D01*
Y85384D01*
X272869D01*
Y85471D01*
X272858D01*
Y85482D01*
X272804D01*
Y85493D01*
X272793D01*
Y85558D01*
X272782D01*
Y85569D01*
X272771D01*
Y85580D01*
X272717D01*
Y85569D01*
X272695D01*
Y85721D01*
X272684D01*
Y85732D01*
X272641D01*
Y85721D01*
X272619D01*
Y85764D01*
X272608D01*
Y85830D01*
X272619D01*
Y85862D01*
X272608D01*
Y85884D01*
X272587D01*
Y85895D01*
X272565D01*
Y85884D01*
X272554D01*
Y85895D01*
X272543D01*
Y85949D01*
X272532D01*
Y85993D01*
X272521D01*
Y86036D01*
X272511D01*
Y86047D01*
X272489D01*
Y86025D01*
X272478D01*
Y86004D01*
X272467D01*
Y86058D01*
X272456D01*
Y86134D01*
X272445D01*
Y86145D01*
X272435D01*
Y86156D01*
X272424D01*
Y86177D01*
X272413D01*
Y86145D01*
X272380D01*
Y86275D01*
X272369D01*
Y86297D01*
X272304D01*
Y86329D01*
X272293D01*
Y86384D01*
X272283D01*
Y86395D01*
X272293D01*
Y86438D01*
X272283D01*
Y86449D01*
X272250D01*
Y86438D01*
X272239D01*
Y86449D01*
X272228D01*
Y86482D01*
X272217D01*
Y86590D01*
X272206D01*
Y86655D01*
X272196D01*
Y86677D01*
X272185D01*
Y86655D01*
X272152D01*
Y86644D01*
X272141D01*
Y86634D01*
X272130D01*
Y86644D01*
X272120D01*
Y86862D01*
X272130D01*
Y86873D01*
X272141D01*
Y87101D01*
X272152D01*
Y87242D01*
X272141D01*
Y87655D01*
X272152D01*
Y87666D01*
X272141D01*
Y87894D01*
X272152D01*
Y88013D01*
X272141D01*
Y95303D01*
X272130D01*
Y95542D01*
X272141D01*
Y95586D01*
X272130D01*
Y102387D01*
X272120D01*
Y103441D01*
X272109D01*
Y103462D01*
X272098D01*
Y103256D01*
X272087D01*
Y103495D01*
X272076D01*
Y103212D01*
X272065D01*
Y102397D01*
X272054D01*
Y102767D01*
X272043D01*
Y106939D01*
X272054D01*
Y107069D01*
X272043D01*
Y107199D01*
X272054D01*
Y107373D01*
X272043D01*
Y107830D01*
X272054D01*
Y110274D01*
X272043D01*
Y110774D01*
X272054D01*
Y110828D01*
X272043D01*
Y111056D01*
X272054D01*
Y111067D01*
X272043D01*
Y111176D01*
X272054D01*
Y111198D01*
X272043D01*
Y111241D01*
X272054D01*
Y111252D01*
X272043D01*
Y111274D01*
X272054D01*
Y111513D01*
X272043D01*
Y111567D01*
X272054D01*
Y113186D01*
X272043D01*
Y113207D01*
X272054D01*
Y113229D01*
X272043D01*
Y113533D01*
X272054D01*
Y115826D01*
X272043D01*
Y116141D01*
X272054D01*
Y116217D01*
X272043D01*
Y116228D01*
X272054D01*
Y116260D01*
X272043D01*
Y116282D01*
X272054D01*
Y116304D01*
X272043D01*
Y116336D01*
X272054D01*
Y116760D01*
X272043D01*
Y120519D01*
X272033D01*
Y120649D01*
X272043D01*
Y120682D01*
X272033D01*
Y121464D01*
X272022D01*
Y121508D01*
X272033D01*
Y121518D01*
X272022D01*
Y121529D01*
X272033D01*
Y121540D01*
X272022D01*
Y121562D01*
X272033D01*
Y121616D01*
X272022D01*
Y121725D01*
X272011D01*
Y121986D01*
X272000D01*
Y121779D01*
X271989D01*
Y120845D01*
X271978D01*
Y120856D01*
X271967D01*
Y120964D01*
X271978D01*
Y120986D01*
X271967D01*
Y123518D01*
X271978D01*
Y123865D01*
X271989D01*
Y124082D01*
X271978D01*
Y124148D01*
X271967D01*
Y124256D01*
X271957D01*
Y124267D01*
X271967D01*
Y124289D01*
X271957D01*
Y124311D01*
X271967D01*
Y124321D01*
X272043D01*
Y124332D01*
X273597D01*
Y124321D01*
X273684D01*
Y124332D01*
X274477D01*
Y124321D01*
X274640D01*
Y124332D01*
X292598D01*
Y124321D01*
X292620D01*
Y124332D01*
X293870D01*
Y124321D01*
D02*
G37*
G36*
X324746Y124289D02*
X324735D01*
Y124267D01*
X324746D01*
Y124224D01*
X324757D01*
Y123105D01*
X324746D01*
Y121834D01*
X324735D01*
Y121812D01*
X324746D01*
Y121790D01*
X324865D01*
Y121779D01*
X324909D01*
Y121768D01*
X324876D01*
Y121757D01*
X324767D01*
Y121747D01*
X324778D01*
Y121736D01*
X324876D01*
Y121725D01*
X324941D01*
Y121736D01*
X324952D01*
Y121747D01*
X324963D01*
Y121757D01*
X324941D01*
Y121768D01*
X324920D01*
Y121779D01*
X324941D01*
Y121790D01*
X325006D01*
Y121801D01*
X325017D01*
Y121855D01*
X325028D01*
Y121877D01*
X325050D01*
Y121866D01*
X325083D01*
Y121877D01*
X325093D01*
Y121964D01*
X325104D01*
Y122029D01*
X325093D01*
Y122040D01*
X325104D01*
Y122051D01*
X325169D01*
Y122127D01*
X325180D01*
Y122138D01*
X325246D01*
Y122149D01*
X325256D01*
Y122268D01*
X325267D01*
Y122279D01*
X325278D01*
Y122268D01*
X325289D01*
Y122257D01*
X325311D01*
Y122268D01*
X325322D01*
Y122290D01*
X325332D01*
Y122431D01*
X325343D01*
Y122442D01*
X325365D01*
Y122431D01*
X325397D01*
Y122442D01*
X325408D01*
Y122551D01*
X325419D01*
Y122562D01*
X325408D01*
Y122594D01*
X325419D01*
Y122605D01*
X325452D01*
Y122594D01*
X325474D01*
Y122605D01*
X325485D01*
Y122681D01*
X325495D01*
Y122714D01*
X325506D01*
Y122735D01*
X325517D01*
Y122703D01*
X325571D01*
Y122746D01*
X325582D01*
Y122790D01*
X325593D01*
Y122855D01*
X325658D01*
Y122931D01*
X325669D01*
Y122996D01*
X325680D01*
Y123018D01*
X325702D01*
Y123007D01*
X325734D01*
Y123018D01*
X325745D01*
Y123094D01*
X325756D01*
Y123159D01*
X325767D01*
Y123170D01*
X325778D01*
Y123159D01*
X325810D01*
Y123170D01*
X325821D01*
Y123192D01*
X325832D01*
Y123224D01*
X325821D01*
Y123235D01*
X325832D01*
Y123311D01*
X325843D01*
Y123322D01*
X325854D01*
Y123311D01*
X325865D01*
Y123268D01*
X325886D01*
Y123311D01*
X325897D01*
Y123344D01*
X325908D01*
Y123420D01*
X325919D01*
Y123431D01*
X325941D01*
Y123420D01*
X325973D01*
Y123441D01*
X325984D01*
Y123496D01*
X325995D01*
Y123561D01*
X326006D01*
Y123572D01*
X326049D01*
Y123583D01*
X326060D01*
Y123594D01*
X326071D01*
Y123648D01*
X326082D01*
Y123691D01*
X326093D01*
Y123724D01*
X326125D01*
Y123735D01*
X326147D01*
Y123746D01*
X326158D01*
Y123833D01*
X326169D01*
Y123843D01*
X326191D01*
Y123854D01*
X326202D01*
Y123843D01*
X326223D01*
Y123865D01*
X326234D01*
Y123909D01*
X326245D01*
Y123985D01*
X326256D01*
Y123996D01*
X326310D01*
Y124017D01*
X326321D01*
Y124082D01*
X326332D01*
Y124148D01*
X326386D01*
Y124158D01*
X326397D01*
Y124245D01*
X326408D01*
Y124256D01*
X328863D01*
Y124245D01*
X329200D01*
Y124256D01*
X329493D01*
Y124245D01*
X337707D01*
Y124235D01*
X337718D01*
Y124006D01*
X337707D01*
Y123930D01*
X337696D01*
Y123919D01*
X337674D01*
Y123930D01*
X337641D01*
Y123843D01*
X337631D01*
Y123767D01*
X337620D01*
Y123757D01*
X337598D01*
Y123767D01*
X337565D01*
Y123757D01*
X337555D01*
Y123680D01*
X337544D01*
Y123604D01*
X337522D01*
Y123615D01*
X337489D01*
Y123604D01*
X337478D01*
Y123539D01*
X337468D01*
Y123518D01*
X337446D01*
Y123528D01*
X337392D01*
Y123518D01*
X337381D01*
Y123452D01*
X337392D01*
Y123365D01*
X337359D01*
Y123376D01*
X337348D01*
Y123365D01*
X337337D01*
Y123376D01*
X337305D01*
Y123355D01*
X337294D01*
Y123192D01*
X337283D01*
Y123181D01*
X337261D01*
Y123192D01*
X337229D01*
Y123181D01*
X337218D01*
Y123126D01*
X337207D01*
Y123105D01*
X337174D01*
Y123116D01*
X337153D01*
Y123105D01*
X337142D01*
Y123061D01*
X337153D01*
Y123040D01*
X337142D01*
Y122996D01*
X337131D01*
Y122953D01*
X337098D01*
Y122963D01*
X337076D01*
Y122953D01*
X337066D01*
Y122877D01*
X337055D01*
Y122801D01*
X336990D01*
Y122790D01*
X336979D01*
Y122616D01*
X336914D01*
Y122605D01*
X336903D01*
Y122562D01*
X336892D01*
Y122540D01*
X336870D01*
Y122551D01*
X336827D01*
Y122540D01*
X336816D01*
Y122475D01*
X336827D01*
Y122442D01*
X336816D01*
Y122388D01*
X336794D01*
Y122399D01*
X336740D01*
Y122388D01*
X336729D01*
Y122290D01*
X336718D01*
Y122246D01*
X336707D01*
Y122236D01*
X336685D01*
Y122246D01*
X336664D01*
Y122236D01*
X336653D01*
Y122225D01*
X336642D01*
Y122149D01*
X336631D01*
Y122138D01*
X336577D01*
Y122127D01*
X336566D01*
Y122007D01*
X336555D01*
Y121986D01*
X336501D01*
Y121975D01*
X336490D01*
Y121910D01*
X336479D01*
Y121812D01*
X336414D01*
Y121736D01*
X336403D01*
Y121703D01*
X336392D01*
Y121671D01*
X336381D01*
Y121681D01*
X336370D01*
Y121703D01*
X336359D01*
Y121714D01*
X336349D01*
Y121703D01*
X336338D01*
Y121660D01*
X336327D01*
Y121595D01*
X336316D01*
Y121573D01*
X336262D01*
Y121562D01*
X336251D01*
Y121508D01*
X336240D01*
Y121464D01*
X336229D01*
Y121421D01*
X336175D01*
Y121410D01*
X336164D01*
Y121345D01*
X336153D01*
Y121323D01*
X336142D01*
Y121312D01*
X336131D01*
Y121301D01*
X336110D01*
Y121312D01*
X336099D01*
Y121301D01*
X336088D01*
Y121269D01*
X336077D01*
Y121236D01*
X336066D01*
Y121171D01*
X336055D01*
Y121160D01*
X336001D01*
Y121138D01*
X335990D01*
Y121008D01*
X335979D01*
Y120997D01*
X335925D01*
Y120986D01*
X335914D01*
Y120921D01*
X335903D01*
Y120856D01*
X335871D01*
Y120867D01*
X335849D01*
Y120856D01*
X335838D01*
Y120769D01*
X335827D01*
Y120736D01*
X335816D01*
Y120693D01*
X335805D01*
Y120736D01*
X335795D01*
Y120747D01*
X335773D01*
Y120736D01*
X335762D01*
Y120715D01*
X335773D01*
Y120704D01*
X335762D01*
Y120682D01*
X335751D01*
Y120606D01*
X335740D01*
Y120595D01*
X335718D01*
Y120606D01*
X335697D01*
Y120595D01*
X335675D01*
Y120465D01*
X335664D01*
Y120432D01*
X335653D01*
Y120443D01*
X335643D01*
Y120454D01*
X335621D01*
Y120443D01*
X335610D01*
Y120432D01*
X335599D01*
Y120356D01*
X335588D01*
Y120334D01*
X335556D01*
Y120323D01*
X335523D01*
Y120302D01*
X335566D01*
Y120291D01*
X335577D01*
Y120280D01*
X335545D01*
Y120269D01*
X335523D01*
Y120193D01*
X335512D01*
Y120182D01*
X335436D01*
Y120171D01*
X335425D01*
Y120117D01*
X335436D01*
Y120095D01*
X335447D01*
Y120074D01*
X335436D01*
Y120030D01*
X335425D01*
Y120019D01*
X335414D01*
Y120030D01*
X335349D01*
Y120019D01*
X335338D01*
Y119932D01*
X335327D01*
Y119856D01*
X335295D01*
Y119867D01*
X335284D01*
Y119856D01*
X335273D01*
Y119845D01*
X335262D01*
Y119780D01*
X335251D01*
Y119759D01*
X335241D01*
Y119748D01*
X335230D01*
Y119759D01*
X335197D01*
Y119748D01*
X335186D01*
Y119693D01*
X335175D01*
Y119628D01*
X335164D01*
Y119617D01*
X335143D01*
Y119628D01*
X335121D01*
Y119617D01*
X335110D01*
Y119606D01*
X335099D01*
Y119530D01*
X335088D01*
Y119487D01*
X335078D01*
Y119509D01*
X335067D01*
Y119520D01*
X335045D01*
Y119509D01*
X335034D01*
Y119465D01*
X335023D01*
Y119367D01*
X335012D01*
Y119335D01*
X335001D01*
Y119346D01*
X334991D01*
Y119357D01*
X334958D01*
Y119346D01*
X334947D01*
Y119302D01*
X334936D01*
Y119270D01*
X334925D01*
Y119215D01*
X334871D01*
Y119205D01*
X334860D01*
Y119150D01*
X334849D01*
Y119107D01*
X334838D01*
Y119052D01*
X334817D01*
Y119042D01*
X334773D01*
Y118944D01*
X334762D01*
Y118955D01*
X334697D01*
Y118900D01*
X334686D01*
Y118802D01*
X334676D01*
Y118792D01*
X334643D01*
Y118802D01*
X334632D01*
Y118792D01*
X334610D01*
Y118726D01*
X334599D01*
Y118661D01*
X334589D01*
Y118650D01*
X334545D01*
Y118639D01*
X334534D01*
Y118607D01*
X334524D01*
Y118542D01*
X334513D01*
Y118520D01*
X334502D01*
Y118531D01*
X334491D01*
Y118542D01*
X334469D01*
Y118520D01*
X334458D01*
Y118466D01*
X334447D01*
Y118390D01*
X334436D01*
Y118379D01*
X334382D01*
Y118346D01*
X334371D01*
Y118303D01*
X334361D01*
Y118237D01*
X334306D01*
Y118227D01*
X334295D01*
Y118205D01*
X334284D01*
Y118194D01*
X334295D01*
Y118183D01*
X334284D01*
Y118118D01*
X334274D01*
Y118107D01*
X334284D01*
Y118096D01*
X334274D01*
Y118085D01*
X334241D01*
Y118075D01*
X334208D01*
Y118053D01*
X334198D01*
Y117988D01*
X334187D01*
Y117977D01*
X334132D01*
Y117912D01*
X334143D01*
Y117836D01*
X334132D01*
Y117814D01*
X334122D01*
Y117803D01*
X334111D01*
Y117814D01*
X334045D01*
Y117803D01*
X334035D01*
Y117727D01*
X334024D01*
Y117673D01*
X334013D01*
Y117662D01*
X334002D01*
Y117673D01*
X333969D01*
Y117662D01*
X333959D01*
Y117607D01*
X333948D01*
Y117575D01*
X333904D01*
Y117564D01*
X333893D01*
Y117553D01*
X333882D01*
Y117531D01*
X333893D01*
Y117521D01*
X333882D01*
Y117444D01*
X333872D01*
Y117412D01*
X333861D01*
Y117401D01*
X333839D01*
Y117412D01*
X333817D01*
Y117401D01*
X333806D01*
Y117347D01*
X333817D01*
Y117325D01*
X333806D01*
Y117314D01*
X333796D01*
Y117260D01*
X333730D01*
Y117249D01*
X333719D01*
Y117184D01*
X333709D01*
Y117097D01*
X333698D01*
Y117086D01*
X333687D01*
Y117097D01*
X333665D01*
Y117086D01*
X333643D01*
Y117010D01*
X333633D01*
Y116999D01*
X333557D01*
Y116945D01*
X333546D01*
Y116858D01*
X333535D01*
Y116847D01*
X333470D01*
Y116771D01*
X333459D01*
Y116706D01*
X333448D01*
Y116695D01*
X333394D01*
Y116673D01*
X333383D01*
Y116597D01*
X333372D01*
Y116575D01*
X333361D01*
Y116565D01*
X333350D01*
Y116586D01*
X333317D01*
Y116532D01*
X333307D01*
Y116456D01*
X333296D01*
Y116423D01*
X333274D01*
Y116434D01*
X333242D01*
Y116423D01*
X333231D01*
Y116358D01*
X333220D01*
Y116282D01*
X333209D01*
Y116271D01*
X333198D01*
Y116282D01*
X333165D01*
Y116271D01*
X333155D01*
Y116206D01*
X333144D01*
Y116130D01*
X333133D01*
Y116119D01*
X333122D01*
Y116130D01*
X333078D01*
Y116119D01*
X333068D01*
Y116043D01*
X333057D01*
Y116032D01*
X333046D01*
Y116021D01*
X333035D01*
Y116032D01*
X333003D01*
Y116021D01*
X332992D01*
Y115967D01*
X332981D01*
Y115891D01*
X332970D01*
Y115880D01*
X332926D01*
Y115869D01*
X332916D01*
Y115858D01*
X332905D01*
Y115706D01*
X332829D01*
Y115695D01*
X332818D01*
Y115619D01*
X332742D01*
Y115543D01*
X332731D01*
Y115467D01*
X332720D01*
Y115456D01*
X332687D01*
Y115467D01*
X332666D01*
Y115456D01*
X332655D01*
Y115348D01*
X332644D01*
Y115293D01*
X332579D01*
Y115228D01*
X332568D01*
Y115130D01*
X332503D01*
Y115119D01*
X332492D01*
Y115054D01*
X332481D01*
Y115043D01*
X332459D01*
Y115054D01*
X332438D01*
Y115043D01*
X332416D01*
Y114978D01*
X332405D01*
Y114967D01*
X332231D01*
Y114957D01*
X332177D01*
Y114946D01*
X332166D01*
Y114935D01*
X332188D01*
Y114924D01*
X332220D01*
Y114902D01*
X332057D01*
Y114891D01*
X331590D01*
Y114881D01*
X331503D01*
Y114870D01*
X331492D01*
Y114859D01*
X331503D01*
Y114848D01*
X331514D01*
Y114837D01*
X331503D01*
Y114826D01*
X331438D01*
Y114815D01*
X331319D01*
Y114804D01*
X330873D01*
Y114794D01*
X330840D01*
Y114739D01*
X330862D01*
Y114728D01*
X330840D01*
Y114718D01*
X330786D01*
Y114728D01*
X330765D01*
Y114739D01*
X330699D01*
Y114728D01*
X330645D01*
Y114718D01*
X330363D01*
Y114707D01*
X330341D01*
Y114696D01*
X330330D01*
Y114685D01*
X330319D01*
Y114674D01*
X330308D01*
Y114663D01*
X330297D01*
Y114652D01*
X330286D01*
Y114576D01*
X330297D01*
Y114555D01*
X330308D01*
Y114544D01*
X330526D01*
Y114533D01*
X330580D01*
Y114511D01*
X330547D01*
Y114500D01*
X330558D01*
Y114489D01*
X330580D01*
Y114479D01*
X330623D01*
Y114468D01*
X330710D01*
Y114457D01*
X331177D01*
Y114446D01*
X331166D01*
Y114435D01*
X331134D01*
Y114413D01*
X331145D01*
Y114403D01*
X331166D01*
Y114392D01*
X331253D01*
Y114381D01*
X331373D01*
Y114392D01*
X331666D01*
Y114381D01*
X331742D01*
Y114359D01*
X331721D01*
Y114348D01*
X331710D01*
Y114337D01*
X331721D01*
Y114326D01*
X331731D01*
Y114316D01*
X331753D01*
Y114305D01*
X331873D01*
Y114294D01*
X331916D01*
Y114283D01*
X331927D01*
Y114261D01*
X331938D01*
Y114240D01*
X331949D01*
Y114229D01*
X331959D01*
Y114250D01*
X331970D01*
Y114272D01*
X331981D01*
Y114261D01*
X331992D01*
Y114142D01*
X331927D01*
Y114120D01*
X331916D01*
Y114077D01*
X331851D01*
Y114044D01*
X331840D01*
Y114011D01*
X331851D01*
Y114001D01*
X331840D01*
Y113935D01*
X331829D01*
Y113925D01*
X331807D01*
Y113935D01*
X331775D01*
Y113914D01*
X331764D01*
Y113805D01*
X331753D01*
Y113783D01*
X331764D01*
Y113751D01*
X331688D01*
Y113675D01*
X331677D01*
Y113664D01*
X331601D01*
Y113598D01*
X331612D01*
Y113523D01*
X331601D01*
Y113512D01*
X331590D01*
Y113501D01*
X331579D01*
Y113512D01*
X331525D01*
Y113501D01*
X331514D01*
Y113414D01*
X331525D01*
Y113359D01*
X331514D01*
Y113349D01*
X331503D01*
Y113359D01*
X331460D01*
Y113370D01*
X331449D01*
Y113359D01*
X331438D01*
Y113338D01*
X331427D01*
Y113251D01*
X331416D01*
Y113186D01*
X331384D01*
Y113196D01*
X331395D01*
Y113240D01*
X331362D01*
Y113175D01*
X331351D01*
Y113142D01*
X331340D01*
Y113099D01*
X331308D01*
Y113110D01*
X331297D01*
Y113099D01*
X331275D01*
Y113023D01*
X331264D01*
Y112957D01*
X331253D01*
Y112947D01*
X331242D01*
Y112957D01*
X331232D01*
Y112968D01*
X331210D01*
Y112957D01*
X331199D01*
Y112925D01*
X331188D01*
Y112838D01*
X331177D01*
Y112795D01*
X331156D01*
Y112838D01*
X331134D01*
Y112827D01*
X331123D01*
Y112816D01*
X331134D01*
Y112805D01*
X331123D01*
Y112784D01*
X331112D01*
Y112718D01*
X331101D01*
Y112697D01*
X331047D01*
Y112686D01*
X331036D01*
Y112588D01*
X331025D01*
Y112534D01*
X330960D01*
Y112523D01*
X330949D01*
Y112371D01*
X330884D01*
Y112295D01*
X330873D01*
Y112273D01*
X330786D01*
Y112219D01*
X330775D01*
Y112143D01*
X330765D01*
Y112121D01*
X330710D01*
Y112110D01*
X330699D01*
Y112045D01*
X330688D01*
Y112012D01*
X330677D01*
Y111991D01*
X330667D01*
Y112012D01*
X330634D01*
Y111980D01*
X330623D01*
Y111936D01*
X330612D01*
Y111849D01*
X330602D01*
Y111839D01*
X330591D01*
Y111849D01*
X330580D01*
Y111860D01*
X330558D01*
Y111849D01*
X330547D01*
Y111795D01*
X330536D01*
Y111741D01*
X330526D01*
Y111719D01*
X330471D01*
Y111708D01*
X330460D01*
Y111567D01*
X330449D01*
Y111556D01*
X330395D01*
Y111545D01*
X330384D01*
Y111469D01*
X330373D01*
Y111426D01*
X330352D01*
Y111447D01*
X330341D01*
Y111458D01*
X330330D01*
Y111447D01*
X330308D01*
Y111404D01*
X330330D01*
Y111393D01*
X330319D01*
Y111382D01*
X330308D01*
Y111295D01*
X330232D01*
Y111285D01*
X330221D01*
Y111143D01*
X330123D01*
Y111111D01*
X330113D01*
Y111067D01*
X330091D01*
Y111078D01*
X330058D01*
Y111067D01*
X330047D01*
Y110904D01*
X330037D01*
Y110893D01*
X330026D01*
Y110883D01*
X330015D01*
Y110893D01*
X329982D01*
Y110883D01*
X329971D01*
Y110828D01*
X329961D01*
Y110741D01*
X329950D01*
Y110730D01*
X329939D01*
Y110741D01*
X329906D01*
Y110730D01*
X329895D01*
Y110698D01*
X329884D01*
Y110622D01*
X329874D01*
Y110589D01*
X329830D01*
Y110578D01*
X329819D01*
Y110567D01*
X329808D01*
Y110491D01*
X329798D01*
Y110470D01*
X329787D01*
Y110480D01*
X329743D01*
Y110470D01*
X329732D01*
Y110415D01*
X329721D01*
Y110339D01*
X329711D01*
Y110328D01*
X329656D01*
Y110317D01*
X329645D01*
Y110274D01*
X329635D01*
Y110241D01*
X329624D01*
Y110187D01*
X329602D01*
Y110176D01*
X329591D01*
Y110187D01*
X329580D01*
Y110176D01*
X329558D01*
Y110111D01*
X329548D01*
Y110068D01*
X329558D01*
Y110035D01*
X329548D01*
Y110057D01*
X329515D01*
Y110068D01*
X329482D01*
Y110013D01*
X329472D01*
Y109916D01*
X329461D01*
Y109905D01*
X329406D01*
Y109894D01*
X329396D01*
Y109829D01*
X329385D01*
Y109763D01*
X329352D01*
Y109774D01*
X329341D01*
Y109763D01*
X329319D01*
Y109687D01*
X329309D01*
Y109611D01*
X329254D01*
Y109600D01*
X329244D01*
Y109590D01*
X329233D01*
Y109514D01*
X329222D01*
Y109503D01*
X329200D01*
Y109514D01*
X329178D01*
Y109503D01*
X329167D01*
Y109492D01*
X329156D01*
Y109438D01*
X329146D01*
Y109361D01*
X329135D01*
Y109351D01*
X329091D01*
Y109340D01*
X329081D01*
Y109285D01*
X329070D01*
Y109253D01*
X329059D01*
Y109209D01*
X329026D01*
Y109199D01*
X329004D01*
Y109188D01*
X328994D01*
Y109177D01*
X328983D01*
Y109101D01*
X328918D01*
Y109090D01*
X328907D01*
Y108949D01*
X328896D01*
Y108938D01*
X328831D01*
Y108916D01*
X328820D01*
Y108840D01*
X328809D01*
Y108775D01*
X328755D01*
Y108764D01*
X328744D01*
Y108699D01*
X328733D01*
Y108645D01*
X328722D01*
Y108634D01*
X328711D01*
Y108645D01*
X328700D01*
Y108655D01*
X328689D01*
Y108645D01*
X328679D01*
Y108634D01*
X328668D01*
Y108601D01*
X328657D01*
Y108536D01*
X328646D01*
Y108525D01*
X328624D01*
Y108536D01*
X328602D01*
Y108525D01*
X328592D01*
Y108503D01*
X328581D01*
Y108449D01*
X328570D01*
Y108384D01*
X328516D01*
Y108373D01*
X328505D01*
Y108297D01*
X328494D01*
Y108264D01*
X328483D01*
Y108232D01*
X328450D01*
Y108221D01*
X328429D01*
Y108199D01*
X328418D01*
Y108134D01*
X328407D01*
Y108123D01*
X328353D01*
Y108112D01*
X328342D01*
Y108069D01*
X328331D01*
Y107971D01*
X328320D01*
Y107960D01*
X328266D01*
Y107949D01*
X328255D01*
Y107895D01*
X328244D01*
Y107851D01*
X328233D01*
Y107808D01*
X328211D01*
Y107819D01*
X328190D01*
Y107808D01*
X328179D01*
Y107797D01*
X328168D01*
Y107721D01*
X328157D01*
Y107667D01*
X328146D01*
Y107656D01*
X328135D01*
Y107667D01*
X328125D01*
Y107699D01*
X328114D01*
Y107667D01*
X328103D01*
Y107656D01*
X328092D01*
Y107623D01*
X328081D01*
Y107558D01*
X328016D01*
Y107493D01*
X328005D01*
Y107449D01*
X327994D01*
Y107417D01*
X327951D01*
Y107406D01*
X327940D01*
Y107384D01*
X327929D01*
Y107308D01*
X327918D01*
Y107297D01*
X327907D01*
Y107286D01*
X327886D01*
Y107276D01*
X327875D01*
Y107265D01*
X327864D01*
Y107243D01*
X327853D01*
Y107210D01*
X327842D01*
Y107145D01*
X327777D01*
Y107091D01*
X327766D01*
Y107004D01*
X327755D01*
Y106993D01*
X327701D01*
Y106982D01*
X327690D01*
Y106917D01*
X327679D01*
Y106874D01*
X327668D01*
Y106852D01*
X327646D01*
Y106841D01*
X327636D01*
Y106852D01*
X327625D01*
Y106841D01*
X327614D01*
Y106830D01*
X327603D01*
Y106721D01*
X327614D01*
Y106700D01*
X327603D01*
Y106678D01*
X327592D01*
Y106700D01*
X327581D01*
Y106711D01*
X327549D01*
Y106721D01*
X327538D01*
Y106711D01*
X327527D01*
Y106667D01*
X327516D01*
Y106602D01*
X327505D01*
Y106580D01*
X327473D01*
Y106591D01*
X327462D01*
Y106580D01*
X327451D01*
Y106569D01*
X327440D01*
Y106493D01*
X327429D01*
Y106428D01*
X327397D01*
Y106439D01*
X327386D01*
Y106428D01*
X327364D01*
Y106396D01*
X327353D01*
Y106374D01*
X327364D01*
Y106363D01*
X327353D01*
Y106243D01*
X327288D01*
Y106222D01*
X327277D01*
Y106178D01*
X327266D01*
Y106167D01*
X327244D01*
Y106178D01*
X327212D01*
Y106167D01*
X327201D01*
Y106004D01*
X327136D01*
Y105994D01*
X327125D01*
Y105918D01*
X327114D01*
Y105874D01*
X327125D01*
Y105863D01*
X327114D01*
Y105852D01*
X327060D01*
Y105842D01*
X327049D01*
Y105776D01*
X327038D01*
Y105765D01*
X327027D01*
Y105755D01*
X327016D01*
Y105765D01*
X326962D01*
Y105755D01*
X326951D01*
Y105689D01*
X326962D01*
Y105679D01*
X326973D01*
Y105646D01*
X326962D01*
Y105613D01*
X326973D01*
Y105592D01*
X326962D01*
Y105581D01*
X326864D01*
Y105505D01*
X326853D01*
Y105429D01*
X326832D01*
Y105440D01*
X326799D01*
Y105429D01*
X326788D01*
Y105353D01*
X326777D01*
Y105342D01*
X326712D01*
Y105298D01*
X326723D01*
Y105287D01*
X326712D01*
Y105255D01*
X326701D01*
Y105201D01*
X326690D01*
Y105190D01*
X326669D01*
Y105201D01*
X326647D01*
Y105190D01*
X326636D01*
Y105114D01*
X326625D01*
Y105037D01*
X326614D01*
Y105027D01*
X326604D01*
Y105037D01*
X326560D01*
Y105027D01*
X326549D01*
Y104864D01*
X326538D01*
Y104853D01*
X326516D01*
Y104864D01*
X326495D01*
Y104853D01*
X326473D01*
Y104777D01*
X326462D01*
Y104755D01*
X326451D01*
Y104744D01*
X326441D01*
Y104766D01*
X326397D01*
Y104733D01*
X326408D01*
Y104712D01*
X326397D01*
Y104701D01*
X326386D01*
Y104636D01*
X326310D01*
Y104625D01*
X326299D01*
Y104603D01*
X326288D01*
Y104592D01*
X326299D01*
Y104570D01*
X326288D01*
Y104549D01*
X326299D01*
Y104538D01*
X326310D01*
Y104505D01*
X326299D01*
Y104483D01*
X326288D01*
Y104505D01*
X326278D01*
Y104516D01*
X326267D01*
Y104505D01*
X326256D01*
Y104516D01*
X326223D01*
Y104473D01*
X326212D01*
Y104375D01*
X326202D01*
Y104331D01*
X326191D01*
Y104320D01*
X326180D01*
Y104364D01*
X326147D01*
Y104320D01*
X326136D01*
Y104277D01*
X326125D01*
Y104212D01*
X326093D01*
Y104223D01*
X326082D01*
Y104212D01*
X326049D01*
Y104201D01*
X326028D01*
Y104190D01*
X326017D01*
Y104157D01*
X326028D01*
Y104136D01*
X326017D01*
Y104125D01*
X325832D01*
Y104201D01*
X325821D01*
Y104212D01*
X325756D01*
Y104299D01*
X325745D01*
Y104396D01*
X325734D01*
Y104407D01*
X325723D01*
Y104429D01*
X325713D01*
Y104407D01*
X325702D01*
Y104396D01*
X325691D01*
Y104429D01*
X325680D01*
Y104462D01*
X325669D01*
Y104549D01*
X325658D01*
Y104559D01*
X325604D01*
Y104592D01*
X325593D01*
Y104668D01*
X325582D01*
Y104701D01*
X325571D01*
Y104712D01*
X325517D01*
Y104766D01*
X325506D01*
Y104831D01*
X325495D01*
Y104864D01*
X325485D01*
Y104875D01*
X325430D01*
Y104951D01*
X325419D01*
Y105005D01*
X325408D01*
Y105027D01*
X325343D01*
Y105092D01*
X325332D01*
Y105168D01*
X325322D01*
Y105179D01*
X325311D01*
Y105190D01*
X325289D01*
Y105179D01*
X325267D01*
Y105190D01*
X325256D01*
Y105266D01*
X325246D01*
Y105320D01*
X325235D01*
Y105342D01*
X325213D01*
Y105320D01*
X325202D01*
Y105287D01*
X325191D01*
Y105331D01*
X325180D01*
Y105374D01*
X325169D01*
Y105450D01*
X325159D01*
Y105472D01*
X325137D01*
Y105461D01*
X325126D01*
Y105450D01*
X325115D01*
Y105461D01*
X325104D01*
Y105505D01*
X325093D01*
Y105613D01*
X325083D01*
Y105624D01*
X325061D01*
Y105613D01*
X325028D01*
Y105646D01*
X325017D01*
Y105755D01*
X325006D01*
Y105776D01*
X324952D01*
Y105798D01*
X324941D01*
Y105863D01*
X324930D01*
Y105918D01*
X324920D01*
Y105928D01*
X324854D01*
Y106026D01*
X324843D01*
Y106070D01*
X324833D01*
Y106081D01*
X324789D01*
Y106091D01*
X324778D01*
Y106146D01*
X324767D01*
Y106189D01*
X324757D01*
Y106200D01*
X324746D01*
Y106211D01*
X324735D01*
Y106222D01*
X324724D01*
Y106233D01*
X324702D01*
Y106243D01*
X324670D01*
Y106254D01*
X324659D01*
Y106243D01*
X324604D01*
Y106233D01*
X324496D01*
Y106243D01*
X324463D01*
Y106254D01*
X324452D01*
Y106243D01*
X324431D01*
Y102636D01*
X324420D01*
Y102506D01*
X324431D01*
Y101594D01*
X324420D01*
Y101572D01*
X324409D01*
Y101615D01*
X324398D01*
Y101626D01*
X324387D01*
Y101615D01*
X324376D01*
Y101626D01*
X324365D01*
Y101615D01*
X324355D01*
Y101550D01*
X324344D01*
Y101376D01*
X324355D01*
Y101355D01*
X324365D01*
Y101257D01*
X324355D01*
Y101202D01*
X324268D01*
Y101192D01*
X324257D01*
Y101126D01*
X324268D01*
Y101105D01*
X324257D01*
Y101050D01*
X324246D01*
Y101039D01*
X324224D01*
Y101050D01*
X324192D01*
Y101039D01*
X324181D01*
Y100920D01*
X324170D01*
Y100877D01*
X324137D01*
Y100887D01*
X324116D01*
Y100877D01*
X324105D01*
Y100790D01*
X324094D01*
Y100724D01*
X324083D01*
Y100714D01*
X324072D01*
Y100724D01*
X324029D01*
Y100703D01*
X324018D01*
Y100638D01*
X324007D01*
Y100627D01*
X323953D01*
Y100551D01*
X323942D01*
Y100475D01*
X323931D01*
Y100464D01*
X323909D01*
Y100475D01*
X323876D01*
Y100464D01*
X323866D01*
Y100344D01*
X323855D01*
Y100323D01*
X323790D01*
Y100312D01*
X323779D01*
Y100160D01*
X323757D01*
Y100170D01*
X323746D01*
Y100181D01*
X323735D01*
Y100170D01*
X323703D01*
Y100149D01*
X323692D01*
Y100105D01*
X323681D01*
Y100062D01*
X323616D01*
Y100040D01*
X323605D01*
Y99953D01*
X323594D01*
Y99910D01*
X323540D01*
Y99899D01*
X323529D01*
Y99823D01*
X323518D01*
Y99801D01*
X323507D01*
Y99757D01*
X323496D01*
Y99768D01*
X323464D01*
Y99757D01*
X323453D01*
Y99725D01*
X323442D01*
Y99649D01*
X323377D01*
Y99605D01*
X323366D01*
Y99497D01*
X323355D01*
Y99486D01*
X323301D01*
Y99475D01*
X323290D01*
Y99410D01*
X323279D01*
Y99388D01*
X323268D01*
Y99334D01*
X323225D01*
Y99323D01*
X323214D01*
Y99236D01*
X323203D01*
Y99193D01*
X323181D01*
Y99225D01*
X323170D01*
Y99236D01*
X323159D01*
Y99225D01*
X323138D01*
Y99204D01*
X323149D01*
Y99193D01*
X323138D01*
Y99182D01*
X323127D01*
Y99171D01*
X323116D01*
Y99095D01*
X323105D01*
Y99084D01*
X323040D01*
Y99019D01*
X323029D01*
Y98975D01*
X323018D01*
Y98943D01*
X322986D01*
Y98954D01*
X322975D01*
Y98943D01*
X322964D01*
Y98921D01*
X322953D01*
Y98823D01*
X322942D01*
Y98791D01*
X322931D01*
Y98780D01*
X322920D01*
Y98801D01*
X322910D01*
Y98812D01*
X322899D01*
Y98801D01*
X322888D01*
Y98780D01*
X322877D01*
Y98747D01*
X322866D01*
Y98682D01*
X322855D01*
Y98671D01*
X322834D01*
Y98682D01*
X322812D01*
Y98671D01*
X322801D01*
Y98606D01*
X322790D01*
Y98519D01*
X322725D01*
Y98497D01*
X322714D01*
Y98389D01*
X322703D01*
Y98367D01*
X322682D01*
Y98378D01*
X322649D01*
Y98356D01*
X322638D01*
Y98258D01*
X322627D01*
Y98226D01*
X322616D01*
Y98237D01*
X322606D01*
Y98247D01*
X322573D01*
Y98226D01*
X322562D01*
Y98193D01*
X322551D01*
Y98150D01*
X322540D01*
Y98106D01*
X322486D01*
Y98095D01*
X322475D01*
Y98030D01*
X322464D01*
Y97987D01*
X322443D01*
Y97976D01*
X322399D01*
Y97954D01*
X322388D01*
Y97878D01*
X322377D01*
Y97856D01*
X322366D01*
Y97845D01*
X322312D01*
Y97802D01*
X322301D01*
Y97726D01*
X322290D01*
Y97693D01*
X322269D01*
Y97704D01*
X322236D01*
Y97683D01*
X322225D01*
Y97606D01*
X322214D01*
Y97541D01*
X322160D01*
Y97530D01*
X322149D01*
Y97454D01*
X322138D01*
Y97400D01*
X322127D01*
Y97389D01*
X322117D01*
Y97400D01*
X322106D01*
Y97422D01*
X322084D01*
Y97400D01*
X322073D01*
Y97378D01*
X322062D01*
Y97302D01*
X322051D01*
Y97291D01*
X321997D01*
Y97281D01*
X321986D01*
Y97205D01*
X321975D01*
Y97150D01*
X321964D01*
Y97139D01*
X321921D01*
Y97128D01*
X321910D01*
Y97107D01*
X321899D01*
Y97042D01*
X321888D01*
Y97020D01*
X321878D01*
Y97009D01*
X321856D01*
Y96998D01*
X321834D01*
Y96976D01*
X321823D01*
Y96835D01*
X321812D01*
Y96824D01*
X321801D01*
Y96857D01*
X321747D01*
Y96824D01*
X321736D01*
Y96803D01*
X321725D01*
Y96737D01*
X321715D01*
Y96726D01*
X321660D01*
Y96705D01*
X321649D01*
Y96629D01*
X321638D01*
Y96564D01*
X321606D01*
Y96574D01*
X321595D01*
Y96564D01*
X321573D01*
Y96476D01*
X321562D01*
Y96455D01*
X321552D01*
Y96444D01*
X321541D01*
Y96455D01*
X321530D01*
Y96466D01*
X321508D01*
Y96444D01*
X321497D01*
Y96390D01*
X321486D01*
Y96324D01*
X321476D01*
Y96314D01*
X321421D01*
Y96281D01*
X321410D01*
Y96227D01*
X321399D01*
Y96183D01*
X321389D01*
Y96172D01*
X321367D01*
Y96161D01*
X321345D01*
Y96151D01*
X321334D01*
Y96085D01*
X321324D01*
Y96053D01*
X321269D01*
Y96009D01*
X321258D01*
Y95966D01*
X321247D01*
Y95944D01*
X321258D01*
Y95933D01*
X321247D01*
Y95890D01*
X321226D01*
Y95901D01*
X321204D01*
Y95890D01*
X321182D01*
Y95857D01*
X321171D01*
Y95836D01*
X321161D01*
Y95792D01*
X321150D01*
Y95759D01*
X321139D01*
Y95749D01*
X321095D01*
Y95738D01*
X321084D01*
Y95673D01*
X321074D01*
Y95597D01*
X321063D01*
Y95586D01*
X321008D01*
Y95575D01*
X320998D01*
Y95499D01*
X320987D01*
Y95488D01*
X320932D01*
Y95477D01*
X320922D01*
Y95412D01*
X320911D01*
Y95336D01*
X320845D01*
Y95271D01*
X320835D01*
Y95238D01*
X320824D01*
Y95184D01*
X320780D01*
Y95173D01*
X320769D01*
Y95151D01*
X320759D01*
Y95075D01*
X320748D01*
Y95042D01*
X320737D01*
Y95053D01*
X320726D01*
Y95075D01*
X320704D01*
Y95064D01*
X320693D01*
Y95010D01*
X320682D01*
Y94923D01*
X320672D01*
Y94912D01*
X320639D01*
Y94923D01*
X320628D01*
Y94912D01*
X320606D01*
Y94858D01*
X320596D01*
Y94836D01*
X320585D01*
Y94782D01*
X320574D01*
Y94771D01*
X320530D01*
Y94760D01*
X320519D01*
Y94695D01*
X320509D01*
Y94673D01*
X320498D01*
Y94641D01*
X320509D01*
Y94619D01*
X320498D01*
Y94608D01*
X320476D01*
Y94597D01*
X320454D01*
Y94586D01*
X320443D01*
Y94521D01*
X320433D01*
Y94510D01*
X320378D01*
Y94521D01*
X320367D01*
Y94510D01*
X320357D01*
Y94478D01*
X320346D01*
Y94391D01*
X320335D01*
Y94358D01*
X320302D01*
Y94369D01*
X320291D01*
Y94358D01*
X320280D01*
Y94347D01*
X320270D01*
Y94282D01*
X320259D01*
Y94228D01*
X320248D01*
Y94206D01*
X320226D01*
Y94217D01*
X320205D01*
Y94206D01*
X320194D01*
Y94184D01*
X320183D01*
Y94108D01*
X320172D01*
Y94097D01*
X320150D01*
Y94108D01*
X320128D01*
Y94097D01*
X320117D01*
Y94032D01*
X320107D01*
Y93956D01*
X320096D01*
Y93945D01*
X320042D01*
Y93934D01*
X320031D01*
Y93869D01*
X320020D01*
Y93793D01*
X320009D01*
Y93782D01*
X319965D01*
Y93771D01*
X319955D01*
Y93641D01*
X319944D01*
Y93619D01*
X319922D01*
Y93630D01*
X319889D01*
Y93619D01*
X319879D01*
Y93608D01*
X319868D01*
Y93543D01*
X319857D01*
Y93532D01*
X319835D01*
Y93543D01*
X319824D01*
Y93532D01*
X319813D01*
Y93543D01*
X319802D01*
Y93532D01*
X319781D01*
Y93467D01*
X319770D01*
Y93391D01*
X319748D01*
Y93380D01*
X319737D01*
Y93391D01*
X319705D01*
Y93369D01*
X319694D01*
Y93293D01*
X319683D01*
Y93206D01*
X319650D01*
Y93217D01*
X319639D01*
Y93206D01*
X319618D01*
Y93152D01*
X319607D01*
Y93119D01*
X319574D01*
Y93130D01*
X319553D01*
Y93119D01*
X319542D01*
Y93011D01*
X319531D01*
Y92967D01*
X319520D01*
Y92957D01*
X319509D01*
Y92967D01*
X319466D01*
Y92891D01*
X319455D01*
Y92815D01*
X319390D01*
Y92804D01*
X319379D01*
Y92631D01*
X319314D01*
Y92620D01*
X319303D01*
Y92576D01*
X319292D01*
Y92555D01*
X319270D01*
Y92565D01*
X319227D01*
Y92555D01*
X319216D01*
Y92489D01*
X319227D01*
Y92457D01*
X319216D01*
Y92402D01*
X319194D01*
Y92413D01*
X319140D01*
Y92402D01*
X319129D01*
Y92305D01*
X319118D01*
Y92250D01*
X319075D01*
Y92261D01*
X319064D01*
Y92250D01*
X319053D01*
Y92240D01*
X319042D01*
Y92163D01*
X319031D01*
Y92153D01*
X318977D01*
Y92142D01*
X318966D01*
Y92011D01*
X318955D01*
Y91990D01*
X318933D01*
Y92001D01*
X318901D01*
Y91990D01*
X318890D01*
Y91903D01*
X318879D01*
Y91838D01*
X318868D01*
Y91827D01*
X318846D01*
Y91838D01*
X318825D01*
Y91827D01*
X318814D01*
Y91805D01*
X318803D01*
Y91707D01*
X318792D01*
Y91675D01*
X318781D01*
Y91685D01*
X318770D01*
Y91718D01*
X318749D01*
Y91685D01*
X318738D01*
Y91675D01*
X318727D01*
Y91620D01*
X318716D01*
Y91588D01*
X318651D01*
Y91479D01*
X318640D01*
Y91436D01*
X318607D01*
Y91446D01*
X318596D01*
Y91436D01*
X318575D01*
Y91425D01*
X318564D01*
Y91284D01*
X318542D01*
Y91294D01*
X318531D01*
Y91316D01*
X318521D01*
Y91294D01*
X318488D01*
Y91273D01*
X318477D01*
Y91240D01*
X318466D01*
Y91186D01*
X318455D01*
Y91175D01*
X318434D01*
Y91186D01*
X318412D01*
Y91175D01*
X318401D01*
Y91153D01*
X318390D01*
Y91121D01*
X318401D01*
Y91099D01*
X318390D01*
Y91012D01*
X318325D01*
Y91001D01*
X318314D01*
Y90925D01*
X318303D01*
Y90860D01*
X318281D01*
Y90871D01*
X318271D01*
Y90882D01*
X318260D01*
Y90871D01*
X318249D01*
Y90860D01*
X318238D01*
Y90784D01*
X318227D01*
Y90675D01*
X318195D01*
Y90686D01*
X318173D01*
Y90675D01*
X318162D01*
Y90664D01*
X318151D01*
Y90621D01*
X318140D01*
Y90610D01*
X318118D01*
Y90621D01*
X318086D01*
Y90610D01*
X318075D01*
Y90479D01*
X318064D01*
Y90447D01*
X318053D01*
Y90458D01*
X318043D01*
Y90469D01*
X318021D01*
Y90458D01*
X318010D01*
Y90447D01*
X317999D01*
Y90360D01*
X317988D01*
Y90295D01*
X317956D01*
Y90317D01*
X317966D01*
Y90327D01*
X317956D01*
Y90338D01*
X317945D01*
Y90327D01*
X317934D01*
Y90317D01*
X317945D01*
Y90295D01*
X317923D01*
Y90284D01*
X317912D01*
Y90251D01*
X317901D01*
Y90208D01*
X317836D01*
Y90197D01*
X317825D01*
Y90132D01*
X317836D01*
Y90110D01*
X317847D01*
Y90077D01*
X317836D01*
Y90045D01*
X317749D01*
Y90034D01*
X317738D01*
Y89936D01*
X317727D01*
Y89871D01*
X317695D01*
Y89882D01*
X317684D01*
Y89871D01*
X317673D01*
Y89860D01*
X317662D01*
Y89806D01*
X317651D01*
Y89784D01*
X317619D01*
Y89795D01*
X317597D01*
Y89784D01*
X317586D01*
Y89686D01*
X317575D01*
Y89632D01*
X317543D01*
Y89643D01*
X317521D01*
Y89632D01*
X317510D01*
Y89621D01*
X317499D01*
Y89491D01*
X317488D01*
Y89480D01*
X317467D01*
Y89491D01*
X317445D01*
Y89480D01*
X317434D01*
Y89469D01*
X317423D01*
Y89382D01*
X317412D01*
Y89295D01*
X317380D01*
Y89306D01*
X317369D01*
Y89295D01*
X317347D01*
Y89241D01*
X317336D01*
Y89219D01*
X317315D01*
Y89230D01*
X317271D01*
Y89219D01*
X317260D01*
Y89154D01*
X317271D01*
Y89067D01*
X317260D01*
Y89056D01*
X317184D01*
Y89035D01*
X317173D01*
Y89024D01*
X317184D01*
Y88904D01*
X317097D01*
Y88893D01*
X317086D01*
Y88828D01*
X317076D01*
Y88817D01*
X317043D01*
Y88828D01*
X317032D01*
Y88817D01*
X317021D01*
Y88806D01*
X317010D01*
Y88698D01*
X316999D01*
Y88665D01*
X316989D01*
Y88654D01*
X316978D01*
Y88665D01*
X316945D01*
Y88654D01*
X316934D01*
Y88611D01*
X316924D01*
Y88546D01*
X316913D01*
Y88513D01*
X316902D01*
Y88535D01*
X316891D01*
Y88556D01*
X316869D01*
Y88535D01*
X316858D01*
Y88481D01*
X316847D01*
Y88394D01*
X316837D01*
Y88383D01*
X316826D01*
Y88394D01*
X316782D01*
Y88350D01*
X316793D01*
Y88339D01*
X316782D01*
Y88328D01*
X316771D01*
Y88252D01*
X316761D01*
Y88242D01*
X316750D01*
Y88252D01*
X316706D01*
Y88242D01*
X316695D01*
Y88100D01*
X316684D01*
Y88089D01*
X316619D01*
Y88078D01*
X316608D01*
Y88013D01*
X316597D01*
Y87992D01*
X316532D01*
Y87905D01*
X316543D01*
Y87894D01*
X316532D01*
Y87839D01*
X316521D01*
Y87829D01*
X316511D01*
Y87839D01*
X316445D01*
Y87807D01*
X316435D01*
Y87785D01*
X316445D01*
Y87764D01*
X316435D01*
Y87677D01*
X316424D01*
Y87666D01*
X316402D01*
Y87677D01*
X316369D01*
Y87666D01*
X316359D01*
Y87590D01*
X316348D01*
Y87579D01*
X316337D01*
Y87568D01*
X316326D01*
Y87579D01*
X316315D01*
Y87590D01*
X316293D01*
Y87579D01*
X316283D01*
Y87557D01*
X316293D01*
Y87524D01*
X316283D01*
Y87448D01*
X316272D01*
Y87427D01*
X316261D01*
Y87416D01*
X316250D01*
Y87427D01*
X316206D01*
Y87329D01*
X316196D01*
Y87264D01*
X316130D01*
Y87242D01*
X316119D01*
Y87101D01*
X316054D01*
Y87090D01*
X316043D01*
Y87014D01*
X315967D01*
Y86873D01*
X315956D01*
Y86862D01*
X315859D01*
Y86851D01*
X315837D01*
Y86818D01*
X315848D01*
Y86786D01*
X315859D01*
Y86764D01*
X315870D01*
Y86753D01*
X315881D01*
Y86688D01*
X315718D01*
Y86764D01*
X315728D01*
Y86775D01*
X315739D01*
Y86786D01*
X315750D01*
Y86818D01*
X315761D01*
Y86851D01*
X315750D01*
Y86883D01*
X315739D01*
Y87079D01*
X315728D01*
Y87481D01*
X315718D01*
Y87568D01*
X315707D01*
Y88785D01*
X315718D01*
Y91186D01*
X315728D01*
Y91316D01*
X315739D01*
Y90892D01*
X315750D01*
Y90642D01*
X315761D01*
Y90871D01*
X315772D01*
Y90718D01*
X315783D01*
Y90773D01*
X315794D01*
Y90784D01*
X315783D01*
Y90882D01*
X315794D01*
Y91794D01*
X315804D01*
Y91859D01*
X315794D01*
Y91870D01*
X315804D01*
Y95868D01*
X315794D01*
Y96259D01*
X315783D01*
Y98736D01*
X315794D01*
Y102224D01*
X315804D01*
Y102756D01*
X315815D01*
Y102419D01*
X315826D01*
Y102365D01*
X315815D01*
Y102245D01*
X315826D01*
Y101985D01*
X315837D01*
Y102180D01*
X315848D01*
Y102006D01*
X315859D01*
Y101735D01*
X315870D01*
Y102028D01*
X315881D01*
Y104016D01*
X315891D01*
Y104092D01*
X315881D01*
Y104147D01*
X315891D01*
Y112197D01*
X315902D01*
Y113881D01*
X315913D01*
Y113914D01*
X315924D01*
Y113403D01*
X315935D01*
Y112903D01*
X315946D01*
Y113142D01*
X315956D01*
Y114565D01*
X315967D01*
Y122648D01*
X315978D01*
Y123854D01*
X315989D01*
Y123963D01*
X315978D01*
Y124245D01*
X315989D01*
Y124256D01*
X316000D01*
Y124224D01*
X316011D01*
Y124148D01*
X316022D01*
Y124191D01*
X316033D01*
Y124245D01*
X316043D01*
Y124289D01*
X316033D01*
Y124311D01*
X316043D01*
Y124321D01*
X324659D01*
Y124311D01*
X324713D01*
Y124321D01*
X324746D01*
Y124289D01*
D02*
G37*
G36*
X271783Y124321D02*
X271805D01*
Y124311D01*
X271837D01*
Y124321D01*
X271859D01*
Y124311D01*
X271870D01*
Y124289D01*
X271859D01*
Y123930D01*
X271870D01*
Y119791D01*
X271880D01*
Y106341D01*
X271891D01*
Y105233D01*
X271902D01*
Y105211D01*
X271913D01*
Y106341D01*
X271924D01*
Y107015D01*
X271935D01*
Y106265D01*
X271946D01*
Y106254D01*
X271935D01*
Y106243D01*
X271946D01*
Y101572D01*
X271957D01*
Y98856D01*
Y98845D01*
Y88111D01*
X271967D01*
Y87361D01*
X271978D01*
Y87318D01*
X271967D01*
Y87209D01*
X271978D01*
Y87188D01*
X271989D01*
Y87633D01*
X272000D01*
Y88111D01*
X272011D01*
Y88024D01*
X272022D01*
Y87872D01*
X272011D01*
Y87785D01*
X272022D01*
Y87025D01*
X271989D01*
Y87036D01*
X271978D01*
Y87025D01*
X271957D01*
Y87036D01*
X271935D01*
Y87046D01*
X271957D01*
Y87057D01*
X272000D01*
Y87079D01*
X271989D01*
Y87112D01*
X271978D01*
Y87079D01*
X271967D01*
Y87090D01*
X271957D01*
Y87101D01*
X271913D01*
Y87112D01*
X271815D01*
Y87166D01*
X271805D01*
Y87231D01*
X271794D01*
Y87264D01*
X271750D01*
Y87253D01*
X271739D01*
Y87264D01*
X271728D01*
Y87340D01*
X271717D01*
Y87416D01*
X271707D01*
Y87427D01*
X271685D01*
Y87416D01*
X271652D01*
Y87437D01*
X271642D01*
Y87514D01*
X271631D01*
Y87524D01*
X271598D01*
Y87514D01*
X271576D01*
Y87579D01*
X271565D01*
Y87666D01*
X271555D01*
Y87687D01*
X271522D01*
Y87677D01*
X271500D01*
Y87687D01*
X271489D01*
Y87709D01*
X271479D01*
Y87829D01*
X271413D01*
Y87839D01*
X271402D01*
Y87905D01*
X271392D01*
Y87937D01*
X271381D01*
Y87948D01*
X271370D01*
Y87959D01*
X271359D01*
Y87970D01*
X271348D01*
Y87959D01*
X271337D01*
Y87937D01*
X271326D01*
Y87948D01*
X271316D01*
Y88078D01*
X271305D01*
Y88100D01*
X271239D01*
Y88111D01*
X271229D01*
Y88242D01*
X271218D01*
Y88252D01*
X271164D01*
Y88263D01*
X271153D01*
Y88328D01*
X271142D01*
Y88394D01*
X271131D01*
Y88404D01*
X271109D01*
Y88394D01*
X271098D01*
Y88383D01*
X271087D01*
Y88394D01*
X271077D01*
Y88470D01*
X271066D01*
Y88513D01*
X271055D01*
Y88535D01*
X271044D01*
Y88546D01*
X271033D01*
Y88524D01*
X271022D01*
Y88513D01*
X271000D01*
Y88567D01*
X270990D01*
Y88665D01*
X270968D01*
Y88676D01*
X270957D01*
Y88665D01*
X270924D01*
Y88687D01*
X270914D01*
Y88720D01*
X270903D01*
Y88785D01*
X270914D01*
Y88796D01*
X270903D01*
Y88817D01*
X270837D01*
Y88828D01*
X270827D01*
Y88893D01*
X270816D01*
Y88904D01*
X270740D01*
Y89056D01*
X270729D01*
Y89067D01*
X270718D01*
Y89078D01*
X270685D01*
Y89067D01*
X270664D01*
Y89100D01*
X270653D01*
Y89219D01*
X270642D01*
Y89230D01*
X270588D01*
Y89252D01*
X270577D01*
Y89317D01*
X270566D01*
Y89382D01*
X270533D01*
Y89371D01*
X270512D01*
Y89382D01*
X270501D01*
Y89469D01*
X270490D01*
Y89491D01*
X270479D01*
Y89523D01*
X270457D01*
Y89491D01*
X270446D01*
Y89480D01*
X270436D01*
Y89502D01*
X270425D01*
Y89556D01*
X270414D01*
Y89632D01*
X270403D01*
Y89643D01*
X270370D01*
Y89632D01*
X270349D01*
Y89686D01*
X270338D01*
Y89719D01*
X270327D01*
Y89730D01*
X270338D01*
Y89773D01*
X270327D01*
Y89795D01*
X270294D01*
Y89784D01*
X270273D01*
Y89806D01*
X270262D01*
Y89882D01*
X270251D01*
Y89904D01*
X270240D01*
Y89915D01*
X270229D01*
Y89904D01*
X270207D01*
Y89915D01*
X270197D01*
Y89904D01*
X270186D01*
Y89893D01*
X270175D01*
Y89904D01*
X270164D01*
Y89936D01*
X270175D01*
Y90045D01*
X270164D01*
Y90056D01*
X270142D01*
Y90045D01*
X270131D01*
Y90056D01*
X270121D01*
Y90045D01*
X270088D01*
Y90099D01*
X270077D01*
Y90110D01*
X270088D01*
Y90197D01*
X270077D01*
Y90208D01*
X270012D01*
Y90273D01*
X270001D01*
Y90338D01*
X269990D01*
Y90349D01*
X269958D01*
Y90338D01*
X269936D01*
Y90371D01*
X269925D01*
Y90458D01*
X269914D01*
Y90469D01*
X269903D01*
Y90479D01*
X269881D01*
Y90469D01*
X269860D01*
Y90490D01*
X269849D01*
Y90599D01*
X269838D01*
Y90621D01*
X269773D01*
Y90697D01*
X269762D01*
Y90773D01*
X269697D01*
Y90838D01*
X269686D01*
Y90871D01*
X269675D01*
Y90892D01*
X269664D01*
Y90903D01*
X269653D01*
Y90892D01*
X269643D01*
Y90871D01*
X269621D01*
Y90925D01*
X269610D01*
Y91012D01*
X269599D01*
Y91034D01*
X269588D01*
Y91044D01*
X269566D01*
Y91034D01*
X269545D01*
Y91077D01*
X269534D01*
Y91121D01*
X269523D01*
Y91175D01*
X269512D01*
Y91186D01*
X269458D01*
Y91196D01*
X269447D01*
Y91262D01*
X269436D01*
Y91316D01*
X269425D01*
Y91327D01*
X269414D01*
Y91338D01*
X269382D01*
Y91327D01*
X269360D01*
Y91425D01*
X269349D01*
Y91446D01*
X269338D01*
Y91457D01*
X269327D01*
Y91468D01*
X269317D01*
Y91457D01*
X269306D01*
Y91446D01*
X269284D01*
Y91479D01*
X269273D01*
Y91588D01*
X269262D01*
Y91599D01*
X269208D01*
Y91653D01*
X269197D01*
Y91718D01*
X269186D01*
Y91740D01*
X269175D01*
Y91751D01*
X269154D01*
Y91740D01*
X269132D01*
Y91751D01*
X269121D01*
Y91827D01*
X269110D01*
Y91859D01*
X269099D01*
Y91870D01*
X269077D01*
Y91859D01*
X269067D01*
Y91848D01*
X269056D01*
Y91859D01*
X269045D01*
Y91924D01*
X269034D01*
Y92001D01*
X269023D01*
Y92011D01*
X269012D01*
Y92022D01*
X269002D01*
Y92011D01*
X268969D01*
Y92066D01*
X268958D01*
Y92142D01*
X268947D01*
Y92163D01*
X268882D01*
Y92240D01*
X268871D01*
Y92294D01*
X268860D01*
Y92305D01*
X268806D01*
Y92316D01*
X268795D01*
Y92402D01*
X268784D01*
Y92413D01*
X268773D01*
Y92435D01*
X268741D01*
Y92457D01*
X268730D01*
Y92479D01*
X268719D01*
Y92511D01*
X268708D01*
Y92565D01*
X268697D01*
Y92576D01*
X268643D01*
Y92587D01*
X268632D01*
Y92652D01*
X268621D01*
Y92718D01*
X268610D01*
Y92728D01*
X268556D01*
Y92750D01*
X268545D01*
Y92826D01*
X268534D01*
Y92848D01*
X268524D01*
Y92859D01*
X268513D01*
Y92870D01*
X268502D01*
Y92859D01*
X268491D01*
Y92870D01*
X268480D01*
Y92880D01*
X268469D01*
Y92957D01*
X268458D01*
Y92978D01*
X268447D01*
Y92989D01*
X268404D01*
Y93011D01*
X268393D01*
Y93065D01*
X268382D01*
Y93130D01*
X268371D01*
Y93141D01*
X268339D01*
Y93130D01*
X268317D01*
Y93163D01*
X268306D01*
Y93239D01*
X268295D01*
Y93282D01*
X268284D01*
Y93293D01*
X268263D01*
Y93282D01*
X268241D01*
Y93293D01*
X268230D01*
Y93369D01*
X268219D01*
Y93391D01*
X268208D01*
Y93402D01*
X268197D01*
Y93413D01*
X268187D01*
Y93402D01*
X268176D01*
Y93413D01*
X268165D01*
Y93435D01*
X268154D01*
Y93456D01*
X268143D01*
Y93521D01*
X268132D01*
Y93543D01*
X268121D01*
Y93554D01*
X268067D01*
Y93587D01*
X268056D01*
Y93674D01*
X268045D01*
Y93695D01*
X268024D01*
Y93706D01*
X268002D01*
Y93695D01*
X267980D01*
Y93728D01*
X267969D01*
Y93804D01*
X267959D01*
Y93826D01*
X267948D01*
Y93836D01*
X267937D01*
Y93847D01*
X267915D01*
Y93858D01*
X267904D01*
Y93880D01*
X267893D01*
Y93945D01*
X267882D01*
Y93967D01*
X267828D01*
Y93978D01*
X267817D01*
Y94054D01*
X267806D01*
Y94108D01*
X267785D01*
Y94119D01*
X267774D01*
Y94108D01*
X267752D01*
Y94119D01*
X267741D01*
Y94184D01*
X267730D01*
Y94239D01*
X267719D01*
Y94260D01*
X267665D01*
Y94282D01*
X267654D01*
Y94358D01*
X267644D01*
Y94369D01*
X267633D01*
Y94380D01*
X267611D01*
Y94369D01*
X267600D01*
Y94380D01*
X267589D01*
Y94412D01*
X267578D01*
Y94478D01*
X267567D01*
Y94521D01*
X267557D01*
Y94532D01*
X267502D01*
Y94597D01*
X267491D01*
Y94641D01*
X267481D01*
Y94673D01*
X267470D01*
Y94684D01*
X267415D01*
Y94738D01*
X267404D01*
Y94771D01*
X267394D01*
Y94782D01*
X267383D01*
Y94793D01*
X267372D01*
Y94803D01*
X267361D01*
Y94814D01*
X267350D01*
Y94825D01*
X267339D01*
Y94836D01*
X267328D01*
Y94869D01*
X267318D01*
Y94923D01*
X267307D01*
Y94934D01*
X267285D01*
Y94945D01*
X267274D01*
Y94934D01*
X267263D01*
Y94945D01*
X267252D01*
Y94999D01*
X267241D01*
Y95064D01*
X267231D01*
Y95086D01*
X267165D01*
Y95162D01*
X267155D01*
Y95227D01*
X267144D01*
Y95238D01*
X267133D01*
Y95249D01*
X267111D01*
Y95238D01*
X267100D01*
Y95249D01*
X267089D01*
Y95281D01*
X267078D01*
Y95336D01*
X267068D01*
Y95347D01*
X267013D01*
Y95412D01*
X267003D01*
Y95488D01*
X266992D01*
Y95499D01*
X266981D01*
Y95510D01*
X266970D01*
Y95499D01*
X266937D01*
Y95520D01*
X266926D01*
Y95597D01*
X266916D01*
Y95640D01*
X266905D01*
Y95651D01*
X266861D01*
Y95662D01*
X266850D01*
Y95673D01*
X266840D01*
Y95727D01*
X266829D01*
Y95749D01*
X266818D01*
Y95770D01*
X266796D01*
Y95781D01*
X266785D01*
Y95792D01*
X266774D01*
Y95814D01*
X266763D01*
Y95836D01*
X266753D01*
Y95890D01*
X266742D01*
Y95912D01*
X266720D01*
Y95922D01*
X266677D01*
Y95988D01*
X266666D01*
Y96053D01*
X266655D01*
Y96064D01*
X266600D01*
Y96075D01*
X266590D01*
Y96161D01*
X266579D01*
Y96216D01*
X266525D01*
Y96227D01*
X266514D01*
Y96292D01*
X266503D01*
Y96324D01*
X266481D01*
Y96335D01*
X266470D01*
Y96324D01*
X266448D01*
Y96335D01*
X266437D01*
Y96400D01*
X266427D01*
Y96476D01*
X266416D01*
Y96487D01*
X266362D01*
Y96531D01*
X266351D01*
Y96607D01*
X266340D01*
Y96639D01*
X266275D01*
Y96716D01*
X266264D01*
Y96737D01*
X266253D01*
Y96748D01*
X266242D01*
Y96759D01*
X266231D01*
Y96748D01*
X266220D01*
Y96759D01*
X266199D01*
Y96770D01*
X266188D01*
Y96813D01*
X266177D01*
Y96878D01*
X266166D01*
Y96889D01*
X266144D01*
Y96900D01*
X266122D01*
Y96922D01*
X266112D01*
Y96965D01*
X266101D01*
Y97009D01*
X266090D01*
Y97031D01*
X266079D01*
Y97042D01*
X266025D01*
Y97118D01*
X266014D01*
Y97150D01*
X266003D01*
Y97183D01*
X265992D01*
Y97194D01*
X265949D01*
Y97215D01*
X265938D01*
Y97291D01*
X265927D01*
Y97302D01*
X265862D01*
Y97378D01*
X265851D01*
Y97454D01*
X265829D01*
Y97465D01*
X265818D01*
Y97454D01*
X265797D01*
Y97465D01*
X265786D01*
Y97530D01*
X265775D01*
Y97596D01*
X265764D01*
Y97606D01*
X265731D01*
Y97596D01*
X265710D01*
Y97617D01*
X265699D01*
Y97704D01*
X265688D01*
Y97726D01*
X265677D01*
Y97737D01*
X265655D01*
Y97726D01*
X265634D01*
Y97769D01*
X265623D01*
Y97813D01*
X265612D01*
Y97867D01*
X265601D01*
Y97878D01*
X265547D01*
Y97932D01*
X265536D01*
Y97965D01*
X265525D01*
Y98019D01*
X265492D01*
Y98030D01*
X265471D01*
Y98019D01*
X265449D01*
Y98052D01*
X265438D01*
Y98117D01*
X265427D01*
Y98139D01*
X265438D01*
Y98160D01*
X265427D01*
Y98171D01*
X265373D01*
Y98193D01*
X265362D01*
Y98269D01*
X265351D01*
Y98280D01*
X265297D01*
Y98334D01*
X265286D01*
Y98410D01*
X265275D01*
Y98432D01*
X265264D01*
Y98443D01*
X265243D01*
Y98432D01*
X265221D01*
Y98443D01*
X265210D01*
Y98519D01*
X265199D01*
Y98584D01*
X265188D01*
Y98595D01*
X265166D01*
Y98584D01*
X265134D01*
Y98617D01*
X265123D01*
Y98638D01*
X265134D01*
Y98649D01*
X265123D01*
Y98693D01*
X265112D01*
Y98715D01*
X265101D01*
Y98725D01*
X265090D01*
Y98715D01*
X265079D01*
Y98693D01*
X265069D01*
Y98704D01*
X265058D01*
Y98747D01*
X265047D01*
Y98823D01*
X265036D01*
Y98845D01*
X264982D01*
Y98856D01*
X264971D01*
Y98932D01*
X264960D01*
Y98986D01*
X264949D01*
Y98997D01*
X264884D01*
Y99062D01*
X264873D01*
Y99116D01*
X264862D01*
Y99149D01*
X264851D01*
Y99160D01*
X264819D01*
Y99149D01*
X264797D01*
Y99171D01*
X264786D01*
Y99247D01*
X264775D01*
Y99258D01*
X264732D01*
Y99290D01*
X264743D01*
Y99301D01*
X264732D01*
Y99323D01*
X264721D01*
Y99345D01*
X264710D01*
Y99410D01*
X264699D01*
Y99421D01*
X264645D01*
Y99475D01*
X264634D01*
Y99518D01*
X264623D01*
Y99562D01*
X264558D01*
Y99638D01*
X264547D01*
Y99671D01*
X264536D01*
Y99682D01*
X264504D01*
Y99671D01*
X264482D01*
Y99714D01*
X264471D01*
Y99823D01*
X264406D01*
Y99877D01*
X264395D01*
Y99921D01*
X264384D01*
Y99975D01*
X264319D01*
Y100051D01*
X264308D01*
Y100094D01*
X264297D01*
Y100116D01*
X264243D01*
Y100094D01*
X264221D01*
Y100149D01*
X264232D01*
Y100203D01*
X264221D01*
Y100225D01*
X264210D01*
Y100236D01*
X264189D01*
Y100246D01*
X264156D01*
Y100279D01*
X264145D01*
Y100323D01*
X264134D01*
Y100388D01*
X264080D01*
Y100399D01*
X264069D01*
Y100464D01*
X264058D01*
Y100496D01*
X264047D01*
Y100540D01*
X264037D01*
Y100551D01*
X264015D01*
Y100540D01*
X264004D01*
Y100529D01*
X263993D01*
Y100551D01*
X263982D01*
Y100638D01*
X263971D01*
Y100659D01*
X263960D01*
Y100681D01*
X263939D01*
Y100648D01*
X263917D01*
Y100659D01*
X263906D01*
Y100735D01*
X263895D01*
Y100866D01*
X263885D01*
Y100877D01*
X263863D01*
Y100866D01*
X263830D01*
Y100887D01*
X263819D01*
Y100942D01*
X263808D01*
Y100953D01*
X263797D01*
Y100974D01*
X263808D01*
Y101018D01*
X263797D01*
Y101029D01*
X263787D01*
Y101018D01*
X263776D01*
Y100974D01*
X263787D01*
Y100953D01*
X263754D01*
Y101039D01*
X263743D01*
Y101116D01*
X263732D01*
Y101126D01*
X263667D01*
Y101192D01*
X263656D01*
Y101278D01*
X263569D01*
Y101289D01*
X263559D01*
Y101355D01*
X263548D01*
Y101365D01*
X263482D01*
Y101398D01*
X263493D01*
Y101409D01*
X263482D01*
Y101485D01*
X263493D01*
Y101496D01*
X263482D01*
Y101528D01*
X263461D01*
Y101539D01*
X263439D01*
Y101528D01*
X263428D01*
Y101539D01*
X263417D01*
Y101583D01*
X263406D01*
Y101626D01*
X263396D01*
Y101670D01*
X263385D01*
Y101680D01*
X263374D01*
Y101670D01*
X263363D01*
Y101648D01*
X263352D01*
Y101637D01*
X263341D01*
Y101680D01*
X263330D01*
Y101778D01*
X263319D01*
Y101789D01*
X263287D01*
Y101778D01*
X263265D01*
Y101789D01*
X263254D01*
Y101854D01*
X263244D01*
Y101941D01*
X263178D01*
Y101996D01*
X263167D01*
Y102083D01*
X263157D01*
Y102093D01*
X263124D01*
Y102083D01*
X263102D01*
Y102104D01*
X263091D01*
Y102169D01*
X263070D01*
Y102180D01*
X263059D01*
Y102169D01*
X262994D01*
Y102245D01*
X263004D01*
Y102343D01*
X262994D01*
Y102354D01*
X262939D01*
Y102376D01*
X262928D01*
Y102430D01*
X262917D01*
Y102463D01*
X262907D01*
Y102495D01*
X262863D01*
Y102485D01*
X262841D01*
Y102582D01*
X262831D01*
Y102593D01*
X262820D01*
Y102604D01*
X262809D01*
Y102615D01*
X262798D01*
Y102604D01*
X262776D01*
Y102593D01*
X262765D01*
Y102626D01*
X262755D01*
Y102745D01*
X262744D01*
Y102756D01*
X262689D01*
Y102767D01*
X262679D01*
Y102843D01*
X262668D01*
Y102908D01*
X262657D01*
Y102919D01*
X262635D01*
Y102908D01*
X262613D01*
Y102919D01*
X262603D01*
Y102984D01*
X262592D01*
Y103017D01*
X262581D01*
Y103049D01*
X262559D01*
Y103017D01*
X262548D01*
Y103006D01*
X262537D01*
Y103017D01*
X262526D01*
Y103071D01*
X262516D01*
Y103158D01*
X262505D01*
Y103169D01*
X262472D01*
Y103158D01*
X262450D01*
Y103180D01*
X262439D01*
Y103375D01*
X262429D01*
Y116021D01*
X262374D01*
Y116010D01*
X262363D01*
Y115989D01*
X262353D01*
Y116021D01*
X262342D01*
Y116076D01*
X262331D01*
Y116086D01*
X262168D01*
Y116054D01*
X262157D01*
Y116043D01*
X262146D01*
Y116054D01*
X262135D01*
Y116065D01*
X262114D01*
Y116054D01*
X262103D01*
Y116021D01*
X262092D01*
Y115967D01*
X262103D01*
Y115934D01*
X262092D01*
Y115858D01*
X262081D01*
Y115847D01*
X262070D01*
Y115858D01*
X262027D01*
Y115771D01*
X262016D01*
Y115684D01*
X262005D01*
Y115641D01*
X261994D01*
Y115652D01*
X261983D01*
Y115684D01*
X261961D01*
Y115674D01*
X261951D01*
Y115641D01*
X261940D01*
Y115478D01*
X261929D01*
Y115467D01*
X261864D01*
Y115456D01*
X261853D01*
Y115250D01*
X261842D01*
Y115228D01*
X261831D01*
Y115272D01*
X261820D01*
Y115282D01*
X261809D01*
Y115272D01*
X261798D01*
Y115282D01*
X261788D01*
Y115272D01*
X261777D01*
Y115054D01*
X261690D01*
Y115043D01*
X261679D01*
Y114924D01*
X261668D01*
Y114902D01*
X261636D01*
Y114913D01*
X261625D01*
Y114902D01*
X261614D01*
Y114891D01*
X261603D01*
Y114718D01*
X261592D01*
Y114631D01*
X261570D01*
Y114642D01*
X261538D01*
Y114631D01*
X261527D01*
Y114555D01*
X261516D01*
Y114479D01*
X261429D01*
Y114489D01*
X261407D01*
Y114500D01*
X261418D01*
Y114511D01*
X261440D01*
Y114533D01*
X261418D01*
Y114544D01*
X261397D01*
Y114555D01*
X261364D01*
Y114565D01*
X261320D01*
Y114555D01*
X261310D01*
Y114565D01*
X261299D01*
Y114631D01*
X261288D01*
Y114718D01*
X261277D01*
Y114728D01*
X261245D01*
Y114718D01*
X261223D01*
Y114804D01*
X261212D01*
Y114891D01*
X261201D01*
Y114902D01*
X261168D01*
Y114891D01*
X261147D01*
Y114913D01*
X261136D01*
Y115033D01*
X261125D01*
Y115054D01*
X261060D01*
Y115119D01*
X261049D01*
Y115196D01*
X261038D01*
Y115206D01*
X260973D01*
Y115217D01*
X260962D01*
Y115304D01*
X260951D01*
Y115369D01*
X260940D01*
Y115380D01*
X260908D01*
Y115358D01*
X260886D01*
Y115435D01*
X260875D01*
Y115467D01*
X260853D01*
Y115478D01*
X260832D01*
Y115467D01*
X260810D01*
Y115478D01*
X260799D01*
Y115619D01*
X260788D01*
Y115641D01*
X260756D01*
Y115630D01*
X260734D01*
Y115641D01*
X260723D01*
Y115782D01*
X260712D01*
Y115793D01*
X260701D01*
Y115804D01*
X260679D01*
Y115793D01*
X260647D01*
Y115858D01*
X260636D01*
Y115956D01*
X260593D01*
Y115945D01*
X260582D01*
Y115956D01*
X260571D01*
Y115999D01*
X260560D01*
Y116021D01*
X260549D01*
Y116032D01*
X260516D01*
Y116021D01*
X260506D01*
Y116032D01*
X260495D01*
Y116086D01*
X260484D01*
Y116097D01*
X260473D01*
Y116108D01*
X260375D01*
Y116032D01*
X260364D01*
Y112197D01*
X260343D01*
Y112251D01*
X260332D01*
Y112327D01*
X260321D01*
Y112251D01*
X260310D01*
Y112056D01*
X260321D01*
Y112001D01*
X260332D01*
Y112078D01*
X260343D01*
Y112175D01*
X260354D01*
Y112164D01*
X260364D01*
Y109600D01*
X260375D01*
Y109590D01*
X260364D01*
Y109448D01*
X260375D01*
Y109438D01*
X260364D01*
Y109427D01*
X260375D01*
Y106971D01*
X260267D01*
Y107004D01*
X260278D01*
Y107058D01*
X260256D01*
Y107069D01*
X260158D01*
Y107080D01*
X260147D01*
Y107221D01*
X260125D01*
Y107232D01*
X260082D01*
Y107276D01*
X260071D01*
Y107330D01*
X260060D01*
Y107362D01*
X260049D01*
Y107373D01*
X260028D01*
Y107362D01*
X260017D01*
Y107352D01*
X260006D01*
Y107373D01*
X259995D01*
Y107471D01*
X259984D01*
Y107493D01*
X259930D01*
Y107504D01*
X259919D01*
Y107580D01*
X259908D01*
Y107634D01*
X259897D01*
Y107645D01*
X259843D01*
Y107667D01*
X259832D01*
Y107743D01*
X259821D01*
Y107786D01*
X259767D01*
Y107797D01*
X259756D01*
Y107873D01*
X259745D01*
Y107906D01*
X259734D01*
Y107927D01*
X259713D01*
Y107916D01*
X259702D01*
Y107927D01*
X259691D01*
Y107916D01*
X259680D01*
Y107906D01*
X259669D01*
Y107916D01*
X259658D01*
Y108047D01*
X259647D01*
Y108058D01*
X259604D01*
Y108047D01*
X259593D01*
Y108058D01*
X259582D01*
Y108090D01*
X259571D01*
Y108199D01*
X259561D01*
Y108210D01*
X259506D01*
Y108275D01*
X259495D01*
Y108308D01*
X259484D01*
Y108351D01*
X259474D01*
Y108362D01*
X259452D01*
Y108329D01*
X259441D01*
Y108319D01*
X259430D01*
Y108362D01*
X259419D01*
Y108449D01*
X259408D01*
Y108471D01*
X259365D01*
Y108460D01*
X259354D01*
Y108471D01*
X259343D01*
Y108525D01*
X259332D01*
Y108612D01*
X259321D01*
Y108623D01*
X259289D01*
Y108612D01*
X259278D01*
Y108623D01*
X259267D01*
Y108655D01*
X259256D01*
Y108710D01*
X259245D01*
Y108753D01*
X259235D01*
Y108764D01*
X259224D01*
Y108753D01*
X259213D01*
Y108721D01*
X259191D01*
Y108775D01*
X259180D01*
Y108862D01*
X259169D01*
Y108883D01*
X259158D01*
Y108894D01*
X259148D01*
Y108883D01*
X259104D01*
Y108873D01*
X259093D01*
Y108883D01*
X259083D01*
Y108938D01*
X259093D01*
Y109025D01*
X259083D01*
Y109036D01*
X259028D01*
Y109025D01*
X259006D01*
Y109057D01*
X258996D01*
Y109177D01*
X258985D01*
Y109188D01*
X258952D01*
Y109177D01*
X258930D01*
Y109188D01*
X258920D01*
Y109340D01*
X258909D01*
Y109351D01*
X258876D01*
Y109340D01*
X258854D01*
Y109351D01*
X258843D01*
Y109405D01*
X258833D01*
Y109427D01*
X258767D01*
Y109459D01*
X258778D01*
Y109470D01*
X258767D01*
Y109590D01*
X258757D01*
Y109600D01*
X258746D01*
Y109611D01*
X258724D01*
Y109600D01*
X258691D01*
Y109666D01*
X258680D01*
Y109753D01*
X258615D01*
Y109774D01*
X258605D01*
Y109861D01*
X258594D01*
Y109894D01*
X258583D01*
Y109905D01*
X258572D01*
Y109894D01*
X258561D01*
Y109872D01*
X258539D01*
Y109916D01*
X258528D01*
Y109992D01*
X258517D01*
Y110013D01*
X258485D01*
Y110002D01*
X258463D01*
Y110013D01*
X258452D01*
Y110078D01*
X258442D01*
Y110155D01*
X258431D01*
Y110165D01*
X258355D01*
Y110220D01*
X258344D01*
Y110252D01*
X258279D01*
Y110405D01*
X258268D01*
Y110426D01*
X258213D01*
Y110437D01*
X258202D01*
Y110491D01*
X258192D01*
Y110556D01*
X258181D01*
Y110567D01*
X258170D01*
Y110578D01*
X258148D01*
Y110567D01*
X258126D01*
Y110611D01*
X258116D01*
Y110665D01*
X258105D01*
Y110709D01*
X258094D01*
Y110719D01*
X258050D01*
Y110730D01*
X258039D01*
Y110796D01*
X258029D01*
Y110839D01*
X258018D01*
Y110850D01*
X257985D01*
Y110839D01*
X257974D01*
Y110861D01*
X257964D01*
Y110915D01*
X257953D01*
Y110980D01*
X257942D01*
Y110991D01*
X257909D01*
Y110980D01*
X257898D01*
Y110991D01*
X257887D01*
Y111035D01*
X257876D01*
Y111111D01*
X257866D01*
Y111132D01*
X257811D01*
Y111143D01*
X257801D01*
Y111219D01*
X257790D01*
Y111241D01*
X257779D01*
Y111252D01*
X257724D01*
Y111263D01*
X257714D01*
Y111317D01*
X257703D01*
Y111393D01*
X257681D01*
Y111404D01*
X257648D01*
Y111415D01*
X257638D01*
Y111469D01*
X257627D01*
Y111534D01*
X257616D01*
Y111545D01*
X257605D01*
Y111556D01*
X257551D01*
Y111578D01*
X257540D01*
Y111643D01*
X257529D01*
Y111686D01*
X257518D01*
Y111697D01*
X257485D01*
Y111708D01*
X257475D01*
Y111719D01*
X257464D01*
Y111795D01*
X257453D01*
Y111817D01*
X257442D01*
Y111828D01*
X257420D01*
Y111817D01*
X257398D01*
Y111828D01*
X257388D01*
Y111882D01*
X257377D01*
Y111958D01*
X257366D01*
Y111969D01*
X257344D01*
Y111958D01*
X257323D01*
Y111969D01*
X257312D01*
Y112034D01*
X257301D01*
Y112099D01*
X257290D01*
Y112110D01*
X257279D01*
Y112121D01*
X257268D01*
Y112110D01*
X257257D01*
Y112099D01*
X257246D01*
Y112110D01*
X257236D01*
Y112121D01*
X257225D01*
Y112208D01*
X257214D01*
Y112219D01*
X257160D01*
Y112262D01*
X257149D01*
Y112338D01*
X257138D01*
Y112371D01*
X257127D01*
Y112382D01*
X257073D01*
Y112371D01*
X257062D01*
Y112382D01*
X257051D01*
Y112512D01*
X257040D01*
Y112523D01*
X256986D01*
Y112534D01*
X256975D01*
Y112610D01*
X256964D01*
Y112653D01*
X256953D01*
Y112664D01*
X256942D01*
Y112675D01*
X256910D01*
Y112686D01*
X256899D01*
Y112708D01*
X256888D01*
Y112784D01*
X256877D01*
Y112795D01*
X256866D01*
Y112805D01*
X256834D01*
Y112838D01*
X256823D01*
Y112860D01*
X256812D01*
Y112925D01*
X256801D01*
Y112936D01*
X256790D01*
Y112947D01*
X256768D01*
Y112936D01*
X256747D01*
Y112947D01*
X256736D01*
Y113012D01*
X256725D01*
Y113077D01*
X256714D01*
Y113088D01*
X256681D01*
Y113077D01*
X256671D01*
Y113088D01*
X256660D01*
Y113153D01*
X256649D01*
Y113196D01*
X256638D01*
Y113207D01*
X256627D01*
Y113218D01*
X256616D01*
Y113207D01*
X256605D01*
Y113196D01*
X256584D01*
Y113240D01*
X256573D01*
Y113338D01*
X256562D01*
Y113349D01*
X256551D01*
Y113359D01*
X256529D01*
Y113349D01*
X256508D01*
Y113370D01*
X256497D01*
Y113446D01*
X256486D01*
Y113501D01*
X256421D01*
Y113512D01*
X256410D01*
Y113577D01*
X256399D01*
Y113598D01*
X256388D01*
Y113642D01*
X256377D01*
Y113653D01*
X256356D01*
Y113664D01*
X256334D01*
Y113696D01*
X256323D01*
Y113751D01*
X256312D01*
Y113762D01*
X256301D01*
Y113772D01*
X256258D01*
Y113805D01*
X256247D01*
Y113848D01*
X256236D01*
Y113903D01*
X256225D01*
Y113914D01*
X256171D01*
Y113935D01*
X256160D01*
Y114055D01*
X256149D01*
Y114077D01*
X256084D01*
Y114131D01*
X256073D01*
Y114207D01*
X256084D01*
Y114218D01*
X256073D01*
Y114240D01*
X256051D01*
Y114250D01*
X256040D01*
Y114240D01*
X256008D01*
Y114261D01*
X255997D01*
Y114326D01*
X255986D01*
Y114337D01*
X255954D01*
Y114326D01*
X255932D01*
Y114392D01*
X255921D01*
Y114468D01*
X255910D01*
Y114479D01*
X255845D01*
Y114544D01*
X255834D01*
Y114598D01*
X255823D01*
Y114620D01*
X255780D01*
Y114631D01*
X255769D01*
Y114642D01*
X255758D01*
Y114718D01*
X255747D01*
Y114739D01*
X255725D01*
Y114750D01*
X255693D01*
Y114772D01*
X255682D01*
Y114815D01*
X255671D01*
Y114881D01*
X255660D01*
Y114891D01*
X255628D01*
Y114902D01*
X255617D01*
Y114891D01*
X255595D01*
Y114946D01*
X255584D01*
Y115000D01*
X255573D01*
Y115043D01*
X255541D01*
Y115033D01*
X255530D01*
Y115022D01*
X255519D01*
Y115054D01*
X255508D01*
Y115141D01*
X255497D01*
Y115163D01*
X255486D01*
Y115174D01*
X255465D01*
Y115163D01*
X255443D01*
Y115185D01*
X255432D01*
Y115239D01*
X255421D01*
Y115304D01*
X255410D01*
Y115315D01*
X255389D01*
Y115304D01*
X255367D01*
Y115315D01*
X255356D01*
Y115391D01*
X255345D01*
Y115456D01*
X255334D01*
Y115467D01*
X255302D01*
Y115456D01*
X255280D01*
Y115467D01*
X255269D01*
Y115543D01*
X255258D01*
Y115554D01*
X255247D01*
Y115565D01*
X255226D01*
Y115554D01*
X255204D01*
Y115565D01*
X255193D01*
Y115576D01*
X255204D01*
Y115587D01*
X255215D01*
Y115597D01*
X255204D01*
Y115608D01*
X255193D01*
Y115684D01*
X255182D01*
Y115706D01*
X255095D01*
Y115858D01*
X255084D01*
Y115869D01*
X255041D01*
Y115880D01*
X255030D01*
Y115945D01*
X255019D01*
Y115989D01*
X255008D01*
Y116021D01*
X254943D01*
Y116043D01*
X254932D01*
Y116119D01*
X254921D01*
Y116130D01*
X254878D01*
Y116173D01*
X254867D01*
Y116195D01*
X254856D01*
Y116260D01*
X254845D01*
Y116282D01*
X254791D01*
Y116293D01*
X254780D01*
Y116369D01*
X254769D01*
Y116423D01*
X254758D01*
Y116434D01*
X254726D01*
Y116423D01*
X254715D01*
Y116434D01*
X254704D01*
Y116488D01*
X254693D01*
Y116543D01*
X254683D01*
Y116575D01*
X254650D01*
Y116565D01*
X254639D01*
Y116575D01*
X254628D01*
Y116597D01*
X254617D01*
Y116684D01*
X254606D01*
Y116695D01*
X254552D01*
Y116706D01*
X254541D01*
Y116782D01*
X254530D01*
Y116847D01*
X254476D01*
Y116858D01*
X254465D01*
Y116869D01*
X254454D01*
Y116934D01*
X254443D01*
Y116988D01*
X254433D01*
Y116999D01*
X254378D01*
Y117021D01*
X254367D01*
Y117097D01*
X254356D01*
Y117108D01*
X254346D01*
Y117119D01*
X254324D01*
Y117129D01*
X254313D01*
Y117119D01*
X254302D01*
Y117140D01*
X254291D01*
Y117173D01*
X254280D01*
Y117249D01*
X254270D01*
Y117260D01*
X254215D01*
Y117314D01*
X254204D01*
Y117390D01*
X254194D01*
Y117412D01*
X254139D01*
Y117423D01*
X254128D01*
Y117488D01*
X254118D01*
Y117531D01*
X254107D01*
Y117564D01*
X254063D01*
Y117575D01*
X254052D01*
Y117607D01*
X254042D01*
Y117662D01*
X254031D01*
Y117673D01*
X253976D01*
Y117727D01*
X253965D01*
Y117803D01*
X253955D01*
Y117825D01*
X253944D01*
Y117836D01*
X253933D01*
Y117825D01*
X253900D01*
Y117846D01*
X253889D01*
Y117922D01*
X253878D01*
Y117977D01*
X253868D01*
Y117988D01*
X253846D01*
Y117977D01*
X253835D01*
Y117988D01*
X253803D01*
Y118020D01*
X253792D01*
Y118075D01*
X253759D01*
Y118085D01*
X253716D01*
Y118227D01*
X253705D01*
Y118237D01*
X253672D01*
Y118248D01*
X253650D01*
Y118281D01*
X253640D01*
Y118324D01*
X253629D01*
Y118379D01*
X253618D01*
Y118390D01*
X253563D01*
Y118411D01*
X253553D01*
Y118487D01*
X253542D01*
Y118520D01*
X253531D01*
Y118531D01*
X253520D01*
Y118542D01*
X253509D01*
Y118531D01*
X253498D01*
Y118542D01*
X253487D01*
Y118553D01*
X253477D01*
Y118618D01*
X253466D01*
Y118650D01*
X253411D01*
Y118661D01*
X253400D01*
Y118726D01*
X253390D01*
Y118802D01*
X253368D01*
Y118813D01*
X253357D01*
Y118802D01*
X253325D01*
Y118824D01*
X253314D01*
Y118900D01*
X253303D01*
Y118955D01*
X253237D01*
Y119031D01*
X253227D01*
Y119074D01*
X253216D01*
Y119085D01*
X253183D01*
Y119096D01*
X253172D01*
Y119085D01*
X253162D01*
Y119074D01*
X253140D01*
Y119183D01*
X253129D01*
Y119270D01*
X253118D01*
Y119281D01*
X253085D01*
Y119259D01*
X253064D01*
Y119302D01*
X253053D01*
Y119400D01*
X253042D01*
Y119411D01*
X253053D01*
Y119443D01*
X252988D01*
Y119454D01*
X252977D01*
Y119530D01*
X252901D01*
Y119596D01*
X252890D01*
Y119617D01*
X252825D01*
Y119693D01*
X252814D01*
Y119780D01*
X252792D01*
Y119791D01*
X252781D01*
Y119780D01*
X252749D01*
Y119845D01*
X252738D01*
Y119900D01*
X252727D01*
Y119932D01*
X252705D01*
Y119922D01*
X252694D01*
Y119911D01*
X252673D01*
Y119943D01*
X252662D01*
Y120030D01*
X252651D01*
Y120041D01*
X252586D01*
Y120063D01*
X252575D01*
Y120182D01*
X252564D01*
Y120193D01*
X252499D01*
Y120215D01*
X252488D01*
Y120334D01*
X252477D01*
Y120345D01*
X252434D01*
Y120334D01*
X252412D01*
Y120356D01*
X252401D01*
Y120421D01*
X252390D01*
Y120432D01*
X252379D01*
Y120454D01*
X252390D01*
Y120497D01*
X252336D01*
Y120519D01*
X252325D01*
Y120573D01*
X252314D01*
Y120595D01*
X252271D01*
Y120584D01*
X252260D01*
Y120595D01*
X252249D01*
Y120747D01*
X252238D01*
Y120758D01*
X252227D01*
Y120769D01*
X252205D01*
Y120758D01*
X252184D01*
Y120769D01*
X252173D01*
Y120834D01*
X252162D01*
Y120899D01*
X252151D01*
Y120910D01*
X252118D01*
Y120899D01*
X252108D01*
Y120910D01*
X252097D01*
Y120975D01*
X252086D01*
Y121019D01*
X252075D01*
Y121040D01*
X252053D01*
Y121030D01*
X252043D01*
Y121019D01*
X252021D01*
Y121062D01*
X252010D01*
Y121149D01*
X251999D01*
Y121171D01*
X251966D01*
Y121160D01*
X251945D01*
Y121171D01*
X251934D01*
Y121247D01*
X251923D01*
Y121312D01*
X251912D01*
Y121323D01*
X251858D01*
Y121334D01*
X251847D01*
Y121399D01*
X251836D01*
Y121421D01*
X251825D01*
Y121432D01*
X251803D01*
Y121442D01*
X251793D01*
Y121453D01*
X251782D01*
Y121464D01*
X251771D01*
Y121497D01*
X251760D01*
Y121562D01*
X251749D01*
Y121573D01*
X251738D01*
Y121584D01*
X251695D01*
Y121616D01*
X251684D01*
Y121660D01*
X251673D01*
Y121714D01*
X251662D01*
Y121725D01*
X251608D01*
Y121801D01*
X251597D01*
Y121834D01*
X251586D01*
Y121866D01*
X251575D01*
Y121877D01*
X251554D01*
Y121866D01*
X251532D01*
Y121877D01*
X251521D01*
Y121964D01*
X251510D01*
Y121997D01*
X251488D01*
Y122007D01*
X251478D01*
Y121997D01*
X251456D01*
Y122007D01*
X251445D01*
Y122073D01*
X251434D01*
Y122138D01*
X251423D01*
Y122149D01*
X251391D01*
Y122138D01*
X251380D01*
Y122149D01*
X251369D01*
Y122181D01*
X251358D01*
Y122257D01*
X251347D01*
Y122290D01*
X251336D01*
Y122301D01*
X251325D01*
Y122290D01*
X251282D01*
Y122366D01*
X251271D01*
Y122399D01*
X251260D01*
Y122420D01*
X251238D01*
Y122409D01*
X251228D01*
Y122420D01*
X251217D01*
Y122409D01*
X251184D01*
Y122551D01*
X251173D01*
Y122562D01*
X251108D01*
Y122627D01*
X251097D01*
Y122703D01*
X251086D01*
Y122714D01*
X251054D01*
Y122703D01*
X251032D01*
Y122724D01*
X251021D01*
Y122801D01*
X251010D01*
Y122855D01*
X251000D01*
Y122866D01*
X250978D01*
Y122844D01*
X250967D01*
Y122822D01*
X250956D01*
Y122866D01*
X250945D01*
Y122942D01*
X250934D01*
Y122963D01*
X250924D01*
Y122974D01*
X250902D01*
Y122963D01*
X250869D01*
Y123029D01*
X250858D01*
Y123116D01*
X250847D01*
Y123126D01*
X250815D01*
Y123116D01*
X250793D01*
Y123148D01*
X250782D01*
Y123192D01*
X250771D01*
Y123279D01*
X250739D01*
Y123268D01*
X250728D01*
Y123279D01*
X250717D01*
Y123289D01*
X250706D01*
Y123365D01*
X250695D01*
Y123376D01*
X250685D01*
Y123387D01*
X250674D01*
Y123376D01*
X250652D01*
Y123387D01*
X250641D01*
Y123376D01*
X250608D01*
Y123441D01*
X250619D01*
Y123518D01*
X250608D01*
Y123528D01*
X250532D01*
Y123550D01*
X250522D01*
Y123637D01*
X250532D01*
Y123670D01*
X250522D01*
Y123680D01*
X250500D01*
Y123691D01*
X250489D01*
Y123680D01*
X250456D01*
Y123702D01*
X250445D01*
Y123767D01*
X250435D01*
Y123833D01*
X250424D01*
Y123843D01*
X250413D01*
Y123833D01*
X250402D01*
Y123811D01*
X250391D01*
Y123789D01*
X250402D01*
Y123778D01*
X250391D01*
Y123767D01*
X250380D01*
Y123854D01*
X250369D01*
Y123941D01*
X250348D01*
Y123952D01*
X250326D01*
Y123941D01*
X250304D01*
Y123952D01*
X250293D01*
Y124028D01*
X250282D01*
Y124061D01*
X250293D01*
Y124072D01*
X250282D01*
Y124093D01*
X250217D01*
Y124104D01*
X250206D01*
Y124321D01*
X254661D01*
Y124332D01*
X255117D01*
Y124321D01*
X255226D01*
Y124332D01*
X255617D01*
Y124321D01*
X255823D01*
Y124332D01*
X255965D01*
Y124321D01*
X256008D01*
Y124332D01*
X256453D01*
Y124321D01*
X256508D01*
Y124332D01*
X256877D01*
Y124321D01*
X257138D01*
Y124332D01*
X257279D01*
Y124321D01*
X257398D01*
Y124332D01*
X258235D01*
Y124321D01*
X258474D01*
Y124332D01*
X259093D01*
Y124321D01*
X260386D01*
Y124332D01*
X260419D01*
Y124321D01*
X260441D01*
Y124332D01*
X260473D01*
Y124321D01*
X260484D01*
Y124245D01*
X260549D01*
Y124235D01*
X260560D01*
Y124169D01*
X260549D01*
Y124061D01*
X260560D01*
Y124050D01*
X260593D01*
Y124039D01*
X260604D01*
Y124017D01*
X260614D01*
Y123974D01*
X260625D01*
Y123919D01*
X260636D01*
Y123909D01*
X260701D01*
Y123887D01*
X260712D01*
Y123757D01*
X260723D01*
Y123746D01*
X260777D01*
Y123735D01*
X260788D01*
Y123659D01*
X260799D01*
Y123594D01*
X260810D01*
Y123583D01*
X260832D01*
Y123594D01*
X260864D01*
Y123528D01*
X260875D01*
Y123452D01*
X260886D01*
Y123431D01*
X260919D01*
Y123452D01*
X260929D01*
Y123441D01*
X260940D01*
Y123420D01*
X260951D01*
Y123355D01*
X260973D01*
Y123344D01*
X260984D01*
Y123355D01*
X261016D01*
Y123257D01*
X261027D01*
Y123181D01*
X261038D01*
Y123170D01*
X261049D01*
Y123159D01*
X261060D01*
Y123170D01*
X261125D01*
Y123105D01*
X261114D01*
Y123007D01*
X261125D01*
Y122996D01*
X261179D01*
Y123007D01*
X261190D01*
Y122996D01*
X261201D01*
Y122855D01*
X261212D01*
Y122844D01*
X261277D01*
Y122833D01*
X261288D01*
Y122681D01*
X261320D01*
Y122670D01*
X261331D01*
Y122616D01*
X261342D01*
Y122605D01*
X261527D01*
Y122616D01*
X261538D01*
Y122735D01*
X261560D01*
Y122703D01*
X261603D01*
Y122746D01*
X261614D01*
Y122909D01*
X261636D01*
Y122898D01*
X261690D01*
Y122909D01*
X261701D01*
Y123094D01*
X261755D01*
Y123083D01*
X261766D01*
Y123094D01*
X261777D01*
Y123170D01*
X261788D01*
Y123257D01*
X261798D01*
Y123333D01*
X261820D01*
Y123322D01*
X261831D01*
Y123268D01*
X261842D01*
Y123279D01*
X261853D01*
Y123289D01*
X261842D01*
Y123322D01*
X261853D01*
Y123355D01*
X261864D01*
Y123441D01*
X261875D01*
Y123496D01*
X261896D01*
Y123485D01*
X261907D01*
Y123474D01*
X261929D01*
Y123496D01*
X261940D01*
Y123615D01*
X261951D01*
Y123680D01*
X261961D01*
Y123691D01*
X261972D01*
Y123680D01*
X261983D01*
Y123670D01*
X262005D01*
Y123680D01*
X262016D01*
Y123767D01*
X262027D01*
Y123887D01*
X262038D01*
Y123898D01*
X262059D01*
Y123887D01*
X262081D01*
Y123898D01*
X262092D01*
Y123909D01*
X262103D01*
Y124061D01*
X262114D01*
Y124072D01*
X262135D01*
Y124061D01*
X262168D01*
Y124072D01*
X262179D01*
Y124245D01*
X262190D01*
Y124321D01*
X262222D01*
Y124311D01*
X262233D01*
Y124321D01*
X262266D01*
Y124332D01*
X271783D01*
Y124321D01*
D02*
G37*
G36*
X327592Y124300D02*
X327473D01*
Y124311D01*
X327592D01*
Y124300D01*
D02*
G37*
G36*
X327462D02*
X326745D01*
Y124289D01*
X326516D01*
Y124300D01*
X326451D01*
Y124311D01*
X327462D01*
Y124300D01*
D02*
G37*
G36*
X326441D02*
X326430D01*
Y124289D01*
X326408D01*
Y124311D01*
X326441D01*
Y124300D01*
D02*
G37*
G36*
X316000Y124289D02*
X315989D01*
Y124300D01*
X315978D01*
Y124311D01*
X316000D01*
Y124289D01*
D02*
G37*
G36*
X337696Y123854D02*
Y123843D01*
X337685D01*
Y123854D01*
X337674D01*
Y123865D01*
X337696D01*
Y123854D01*
D02*
G37*
G36*
X250739Y123192D02*
X250717D01*
Y123213D01*
X250739D01*
Y123192D01*
D02*
G37*
G36*
X337196Y123040D02*
X337185D01*
Y123050D01*
X337196D01*
Y123040D01*
D02*
G37*
G36*
X315837Y120736D02*
X315826D01*
Y120747D01*
X315837D01*
Y120736D01*
D02*
G37*
G36*
X315870Y120747D02*
X315881D01*
Y120736D01*
X315870D01*
Y120725D01*
X315859D01*
Y120736D01*
X315848D01*
Y120747D01*
X315859D01*
Y120769D01*
X315870D01*
Y120747D01*
D02*
G37*
G36*
X252358Y120432D02*
X252347D01*
Y120443D01*
X252358D01*
Y120432D01*
D02*
G37*
G36*
X338908Y120348D02*
Y120337D01*
X338897D01*
Y120348D01*
X338886D01*
Y120359D01*
X338908D01*
Y120348D01*
D02*
G37*
G36*
X250963Y119677D02*
X250940D01*
Y119699D01*
X250963D01*
Y119677D01*
D02*
G37*
G36*
X338402Y119524D02*
X338391D01*
Y119535D01*
X338402D01*
Y119524D01*
D02*
G37*
G36*
X333861Y117368D02*
X333850D01*
Y117379D01*
Y117390D01*
X333861D01*
Y117368D01*
D02*
G37*
G36*
Y117347D02*
X333872D01*
Y117336D01*
X333861D01*
Y117325D01*
X333839D01*
Y117347D01*
X333850D01*
Y117358D01*
X333861D01*
Y117347D01*
D02*
G37*
G36*
X252600Y116887D02*
X252589D01*
Y116898D01*
X252600D01*
Y116887D01*
D02*
G37*
G36*
X332818Y115554D02*
X332807D01*
Y115576D01*
X332818D01*
Y115554D01*
D02*
G37*
G36*
X331547Y114804D02*
X331514D01*
Y114815D01*
X331547D01*
Y114804D01*
D02*
G37*
G36*
X335029Y113788D02*
X335018D01*
Y113799D01*
Y113810D01*
X335029D01*
Y113788D01*
D02*
G37*
G36*
Y113766D02*
X335040D01*
Y113755D01*
X335029D01*
Y113744D01*
X335007D01*
Y113766D01*
X335018D01*
Y113777D01*
X335029D01*
Y113766D01*
D02*
G37*
G36*
X333974Y111953D02*
X333963D01*
Y111975D01*
X333974D01*
Y111953D01*
D02*
G37*
G36*
X330373Y111382D02*
X330341D01*
Y111404D01*
X330352D01*
Y111415D01*
X330373D01*
Y111382D01*
D02*
G37*
G36*
X332689Y111195D02*
X332656D01*
Y111206D01*
X332689D01*
Y111195D01*
D02*
G37*
G36*
X331502Y107734D02*
X331469D01*
Y107756D01*
X331480D01*
Y107767D01*
X331502D01*
Y107734D01*
D02*
G37*
G36*
X315044Y107580D02*
X315033D01*
Y107569D01*
X315022D01*
Y107580D01*
X315011D01*
Y107601D01*
X315044D01*
Y107580D01*
D02*
G37*
G36*
X302398Y106091D02*
X302387D01*
Y106102D01*
X302398D01*
Y106091D01*
D02*
G37*
G36*
X326777Y105287D02*
X326756D01*
Y105298D01*
X326777D01*
Y105287D01*
D02*
G37*
G36*
X326462Y104712D02*
X326441D01*
Y104733D01*
X326462D01*
Y104712D01*
D02*
G37*
G36*
X306646Y103832D02*
X306635D01*
Y103842D01*
X306646D01*
Y103832D01*
D02*
G37*
G36*
X306624D02*
X306613D01*
Y103821D01*
X306592D01*
Y103832D01*
Y103842D01*
X306624D01*
Y103832D01*
D02*
G37*
G36*
X303209Y102383D02*
X303198D01*
Y102394D01*
X303209D01*
Y102383D01*
D02*
G37*
G36*
X327865Y101570D02*
X327843D01*
Y101581D01*
X327865D01*
Y101570D01*
D02*
G37*
G36*
X327546Y100988D02*
X327524D01*
Y101010D01*
X327546D01*
Y100988D01*
D02*
G37*
G36*
X324007Y100562D02*
X323996D01*
Y100583D01*
X324007D01*
Y100562D01*
D02*
G37*
G36*
X293946Y100279D02*
X293924D01*
Y100377D01*
Y100388D01*
Y100399D01*
X293946D01*
Y100279D01*
D02*
G37*
G36*
X307505Y100098D02*
X307494D01*
Y100108D01*
X307505D01*
Y100098D01*
D02*
G37*
G36*
X307483D02*
X307472D01*
Y100086D01*
X307450D01*
Y100098D01*
Y100108D01*
X307483D01*
Y100098D01*
D02*
G37*
G36*
X293946Y99942D02*
X293924D01*
Y100040D01*
Y100051D01*
Y100062D01*
X293946D01*
Y99942D01*
D02*
G37*
G36*
X315685Y99910D02*
X315674D01*
Y99921D01*
Y99931D01*
Y99942D01*
X315685D01*
Y99910D01*
D02*
G37*
G36*
Y97856D02*
X315696D01*
Y97780D01*
Y97769D01*
Y97683D01*
X315685D01*
Y97672D01*
X315674D01*
Y97683D01*
X315663D01*
Y97845D01*
X315674D01*
Y97867D01*
X315685D01*
Y97856D01*
D02*
G37*
G36*
X325063Y96790D02*
X325052D01*
Y96812D01*
X325063D01*
Y96790D01*
D02*
G37*
G36*
X270522Y89339D02*
X270512D01*
Y89350D01*
X270522D01*
Y89339D01*
D02*
G37*
G36*
X316837Y88328D02*
X316826D01*
Y88339D01*
X316815D01*
Y88361D01*
X316837D01*
Y88328D01*
D02*
G37*
G36*
X316597Y87916D02*
X316587D01*
Y87926D01*
Y87937D01*
X316597D01*
Y87916D01*
D02*
G37*
G36*
X316337Y87546D02*
X316348D01*
Y87524D01*
X316315D01*
Y87546D01*
X316326D01*
Y87557D01*
X316337D01*
Y87546D01*
D02*
G37*
G36*
X271674Y87383D02*
X271663D01*
Y87394D01*
X271674D01*
Y87383D01*
D02*
G37*
G36*
X316261Y87351D02*
X316250D01*
Y87361D01*
X316261D01*
Y87351D01*
D02*
G37*
G36*
X293946Y85938D02*
X293924D01*
Y86047D01*
Y86058D01*
X293946D01*
Y85938D01*
D02*
G37*
G36*
Y85602D02*
X293924D01*
Y85688D01*
Y85699D01*
Y85732D01*
X293946D01*
Y85602D01*
D02*
G37*
G36*
X270971Y85440D02*
X270960D01*
Y85451D01*
X270971D01*
Y85440D01*
D02*
G37*
G36*
X317811Y84418D02*
X317800D01*
Y84429D01*
X317789D01*
Y84451D01*
X317811D01*
Y84418D01*
D02*
G37*
G36*
X317570Y84001D02*
X317559D01*
Y84012D01*
Y84023D01*
X317570D01*
Y84001D01*
D02*
G37*
G36*
X317306Y83627D02*
X317317D01*
Y83605D01*
X317284D01*
Y83627D01*
X317295D01*
Y83638D01*
X317306D01*
Y83627D01*
D02*
G37*
G36*
X272136Y83462D02*
X272125D01*
Y83473D01*
X272136D01*
Y83462D01*
D02*
G37*
G36*
X317229Y83429D02*
X317218D01*
Y83440D01*
X317229D01*
Y83429D01*
D02*
G37*
G36*
X293946Y83407D02*
Y83396D01*
Y83309D01*
X293935D01*
Y83320D01*
X293924D01*
Y83450D01*
X293946D01*
Y83407D01*
D02*
G37*
G36*
Y82994D02*
X293935D01*
Y83005D01*
X293924D01*
Y83124D01*
X293935D01*
Y83135D01*
X293946D01*
Y82994D01*
D02*
G37*
G36*
X311470Y79126D02*
X311448D01*
Y79137D01*
X311437D01*
Y79148D01*
X311448D01*
Y79159D01*
X311470D01*
Y79126D01*
D02*
G37*
G36*
X309253Y75389D02*
Y75378D01*
X309232D01*
Y75400D01*
X309253D01*
Y75389D01*
D02*
G37*
G36*
X312383Y75112D02*
X312362D01*
Y75123D01*
X312351D01*
Y75134D01*
X312362D01*
Y75145D01*
X312383D01*
Y75112D01*
D02*
G37*
G36*
X308515Y74075D02*
X308504D01*
Y74085D01*
X308515D01*
Y74075D01*
D02*
G37*
G36*
X307939Y73108D02*
X307928D01*
Y73119D01*
Y73129D01*
X307939D01*
Y73108D01*
D02*
G37*
G36*
X307602Y72858D02*
X307613D01*
Y72847D01*
X307591D01*
Y72869D01*
X307602D01*
Y72858D01*
D02*
G37*
G36*
X310142Y71332D02*
Y71321D01*
X310120D01*
Y71343D01*
X310142D01*
Y71332D01*
D02*
G37*
G36*
X309395Y70002D02*
X309384D01*
Y70013D01*
X309395D01*
Y70002D01*
D02*
G37*
G36*
X308813Y69024D02*
X308801D01*
Y69035D01*
Y69046D01*
X308813D01*
Y69024D01*
D02*
G37*
G36*
X308472Y68772D02*
X308483D01*
Y68761D01*
X308461D01*
Y68783D01*
X308472D01*
Y68772D01*
D02*
G37*
G36*
X285678Y63406D02*
X285656D01*
Y63417D01*
Y63428D01*
X285678D01*
Y63406D01*
D02*
G37*
G36*
X285939Y63004D02*
Y62993D01*
X285917D01*
Y63015D01*
X285939D01*
Y63004D01*
D02*
G37*
G36*
X287894Y59669D02*
X287883D01*
Y59679D01*
X287894D01*
Y59669D01*
D02*
G37*
G36*
X286299Y59212D02*
X286277D01*
Y59223D01*
Y59234D01*
X286299D01*
Y59212D01*
D02*
G37*
G36*
X286562Y58806D02*
Y58795D01*
X286541D01*
Y58817D01*
X286562D01*
Y58806D01*
D02*
G37*
G36*
X288540Y55433D02*
X288529D01*
Y55444D01*
X288540D01*
Y55433D01*
D02*
G37*
G36*
X295401Y51760D02*
X295391D01*
Y51770D01*
X295401D01*
Y51760D01*
D02*
G37*
G36*
X293761Y49619D02*
X293739D01*
Y49630D01*
X293761D01*
Y49619D01*
D02*
G37*
G36*
X296133Y47434D02*
X296122D01*
Y47445D01*
X296133D01*
Y47434D01*
D02*
G37*
G36*
X294474Y45269D02*
X294452D01*
Y45280D01*
X294474D01*
Y45269D01*
D02*
G37*
%LPC*%
G36*
X307743Y117162D02*
X302322D01*
Y117151D01*
X302278D01*
Y117119D01*
X302289D01*
Y117108D01*
X302311D01*
Y117097D01*
X302278D01*
Y117043D01*
X302268D01*
Y117010D01*
X302246D01*
Y117021D01*
X302192D01*
Y117010D01*
X302181D01*
Y116782D01*
X302192D01*
Y116706D01*
X302202D01*
Y116575D01*
X302192D01*
Y116532D01*
X302181D01*
Y115511D01*
X302192D01*
Y115500D01*
X302202D01*
Y115489D01*
X302224D01*
Y115456D01*
X302235D01*
Y115445D01*
X302246D01*
Y115435D01*
X307754D01*
Y115445D01*
X307765D01*
Y115456D01*
X307776D01*
Y115467D01*
X307787D01*
Y115478D01*
X307776D01*
Y115489D01*
X307798D01*
Y115500D01*
X307808D01*
Y115521D01*
X307819D01*
Y115826D01*
X307808D01*
Y116934D01*
X307819D01*
Y117053D01*
X307830D01*
Y117064D01*
X307819D01*
Y117097D01*
X307808D01*
Y117119D01*
X307798D01*
Y117140D01*
X307776D01*
Y117151D01*
X307743D01*
Y117162D01*
D02*
G37*
G36*
X315348Y109405D02*
X315337D01*
Y109394D01*
X315326D01*
Y109383D01*
X315337D01*
Y109372D01*
X315359D01*
Y109383D01*
Y109394D01*
X315348D01*
Y109405D01*
D02*
G37*
G36*
X314946Y109090D02*
X314903D01*
Y109068D01*
X314914D01*
Y109057D01*
X314935D01*
Y109068D01*
X314946D01*
Y109090D01*
D02*
G37*
G36*
X314436Y108677D02*
X314425D01*
Y108666D01*
X314414D01*
Y108645D01*
X314446D01*
Y108666D01*
X314436D01*
Y108677D01*
D02*
G37*
G36*
Y108080D02*
X314414D01*
Y108036D01*
X314446D01*
Y108069D01*
X314436D01*
Y108080D01*
D02*
G37*
G36*
X315087Y107493D02*
X315066D01*
Y107482D01*
X315077D01*
Y107471D01*
X315087D01*
Y107493D01*
D02*
G37*
G36*
X315587Y107113D02*
X315565D01*
Y107058D01*
X315587D01*
Y107069D01*
Y107080D01*
Y107113D01*
D02*
G37*
G36*
X302126Y103364D02*
X302116D01*
Y103267D01*
Y103256D01*
Y102843D01*
X302126D01*
Y103364D01*
D02*
G37*
G36*
Y102322D02*
X302116D01*
Y102202D01*
X302126D01*
Y102278D01*
Y102289D01*
Y102322D01*
D02*
G37*
G36*
Y101767D02*
X302116D01*
Y101680D01*
Y101670D01*
X302126D01*
Y101767D01*
D02*
G37*
G36*
X315663Y101050D02*
X315652D01*
Y100974D01*
Y100963D01*
X315663D01*
Y101050D01*
D02*
G37*
G36*
X315087Y85460D02*
X315077D01*
Y85406D01*
X315087D01*
Y85417D01*
Y85428D01*
Y85460D01*
D02*
G37*
G36*
X314436Y84319D02*
X314425D01*
Y84309D01*
X314414D01*
Y84298D01*
X314425D01*
Y84287D01*
X314436D01*
Y84298D01*
X314446D01*
Y84309D01*
X314436D01*
Y84319D01*
D02*
G37*
G36*
X313132Y82114D02*
X313121D01*
Y82103D01*
X313110D01*
Y82071D01*
X313132D01*
Y82081D01*
X313143D01*
Y82092D01*
X313132D01*
Y82114D01*
D02*
G37*
G36*
X309492Y75845D02*
X309460D01*
Y75835D01*
X309449D01*
Y75824D01*
X309460D01*
Y75813D01*
X309492D01*
Y75845D01*
D02*
G37*
G36*
X309145Y75280D02*
X309134D01*
Y75270D01*
X309123D01*
Y75237D01*
X309145D01*
Y75248D01*
X309156D01*
Y75270D01*
X309145D01*
Y75280D01*
D02*
G37*
G36*
X302126Y63341D02*
X302116D01*
Y63330D01*
X302126D01*
Y63341D01*
D02*
G37*
G36*
X301562Y62385D02*
X301551D01*
Y62374D01*
X301562D01*
Y62385D01*
D02*
G37*
G36*
X301583D02*
X301572D01*
Y62363D01*
X301583D01*
Y62374D01*
Y62385D01*
D02*
G37*
G36*
X301007Y61429D02*
X300997D01*
Y61418D01*
X300975D01*
Y61407D01*
X300986D01*
Y61396D01*
X301018D01*
Y61407D01*
Y61418D01*
X301007D01*
Y61429D01*
D02*
G37*
G36*
X300432Y60440D02*
X300421D01*
Y60429D01*
X300410D01*
Y60407D01*
X300421D01*
Y60397D01*
X300432D01*
Y60407D01*
X300443D01*
Y60429D01*
X300432D01*
Y60440D01*
D02*
G37*
G36*
X296108Y53107D02*
X296086D01*
Y53074D01*
X296108D01*
Y53085D01*
X296119D01*
Y53096D01*
X296108D01*
Y53107D01*
D02*
G37*
G36*
X294956Y51140D02*
X294945D01*
Y51129D01*
X294956D01*
Y51140D01*
D02*
G37*
G36*
X285483Y117249D02*
X280094D01*
Y117238D01*
X280029D01*
Y117184D01*
X280018D01*
Y117162D01*
X280007D01*
Y117097D01*
X279985D01*
Y117086D01*
X279974D01*
Y117097D01*
X279942D01*
Y117064D01*
X279931D01*
Y115597D01*
X279942D01*
Y115576D01*
X279953D01*
Y115565D01*
X279963D01*
Y115576D01*
X279996D01*
Y115532D01*
X280007D01*
Y115521D01*
X280029D01*
Y115511D01*
X280355D01*
Y115521D01*
X280898D01*
Y115532D01*
X281061D01*
Y115543D01*
X285005D01*
Y115532D01*
X285102D01*
Y115521D01*
X285504D01*
Y115532D01*
X285526D01*
Y115543D01*
X285548D01*
Y115565D01*
X285558D01*
Y115576D01*
X285569D01*
Y117129D01*
X285580D01*
Y117162D01*
X285569D01*
Y117195D01*
X285558D01*
Y117216D01*
X285548D01*
Y117227D01*
X285526D01*
Y117238D01*
X285483D01*
Y117249D01*
D02*
G37*
G36*
X272739Y85602D02*
X272728D01*
Y85591D01*
X272739D01*
Y85602D01*
D02*
G37*
G36*
X278062Y76562D02*
X278051D01*
Y76552D01*
X278062D01*
Y76562D01*
D02*
G37*
G36*
X287340Y60701D02*
X287329D01*
Y60690D01*
X287318D01*
Y60646D01*
X287329D01*
Y60636D01*
X287351D01*
Y60690D01*
X287340D01*
Y60701D01*
D02*
G37*
G36*
X324724Y124289D02*
X324626D01*
Y124278D01*
X324615D01*
Y124267D01*
X324702D01*
Y124256D01*
X324713D01*
Y124267D01*
X324724D01*
Y124289D01*
D02*
G37*
G36*
X337522Y123659D02*
X337489D01*
Y123637D01*
X337522D01*
Y123659D01*
D02*
G37*
G36*
X324713Y122116D02*
X324702D01*
Y122105D01*
X324691D01*
Y121834D01*
X324680D01*
Y121812D01*
X324691D01*
Y121801D01*
X324713D01*
Y121812D01*
X324724D01*
Y121834D01*
X324713D01*
Y121866D01*
Y121877D01*
Y122116D01*
D02*
G37*
G36*
X331959Y114196D02*
X331949D01*
Y114185D01*
X331938D01*
Y114174D01*
X331959D01*
Y114196D01*
D02*
G37*
G36*
X331721Y113794D02*
X331710D01*
Y113783D01*
X331721D01*
Y113794D01*
D02*
G37*
G36*
X330156Y111208D02*
X330145D01*
Y111198D01*
X330134D01*
Y111176D01*
X330189D01*
Y111198D01*
X330156D01*
Y111208D01*
D02*
G37*
G36*
X327321Y106287D02*
X327299D01*
Y106276D01*
X327321D01*
Y106287D01*
D02*
G37*
G36*
X327081Y105896D02*
X327071D01*
Y105885D01*
X327081D01*
Y105896D01*
D02*
G37*
G36*
X326821Y105494D02*
X326810D01*
Y105483D01*
X326799D01*
Y105461D01*
X326821D01*
Y105472D01*
X326832D01*
Y105483D01*
X326821D01*
Y105494D01*
D02*
G37*
G36*
X325799Y104266D02*
X325789D01*
Y104234D01*
X325799D01*
Y104244D01*
X325810D01*
Y104255D01*
X325799D01*
Y104266D01*
D02*
G37*
G36*
X315837Y101974D02*
X315826D01*
Y101963D01*
X315837D01*
Y101974D01*
D02*
G37*
G36*
X318510Y91316D02*
X318499D01*
Y91305D01*
X318510D01*
Y91316D01*
D02*
G37*
G36*
X318195Y90762D02*
X318173D01*
Y90697D01*
X318195D01*
Y90762D01*
D02*
G37*
G36*
X317467Y89523D02*
X317445D01*
Y89502D01*
X317467D01*
Y89513D01*
Y89523D01*
D02*
G37*
G36*
X317380Y89382D02*
X317369D01*
Y89371D01*
X317358D01*
Y89317D01*
X317391D01*
Y89371D01*
X317380D01*
Y89382D01*
D02*
G37*
G36*
X317152Y88948D02*
X317141D01*
Y88937D01*
X317152D01*
Y88948D01*
D02*
G37*
G36*
X317119Y88959D02*
X317108D01*
Y88948D01*
X317097D01*
Y88937D01*
X317130D01*
Y88948D01*
X317119D01*
Y88959D01*
D02*
G37*
G36*
X262233Y124289D02*
X262222D01*
Y124278D01*
Y124267D01*
X262233D01*
Y124289D01*
D02*
G37*
G36*
X271826Y124300D02*
X271815D01*
Y124289D01*
X271805D01*
Y124267D01*
X271815D01*
Y124017D01*
X271837D01*
Y124148D01*
Y124158D01*
Y124289D01*
X271826D01*
Y124300D01*
D02*
G37*
G36*
X271837Y123963D02*
X271815D01*
Y123941D01*
Y123930D01*
Y123887D01*
X271837D01*
Y123963D01*
D02*
G37*
G36*
X260984Y123333D02*
X260973D01*
Y123322D01*
X260962D01*
Y123268D01*
X260984D01*
Y123279D01*
X260995D01*
Y123289D01*
X260984D01*
Y123300D01*
Y123311D01*
X260995D01*
Y123322D01*
X260984D01*
Y123333D01*
D02*
G37*
G36*
X255247Y115608D02*
X255226D01*
Y115576D01*
X255258D01*
Y115597D01*
X255247D01*
Y115608D01*
D02*
G37*
G36*
X261712Y115109D02*
X261701D01*
Y115098D01*
Y115087D01*
X261712D01*
Y115109D01*
D02*
G37*
G36*
X255986Y114381D02*
X255965D01*
Y114370D01*
X255954D01*
Y114359D01*
X255965D01*
Y114348D01*
X255975D01*
Y114359D01*
X255986D01*
Y114381D01*
D02*
G37*
G36*
X260332Y115967D02*
X260321D01*
Y115956D01*
X260310D01*
Y115532D01*
X260321D01*
Y115521D01*
X260310D01*
Y114555D01*
X260321D01*
Y113512D01*
X260332D01*
Y114794D01*
X260343D01*
Y115489D01*
X260332D01*
Y115543D01*
X260343D01*
Y115619D01*
Y115630D01*
Y115739D01*
X260332D01*
Y115869D01*
X260343D01*
Y115956D01*
X260332D01*
Y115967D01*
D02*
G37*
G36*
X258822Y109481D02*
X258811D01*
Y109470D01*
X258800D01*
Y109448D01*
X258822D01*
Y109481D01*
D02*
G37*
%LPD*%
D10*
X471100Y934000D02*
G03*
X471100Y934000I-1000J0D01*
G01*
X393000Y717550D02*
G03*
X393000Y717550I-1000J0D01*
G01*
X382000Y453182D02*
G03*
X382000Y453182I-1000J0D01*
G01*
X277000Y859999D02*
G03*
X277000Y859999I-1000J0D01*
G01*
X461000Y717550D02*
G03*
X461000Y717550I-1000J0D01*
G01*
X325000D02*
G03*
X325000Y717550I-1000J0D01*
G01*
X382000Y60662D02*
G03*
X382000Y60662I-1000J0D01*
G01*
Y191502D02*
G03*
X382000Y191502I-1000J0D01*
G01*
Y322342D02*
G03*
X382000Y322342I-1000J0D01*
G01*
X252000Y19332D02*
Y29329D01*
X255332Y25997D01*
X258664Y29329D01*
Y19332D01*
X261997D02*
Y25997D01*
X265329Y29329D01*
X268661Y25997D01*
Y19332D01*
Y24331D01*
X261997D01*
X271994Y19332D02*
Y29329D01*
X276992D01*
X278658Y27663D01*
Y24331D01*
X276992Y22664D01*
X271994D01*
X275326D02*
X278658Y19332D01*
X281990Y29329D02*
Y19332D01*
Y22664D01*
X288655Y29329D01*
X283657Y24331D01*
X288655Y19332D01*
X301984Y29329D02*
Y19332D01*
X306982D01*
X308648Y20998D01*
Y22664D01*
X306982Y24331D01*
X301984D01*
X306982D01*
X308648Y25997D01*
Y27663D01*
X306982Y29329D01*
X301984D01*
X313647Y25997D02*
X316979D01*
X318645Y24331D01*
Y19332D01*
X313647D01*
X311981Y20998D01*
X313647Y22664D01*
X318645D01*
X323644Y27663D02*
Y25997D01*
X321978D01*
X325310D01*
X323644D01*
Y20998D01*
X325310Y19332D01*
X331974Y27663D02*
Y25997D01*
X330308D01*
X333640D01*
X331974D01*
Y20998D01*
X333640Y19332D01*
X343637D02*
X340305D01*
X338639Y20998D01*
Y24331D01*
X340305Y25997D01*
X343637D01*
X345303Y24331D01*
Y22664D01*
X338639D01*
X348635Y25997D02*
Y19332D01*
Y22664D01*
X350302Y24331D01*
X351968Y25997D01*
X353634D01*
X358632D02*
Y20998D01*
X360298Y19332D01*
X365297D01*
Y17666D01*
X363631Y16000D01*
X361965D01*
X365297Y19332D02*
Y25997D01*
X385290Y27663D02*
X383624Y29329D01*
X380292D01*
X378626Y27663D01*
Y20998D01*
X380292Y19332D01*
X383624D01*
X385290Y20998D01*
X388623Y29329D02*
Y19332D01*
Y24331D01*
X390289Y25997D01*
X393621D01*
X395287Y24331D01*
Y19332D01*
X400286Y25997D02*
X403618D01*
X405284Y24331D01*
Y19332D01*
X400286D01*
X398619Y20998D01*
X400286Y22664D01*
X405284D01*
X408616Y25997D02*
Y19332D01*
Y22664D01*
X410282Y24331D01*
X411949Y25997D01*
X413615D01*
X421945Y16000D02*
X423611D01*
X425277Y17666D01*
Y25997D01*
X420279D01*
X418613Y24331D01*
Y20998D01*
X420279Y19332D01*
X425277D01*
X433608D02*
X430276D01*
X428610Y20998D01*
Y24331D01*
X430276Y25997D01*
X433608D01*
X435274Y24331D01*
Y22664D01*
X428610D01*
X438606Y25997D02*
Y19332D01*
Y22664D01*
X440273Y24331D01*
X441939Y25997D01*
X443605D01*
D11*
X314000Y807000D02*
G03*
X314000Y807000I-25000J0D01*
G01*
X336460Y752382D02*
Y902382D01*
Y752382D02*
X486208D01*
Y903608D01*
X336834D02*
X486208D01*
X143300Y998000D02*
X203300D01*
Y938000D02*
Y998000D01*
X143300Y938000D02*
X203300D01*
X143300D02*
Y998000D01*
X165800Y938000D02*
Y943000D01*
X180800D01*
Y938000D02*
Y943000D01*
X66743Y5000D02*
X126743D01*
X66743D02*
Y65000D01*
X126743D01*
Y5000D02*
Y65000D01*
X104243Y60000D02*
Y65000D01*
X89243Y60000D02*
X104243D01*
X89243D02*
Y65000D01*
X143300Y5000D02*
X203300D01*
X143300D02*
Y65000D01*
X203300D01*
Y5000D02*
Y65000D01*
X180800Y60000D02*
Y65000D01*
X165800Y60000D02*
X180800D01*
X165800D02*
Y65000D01*
X66743Y998000D02*
X126743D01*
Y938000D02*
Y998000D01*
X66743Y938000D02*
X126743D01*
X66743D02*
Y998000D01*
X89243Y938000D02*
Y943000D01*
X104243D01*
Y938000D02*
Y943000D01*
X9500Y76142D02*
X229500D01*
X9500D02*
Y246142D01*
X229500D01*
Y76142D02*
Y246142D01*
Y255928D02*
Y425928D01*
X9500D02*
X229500D01*
X9500Y255928D02*
Y425928D01*
Y255928D02*
X229500D01*
Y435714D02*
Y605713D01*
X9500D02*
X229500D01*
X9500Y435714D02*
Y605713D01*
Y435714D02*
X229500D01*
X486500Y247720D02*
X491500D01*
X486500Y232720D02*
Y247720D01*
Y232720D02*
X491500D01*
X431500Y210220D02*
X491500D01*
Y270220D01*
X431500D02*
X491500D01*
X431500Y210220D02*
Y270220D01*
X486500Y378560D02*
X491500D01*
X486500Y363559D02*
Y378560D01*
Y363559D02*
X491500D01*
X431500Y341060D02*
X491500D01*
Y401060D01*
X431500D02*
X491500D01*
X431500Y341060D02*
Y401060D01*
Y471900D02*
Y531900D01*
X491500D01*
Y471900D02*
Y531900D01*
X431500Y471900D02*
X491500D01*
X486500Y494399D02*
X491500D01*
X486500D02*
Y509400D01*
X491500D01*
X229500Y615500D02*
Y785499D01*
X9500D02*
X229500D01*
X9500Y615500D02*
Y785499D01*
Y615500D02*
X229500D01*
X431500Y79380D02*
Y139380D01*
X491500D01*
Y79380D02*
Y139380D01*
X431500Y79380D02*
X491500D01*
X486500Y101880D02*
X491500D01*
X486500D02*
Y116880D01*
X491500D01*
X440956Y739775D02*
X446035D01*
X443495D01*
Y724540D01*
X440956D01*
X446035D01*
X453652D02*
Y739775D01*
X463809Y724540D01*
Y739775D01*
X468887D02*
X479044D01*
X473965D01*
Y724540D01*
X371687Y739775D02*
Y727079D01*
X374226Y724540D01*
X379304D01*
X381843Y727079D01*
Y739775D01*
X397078Y737236D02*
X394539Y739775D01*
X389461D01*
X386922Y737236D01*
Y734697D01*
X389461Y732158D01*
X394539D01*
X397078Y729618D01*
Y727079D01*
X394539Y724540D01*
X389461D01*
X386922Y727079D01*
X402157Y739775D02*
Y724540D01*
X409774D01*
X412313Y727079D01*
Y729618D01*
X409774Y732158D01*
X402157D01*
X409774D01*
X412313Y734697D01*
Y737236D01*
X409774Y739775D01*
X402157D01*
X311304D02*
X306226D01*
X303687Y737236D01*
Y727079D01*
X306226Y724540D01*
X311304D01*
X313843Y727079D01*
Y737236D01*
X311304Y739775D01*
X329078D02*
X318922D01*
Y732158D01*
X324000D01*
X318922D01*
Y724540D01*
X344314Y739775D02*
X334157D01*
Y732158D01*
X339235D01*
X334157D01*
Y724540D01*
X449843Y621775D02*
X439687D01*
Y606540D01*
X449843D01*
X439687Y614157D02*
X444765D01*
X454922Y621775D02*
X465078Y606540D01*
Y621775D02*
X454922Y606540D01*
X470157Y621775D02*
X480313D01*
X475235D01*
Y606540D01*
X374226Y621775D02*
X369147D01*
X371687D01*
Y609079D01*
X369147Y606540D01*
X366608D01*
X364069Y609079D01*
X379304Y606540D02*
Y616697D01*
X384383Y621775D01*
X389461Y616697D01*
Y606540D01*
Y614157D01*
X379304D01*
X404696Y619236D02*
X402157Y621775D01*
X397078D01*
X394539Y619236D01*
Y609079D01*
X397078Y606540D01*
X402157D01*
X404696Y609079D01*
X409774Y621775D02*
Y606540D01*
Y611618D01*
X419931Y621775D01*
X412313Y614157D01*
X419931Y606540D01*
X318932Y621775D02*
X313854D01*
X311315Y619236D01*
Y609079D01*
X313854Y606540D01*
X318932D01*
X321471Y609079D01*
Y619236D01*
X318932Y621775D01*
X326550Y606540D02*
Y621775D01*
X336706Y606540D01*
Y621775D01*
X350000Y836235D02*
Y821000D01*
X357617D01*
X360157Y823539D01*
Y833696D01*
X357617Y836235D01*
X350000D01*
X365235Y821000D02*
X370313D01*
X367774D01*
Y831157D01*
X365235D01*
X377931Y821000D02*
X385549D01*
X388088Y823539D01*
X385549Y826078D01*
X380470D01*
X377931Y828617D01*
X380470Y831157D01*
X388088D01*
X393166Y821000D02*
X398244D01*
X395705D01*
Y831157D01*
X393166D01*
X405862Y815922D02*
Y831157D01*
X413479D01*
X416019Y828617D01*
Y823539D01*
X413479Y821000D01*
X405862D01*
X423636Y831157D02*
X428714D01*
X431254Y828617D01*
Y821000D01*
X423636D01*
X421097Y823539D01*
X423636Y826078D01*
X431254D01*
X446489Y836235D02*
Y821000D01*
X438871D01*
X436332Y823539D01*
Y828617D01*
X438871Y831157D01*
X446489D01*
X454106Y821000D02*
X459185D01*
X461724Y823539D01*
Y828617D01*
X459185Y831157D01*
X454106D01*
X451567Y828617D01*
Y823539D01*
X454106Y821000D01*
X466802Y831157D02*
Y821000D01*
Y826078D01*
X469341Y828617D01*
X471880Y831157D01*
X474420D01*
X211764Y27696D02*
X209225Y25157D01*
Y20079D01*
X211764Y17540D01*
X221921D01*
X224460Y20079D01*
Y25157D01*
X221921Y27696D01*
X216842D01*
Y22618D01*
X224460Y32775D02*
X209225D01*
X224460Y42931D01*
X209225D01*
Y48010D02*
X224460D01*
Y55627D01*
X221921Y58166D01*
X211764D01*
X209225Y55627D01*
Y48010D01*
X7687Y930618D02*
Y917922D01*
X10226Y915383D01*
X15304D01*
X17843Y917922D01*
Y930618D01*
X33078Y928078D02*
X30539Y930618D01*
X25461D01*
X22922Y928078D01*
Y925539D01*
X25461Y923000D01*
X30539D01*
X33078Y920461D01*
Y917922D01*
X30539Y915383D01*
X25461D01*
X22922Y917922D01*
X38157Y930618D02*
Y915383D01*
X45774D01*
X48313Y917922D01*
Y920461D01*
X45774Y923000D01*
X38157D01*
X45774D01*
X48313Y925539D01*
Y928078D01*
X45774Y930618D01*
X38157D01*
X328382Y944226D02*
Y939147D01*
Y941687D01*
X341078D01*
X343618Y939147D01*
Y936608D01*
X341078Y934069D01*
X343618Y949304D02*
X333461D01*
X328382Y954382D01*
X333461Y959461D01*
X343618D01*
X336000D01*
Y949304D01*
X330922Y974696D02*
X328382Y972157D01*
Y967078D01*
X330922Y964539D01*
X341078D01*
X343618Y967078D01*
Y972157D01*
X341078Y974696D01*
X328382Y979774D02*
X343618D01*
X338539D01*
X328382Y989931D01*
X336000Y982313D01*
X343618Y989931D01*
X363217Y172418D02*
X360677Y174957D01*
X355599D01*
X353060Y172418D01*
Y169879D01*
X355599Y167339D01*
X360677D01*
X363217Y164800D01*
Y162261D01*
X360677Y159722D01*
X355599D01*
X353060Y162261D01*
X368295Y174957D02*
Y159722D01*
X373373Y164800D01*
X378452Y159722D01*
Y174957D01*
X391148Y159722D02*
Y174957D01*
X383530Y167339D01*
X393687D01*
X363185Y303244D02*
X360645Y305783D01*
X355567D01*
X353028Y303244D01*
Y300705D01*
X355567Y298165D01*
X360645D01*
X363185Y295626D01*
Y293087D01*
X360645Y290548D01*
X355567D01*
X353028Y293087D01*
X368263Y305783D02*
Y290548D01*
X373341Y295626D01*
X378420Y290548D01*
Y305783D01*
X383498Y303244D02*
X386037Y305783D01*
X391116D01*
X393655Y303244D01*
Y300705D01*
X391116Y298165D01*
X388577D01*
X391116D01*
X393655Y295626D01*
Y293087D01*
X391116Y290548D01*
X386037D01*
X383498Y293087D01*
X363217Y434326D02*
X360677Y436865D01*
X355599D01*
X353060Y434326D01*
Y431786D01*
X355599Y429247D01*
X360677D01*
X363217Y426708D01*
Y424169D01*
X360677Y421630D01*
X355599D01*
X353060Y424169D01*
X368295Y436865D02*
Y421630D01*
X373373Y426708D01*
X378452Y421630D01*
Y436865D01*
X393687Y421630D02*
X383530D01*
X393687Y431786D01*
Y434326D01*
X391148Y436865D01*
X386069D01*
X383530Y434326D01*
X363169Y564974D02*
X360630Y567513D01*
X355551D01*
X353012Y564974D01*
Y562435D01*
X355551Y559895D01*
X360630D01*
X363169Y557356D01*
Y554817D01*
X360630Y552278D01*
X355551D01*
X353012Y554817D01*
X368247Y567513D02*
Y552278D01*
X373325Y557356D01*
X378404Y552278D01*
Y567513D01*
X383482Y552278D02*
X388560D01*
X386021D01*
Y567513D01*
X383482Y564974D01*
X84495Y932617D02*
X74339D01*
Y917383D01*
X84495D01*
X74339Y925000D02*
X79417D01*
X89574Y932617D02*
X94652D01*
X92113D01*
Y917383D01*
X89574D01*
X94652D01*
X102270D02*
Y932617D01*
X112426Y917383D01*
Y932617D01*
X117505Y925000D02*
X127661D01*
X122583Y930078D02*
Y919922D01*
X156495Y932617D02*
X146339D01*
Y917383D01*
X156495D01*
X146339Y925000D02*
X151417D01*
X161574Y932617D02*
X166652D01*
X164113D01*
Y917383D01*
X161574D01*
X166652D01*
X174270D02*
Y932617D01*
X184426Y917383D01*
Y932617D01*
X189505Y925000D02*
X199661D01*
X44383Y14608D02*
Y4451D01*
X59618D01*
Y14608D01*
X52000Y4451D02*
Y9530D01*
X44383Y27304D02*
Y22226D01*
X46922Y19687D01*
X57078D01*
X59618Y22226D01*
Y27304D01*
X57078Y29843D01*
X46922D01*
X44383Y27304D01*
Y34922D02*
X57078D01*
X59618Y37461D01*
Y42539D01*
X57078Y45078D01*
X44383D01*
Y50157D02*
Y60313D01*
Y55235D01*
X59618D01*
X52000Y65392D02*
Y75549D01*
X46922Y70470D02*
X57078D01*
X216673Y820002D02*
Y829998D01*
X221671D01*
X223337Y828332D01*
Y825000D01*
X221671Y823334D01*
X216673D01*
X220005D02*
X223337Y820002D01*
X226669Y829998D02*
Y820002D01*
X233334D01*
X243331Y829998D02*
X236666D01*
Y820002D01*
X243331D01*
X236666Y825000D02*
X239998D01*
X246663Y829998D02*
Y820002D01*
X251661D01*
X253327Y821668D01*
Y828332D01*
X251661Y829998D01*
X246663D01*
X406334Y990332D02*
X404668Y991998D01*
X401335D01*
X399669Y990332D01*
Y983668D01*
X401335Y982002D01*
X404668D01*
X406334Y983668D01*
X416331Y982002D02*
X409666D01*
X416331Y988666D01*
Y990332D01*
X414664Y991998D01*
X411332D01*
X409666Y990332D01*
X417000Y969332D02*
X415334Y970998D01*
X412002D01*
X410336Y969332D01*
Y962668D01*
X412002Y961002D01*
X415334D01*
X417000Y962668D01*
X420332Y961002D02*
X423665D01*
X421998D01*
Y970998D01*
X420332Y969332D01*
X235687Y245618D02*
X245843D01*
X240765D01*
Y230382D01*
X250922D02*
Y245618D01*
X258539D01*
X261078Y243078D01*
Y238000D01*
X258539Y235461D01*
X250922D01*
X273774Y230382D02*
Y245618D01*
X266157Y238000D01*
X276313D01*
X235687Y424618D02*
X245843D01*
X240765D01*
Y409383D01*
X250922D02*
Y424618D01*
X258539D01*
X261078Y422078D01*
Y417000D01*
X258539Y414461D01*
X250922D01*
X266157Y422078D02*
X268696Y424618D01*
X273774D01*
X276313Y422078D01*
Y419539D01*
X273774Y417000D01*
X271235D01*
X273774D01*
X276313Y414461D01*
Y411922D01*
X273774Y409383D01*
X268696D01*
X266157Y411922D01*
X235687Y604618D02*
X245843D01*
X240765D01*
Y589383D01*
X250922D02*
Y604618D01*
X258539D01*
X261078Y602078D01*
Y597000D01*
X258539Y594461D01*
X250922D01*
X276313Y589383D02*
X266157D01*
X276313Y599539D01*
Y602078D01*
X273774Y604618D01*
X268696D01*
X266157Y602078D01*
X235226Y781618D02*
X245382D01*
X240304D01*
Y766383D01*
X250461D02*
Y781618D01*
X258078D01*
X260618Y779078D01*
Y774000D01*
X258078Y771461D01*
X250461D01*
X265696Y766383D02*
X270774D01*
X268235D01*
Y781618D01*
X265696Y779078D01*
X333843Y924617D02*
Y911922D01*
X336382Y909382D01*
X341461D01*
X344000Y911922D01*
Y924617D01*
X349078Y909382D02*
X354157D01*
X351618D01*
Y924617D01*
X349078Y922078D01*
X430784Y148194D02*
Y163429D01*
X438401D01*
X440941Y160889D01*
Y155811D01*
X438401Y153272D01*
X430784D01*
X453637Y148194D02*
Y163429D01*
X446019Y155811D01*
X456176D01*
X430784Y279132D02*
Y294367D01*
X438401D01*
X440941Y291828D01*
Y286749D01*
X438401Y284210D01*
X430784D01*
X446019Y291828D02*
X448558Y294367D01*
X453637D01*
X456176Y291828D01*
Y289288D01*
X453637Y286749D01*
X451097D01*
X453637D01*
X456176Y284210D01*
Y281671D01*
X453637Y279132D01*
X448558D01*
X446019Y281671D01*
X430784Y410070D02*
Y425305D01*
X438401D01*
X440941Y422766D01*
Y417687D01*
X438401Y415148D01*
X430784D01*
X456176Y410070D02*
X446019D01*
X456176Y420226D01*
Y422766D01*
X453637Y425305D01*
X448558D01*
X446019Y422766D01*
X431343Y537582D02*
Y552817D01*
X438961D01*
X441500Y550278D01*
Y545200D01*
X438961Y542660D01*
X431343D01*
X446578Y537582D02*
X451657D01*
X449118D01*
Y552817D01*
X446578Y550278D01*
X305843Y847617D02*
Y832383D01*
X313461D01*
X316000Y834922D01*
Y845078D01*
X313461Y847617D01*
X305843D01*
X321078Y832383D02*
X326157D01*
X323618D01*
Y847617D01*
X321078Y845078D01*
D12*
X358900Y952000D02*
X464300D01*
X358900Y905000D02*
Y952000D01*
Y905000D02*
X464300D01*
Y952000D01*
D13*
X-5671Y898700D02*
X6829D01*
X33829D02*
X44829D01*
X-5671Y809300D02*
X6829D01*
X33829D02*
X44829D01*
X-5671D02*
Y898700D01*
X84500Y871500D02*
Y874500D01*
X97500Y871500D02*
Y874500D01*
Y833500D02*
Y836500D01*
X84500Y833500D02*
Y836500D01*
X366600Y628750D02*
X417400D01*
X366600Y710050D02*
X417400D01*
Y628750D02*
Y710050D01*
X366600Y628750D02*
Y710050D01*
X355600Y541982D02*
X406400D01*
X355600Y460682D02*
X406400D01*
X355600D02*
Y541982D01*
X406400Y460682D02*
Y541982D01*
X232000Y869750D02*
Y882299D01*
Y869750D02*
X250800D01*
X232000Y926700D02*
Y1011899D01*
X320000D01*
Y869750D02*
Y1011899D01*
X301200Y869750D02*
X320000D01*
X392500Y974500D02*
Y977500D01*
X379500Y974500D02*
Y977500D01*
X443500Y974500D02*
Y977500D01*
X430500Y974500D02*
Y977500D01*
X233500Y813501D02*
X236500D01*
X233500Y800500D02*
X236500D01*
X434600Y628750D02*
X485400D01*
X434600Y710050D02*
X485400D01*
Y628750D02*
Y710050D01*
X434600Y628750D02*
Y710050D01*
X298600Y628750D02*
X349400D01*
X298600Y710050D02*
X349400D01*
Y628750D02*
Y710050D01*
X298600Y628750D02*
Y710050D01*
X355600Y149462D02*
X406400D01*
X355600Y68162D02*
X406400D01*
X355600D02*
Y149462D01*
X406400Y68162D02*
Y149462D01*
X355600Y280302D02*
X406400D01*
X355600Y199002D02*
X406400D01*
X355600D02*
Y280302D01*
X406400Y199002D02*
Y280302D01*
X355600Y411142D02*
X406400D01*
X355600Y329842D02*
X406400D01*
X355600D02*
Y411142D01*
X406400Y329842D02*
Y411142D01*
D14*
X110499Y818672D02*
X103501D01*
Y822171D01*
X104667Y823337D01*
X107000D01*
X108166Y822171D01*
Y818672D01*
Y821004D02*
X110499Y823337D01*
X103501Y825670D02*
X109333D01*
X110499Y826836D01*
Y829168D01*
X109333Y830335D01*
X103501D01*
X104667Y837333D02*
X103501Y836166D01*
Y833834D01*
X104667Y832667D01*
X105834D01*
X107000Y833834D01*
Y836166D01*
X108166Y837333D01*
X109333D01*
X110499Y836166D01*
Y833834D01*
X109333Y832667D01*
X103501Y839665D02*
X110499D01*
Y843164D01*
X109333Y844330D01*
X108166D01*
X107000Y843164D01*
Y839665D01*
Y843164D01*
X105834Y844330D01*
X104667D01*
X103501Y843164D01*
Y839665D01*
X110499Y851328D02*
Y846663D01*
X105834Y851328D01*
X104667D01*
X103501Y850162D01*
Y847829D01*
X104667Y846663D01*
X110499Y857838D02*
X103501D01*
Y861337D01*
X104667Y862503D01*
X107000D01*
X108166Y861337D01*
Y857838D01*
Y860171D02*
X110499Y862503D01*
X103501Y864836D02*
X109333D01*
X110499Y866002D01*
Y868335D01*
X109333Y869501D01*
X103501D01*
X104667Y876499D02*
X103501Y875333D01*
Y873000D01*
X104667Y871834D01*
X105834D01*
X107000Y873000D01*
Y875333D01*
X108166Y876499D01*
X109333D01*
X110499Y875333D01*
Y873000D01*
X109333Y871834D01*
X103501Y878831D02*
X110499D01*
Y882330D01*
X109333Y883497D01*
X108166D01*
X107000Y882330D01*
Y878831D01*
Y882330D01*
X105834Y883497D01*
X104667D01*
X103501Y882330D01*
Y878831D01*
X110499Y885829D02*
Y888162D01*
Y886995D01*
X103501D01*
X104667Y885829D01*
D15*
X17755Y162502D02*
D03*
Y342291D02*
D03*
Y522068D02*
D03*
X17750Y701859D02*
D03*
M02*
