G04*
G04 #@! TF.GenerationSoftware,Altium Limited,Altium Designer,24.2.2 (26)*
G04*
G04 Layer_Color=128*
%FSLAX44Y44*%
%MOMM*%
G71*
G04*
G04 #@! TF.SameCoordinates,C1532DF8-A77D-479D-A07C-5EAB100E6B30*
G04*
G04*
G04 #@! TF.FilePolarity,Positive*
G04*
G01*
G75*
%ADD13C,0.1270*%
D13*
X380000Y934000D02*
X392400D01*
X386200Y927800D02*
Y940200D01*
X405400Y934000D02*
X417800D01*
X411600Y927800D02*
Y940200D01*
X430800Y934000D02*
X443200D01*
X437000Y927800D02*
Y940200D01*
X17829Y810800D02*
X22829D01*
X20329Y808300D02*
Y813300D01*
X17829Y897200D02*
X22829D01*
X20329Y894700D02*
Y899700D01*
X55829Y810800D02*
X60829D01*
X58329Y808300D02*
Y813300D01*
X55829Y897200D02*
X60829D01*
X58329Y894700D02*
Y899700D01*
X387000Y694800D02*
X397000D01*
X392000Y689800D02*
Y699800D01*
X387000Y669400D02*
X397000D01*
X392000Y664400D02*
Y674400D01*
X387000Y644000D02*
X397000D01*
X392000Y639000D02*
Y649000D01*
X376000Y475932D02*
X386000D01*
X381000Y470932D02*
Y480932D01*
X376000Y501332D02*
X386000D01*
X381000Y496332D02*
Y506332D01*
X376000Y526732D02*
X386000D01*
X381000Y521732D02*
Y531732D01*
X270000Y877449D02*
X282000D01*
X276000Y871450D02*
Y883449D01*
X270000Y937000D02*
X282000D01*
X276000Y931000D02*
Y942999D01*
X223100Y907039D02*
X235100D01*
X229100Y901040D02*
Y913039D01*
X154100Y968000D02*
X167100D01*
X160600Y961500D02*
Y974500D01*
X179500Y968000D02*
X192500D01*
X186000Y961500D02*
Y974500D01*
X102943Y35000D02*
X115943D01*
X109444Y28500D02*
Y41500D01*
X77544Y35000D02*
X90543D01*
X84044Y28500D02*
Y41500D01*
X179500Y35000D02*
X192500D01*
X186000Y28500D02*
Y41500D01*
X154100Y35000D02*
X167100D01*
X160600Y28500D02*
Y41500D01*
X77544Y968000D02*
X90543D01*
X84044Y961500D02*
Y974500D01*
X102944Y968000D02*
X115943D01*
X109444Y961500D02*
Y974500D01*
X22000Y93642D02*
X32000D01*
X27000Y88642D02*
Y98642D01*
X22000Y228641D02*
X32000D01*
X27000Y223641D02*
Y233641D01*
X207000Y228641D02*
X217000D01*
X212000Y223641D02*
Y233641D01*
X207000Y93642D02*
X217000D01*
X212000Y88642D02*
Y98642D01*
X455000Y694800D02*
X465000D01*
X460000Y689800D02*
Y699800D01*
X455000Y669400D02*
X465000D01*
X460000Y664400D02*
Y674400D01*
X455000Y644000D02*
X465000D01*
X460000Y639000D02*
Y649000D01*
X319000Y694800D02*
X329000D01*
X324000Y689800D02*
Y699800D01*
X319000Y669400D02*
X329000D01*
X324000Y664400D02*
Y674400D01*
X319000Y644000D02*
X329000D01*
X324000Y639000D02*
Y649000D01*
X376000Y83412D02*
X386000D01*
X381000Y78412D02*
Y88412D01*
X376000Y108812D02*
X386000D01*
X381000Y103812D02*
Y113812D01*
X376000Y134212D02*
X386000D01*
X381000Y129212D02*
Y139212D01*
X376000Y214252D02*
X386000D01*
X381000Y209252D02*
Y219252D01*
X376000Y239652D02*
X386000D01*
X381000Y234652D02*
Y244652D01*
X376000Y265052D02*
X386000D01*
X381000Y260052D02*
Y270052D01*
X376000Y345092D02*
X386000D01*
X381000Y340092D02*
Y350092D01*
X376000Y370492D02*
X386000D01*
X381000Y365492D02*
Y375492D01*
X376000Y395892D02*
X386000D01*
X381000Y390892D02*
Y400892D01*
X207000Y273428D02*
X217000D01*
X212000Y268428D02*
Y278428D01*
X207000Y408428D02*
X217000D01*
X212000Y403428D02*
Y413428D01*
X22000Y408428D02*
X32000D01*
X27000Y403428D02*
Y413428D01*
X22000Y273428D02*
X32000D01*
X27000Y268428D02*
Y278428D01*
X207000Y453214D02*
X217000D01*
X212000Y448214D02*
Y458214D01*
X207000Y588214D02*
X217000D01*
X212000Y583214D02*
Y593214D01*
X22000Y588214D02*
X32000D01*
X27000Y583214D02*
Y593214D01*
X22000Y453214D02*
X32000D01*
X27000Y448214D02*
Y458214D01*
X300190Y807000D02*
X307810D01*
X304000Y803190D02*
Y810810D01*
X270500Y807000D02*
X277500D01*
X274000Y803500D02*
Y810500D01*
X455000Y252920D02*
X468000D01*
X461500Y246420D02*
Y259420D01*
X455000Y227520D02*
X468000D01*
X461500Y221020D02*
Y234020D01*
X455000Y383760D02*
X468000D01*
X461500Y377260D02*
Y390260D01*
X455000Y358360D02*
X468000D01*
X461500Y351860D02*
Y364860D01*
X455000Y489200D02*
X468000D01*
X461500Y482700D02*
Y495700D01*
X455000Y514600D02*
X468000D01*
X461500Y508100D02*
Y521100D01*
X207000Y632999D02*
X217000D01*
X212000Y627999D02*
Y637999D01*
X207000Y768000D02*
X217000D01*
X212000Y763000D02*
Y773000D01*
X22000Y768000D02*
X32000D01*
X27000Y763000D02*
Y773000D01*
X22000Y632999D02*
X32000D01*
X27000Y627999D02*
Y637999D01*
X455000Y96680D02*
X468000D01*
X461500Y90180D02*
Y103180D01*
X455000Y122080D02*
X468000D01*
X461500Y115580D02*
Y128580D01*
X168758Y552314D02*
X175870D01*
X172314Y548758D02*
Y555870D01*
X242444Y536000D02*
X249556D01*
X246000Y532444D02*
Y539556D01*
X260927Y674678D02*
X268039D01*
X264483Y671122D02*
Y678234D01*
X246444Y749000D02*
X253556D01*
X250000Y745444D02*
Y752556D01*
X454716Y748350D02*
X461828D01*
X458272Y744794D02*
Y751906D01*
X385444Y767152D02*
X392556D01*
X389000Y763596D02*
Y770708D01*
X90444Y794000D02*
X97556D01*
X94000Y790444D02*
Y797556D01*
X12500Y25000D02*
X37500D01*
X25000Y12500D02*
Y37500D01*
X462500Y975000D02*
X487500D01*
X475000Y962500D02*
Y987500D01*
X12500Y975000D02*
X37500D01*
X25000Y962500D02*
Y987500D01*
X462500Y25000D02*
X487500D01*
X475000Y12500D02*
Y37500D01*
M02*
